<?xml version="1.0" encoding="UTF-8"?>
<svg id="Layer_1" data-name="Layer 1" xmlns="http://www.w3.org/2000/svg" viewBox="0 0 1000 1000">
  <defs>
    <style>
      .cls-1 {
        fill: #7a1318;
      }
    </style>
  </defs>
  <g>
    <ellipse class="cls-1" cx="353.14" cy="442.99" rx="30.55" ry="161.4" transform="translate(-177.69 640.89) rotate(-71.89)"/>
    <path class="cls-1" d="M224.05,660.56c-15.08,1.44-21.57,6.26-21.14,13.79.13,2.29,1.33,4.38,3.24,5.66,7.61,5.1,13.12-3.49,22.79-4.6,3.72-.43,7.36,1.3,9.49,4.37,8.48,12.26,14.15,19.69,16.05,15.91-1.84-7.62-3.15-15.59-6.53-22.21-4.49-8.8-14.06-13.87-23.9-12.93Z"/>
    <path class="cls-1" d="M330.49,618.05s-.05-.02-.08-.03c-2.01-.66-4.19.41-4.89,2.42-.71,2.03.36,4.26,2.39,4.97,1.51.53,2.85,1.11,4.04,1.74-28.09,2.24-53.53-1.36-75.62-10.73-18.58-7.88-30.89-18.2-37.94-25.47-.12-.12-.24-.24-.36-.35,1.52.19,3.12.52,4.82.94,2.09.51,4.21-.76,4.72-2.86.51-2.09-.76-4.21-2.86-4.72-10.47-2.58-19.38-2.28-28.86,7.52-1.5,1.55-1.46,4.02.09,5.52.44.42.95.73,1.5.9,1.37.45,2.95.11,4.02-1,1.28-1.32,2.52-2.41,3.75-3.29-.44,1.15-.62,2.41-.49,3.72,1.53,14.94,5.71,27.35,12.77,37.96l.34.51.48.38c10.05,7.97,21.43,14.03,34.07,18.16,14.19,4.64,29.95,6.85,47.18,6.59h.5s.48-.14.48-.14c12.81-3.55,24.69-9.7,37.41-19.36,1.23-.93,2.12-2.15,2.64-3.5.44,1.43.81,2.97,1.13,4.64.28,1.44,1.32,2.54,2.62,2.97.61.2,1.28.25,1.95.12,2.12-.41,3.5-2.45,3.09-4.57-2.04-10.59-6.04-18.56-18.91-23.06ZM333.25,635.23c-11.74,8.92-22.66,14.62-34.3,17.92-30.68.38-55.32-7.05-75.3-22.69-6.14-9.41-9.79-20.52-11.17-33.92,0-.06,0-.09,0-.1.03-.06.17-.13.23-.12,0,0,.02.01.07.06,7.56,7.79,20.72,18.84,40.5,27.23,23.42,9.92,50.28,13.72,79.86,11.28.07,0,.1,0,.1,0,.05.04.11.2.09.25,0,0-.03.04-.09.08Z"/>
    <path class="cls-1" d="M363.37,622.8c-2.56-2.78-7.48-.86-6.03,2.36,4.95,11.06,9.68,28.31-.27,41.73-7.3,9.84-3.33,11.82,3.12,11.08,11.61-1.34,19.1-10.07,17.68-20.06-1.52-10.7-5.28-25.09-14.5-35.11Z"/>
    <path class="cls-1" d="M207.57,565.22c-9.01-.48-18.9,3.97-25.85,7.97-6.49,3.73-9.35,11.73-6.43,18.62,1.62,3.83,4.09,5.09,7.69-3.3,4.9-11.44,16.84-16.65,25.1-18.95,2.41-.67,1.99-4.2-.51-4.33Z"/>
    <path class="cls-1" d="M345.39,547.49c4.86-3.14,12.56-3.37,19.63-.57,6.77,2.68,12.03,7.7,13.72,13.11.62,1.99,2.69,3.13,4.69,2.62.07-.02.13-.04.2-.06,2.06-.64,3.2-2.83,2.56-4.89-2.41-7.72-9.25-14.46-18.29-18.04-9.48-3.75-19.72-3.26-26.74,1.28-1.81,1.17-2.33,3.59-1.16,5.4,1.17,1.81,3.58,2.32,5.4,1.15Z"/>
    <path class="cls-1" d="M173.98,485.96c4.86-3.14,12.56-3.37,19.63-.57,6.77,2.68,12.03,7.7,13.72,13.11.62,1.99,2.69,3.13,4.69,2.62.07-.02.13-.04.2-.06,2.06-.64,3.2-2.83,2.56-4.89-2.41-7.72-9.25-14.46-18.29-18.04-9.48-3.75-19.72-3.26-26.74,1.28-1.81,1.17-2.33,3.59-1.16,5.4,1.17,1.81,3.58,2.32,5.4,1.15Z"/>
    <path class="cls-1" d="M265.9,600.55c4.68,1.53,9.78,2.54,15.28,3,4.2.35,8.24-.07,12.03-1.25,5.29-1.65,8.63-4.34,9.94-7.99,1.32-3.7.41-8-2.72-12.78l-.04-.06c-4.64-6.81-12.69-5.24-18.62-2.72-1.98.84-2.91,3.13-2.07,5.11.84,1.98,3.13,2.91,5.12,2.07,7.02-2.98,8.54-.92,9.1-.09,1.66,2.54,2.33,4.61,1.89,5.85-.43,1.19-2.17,2.32-4.92,3.18-2.81.88-5.86,1.19-9.04.92-12.3-1.04-22.21-5.06-29.45-11.96-2.62-2.49-3.42-6.45-1.98-9.84,7.07-16.71,18.85-34.68,35.99-54.96,1.39-1.65,1.19-4.11-.46-5.5-1.65-1.39-4.11-1.18-5.5.46-17.66,20.89-29.84,39.52-37.22,56.96-2.69,6.36-1.17,13.81,3.78,18.53,5.23,4.98,11.55,8.68,18.89,11.09Z"/>
    <path class="cls-1" d="M679.06,341.81c88.67-9.14,159.14-30.15,157.41-46.94-1.73-16.78-75.01-22.98-163.68-13.84-88.67,9.14-159.14,30.15-157.41,46.94,1.73,16.78,75.01,22.98,163.68,13.84Z"/>
    <path class="cls-1" d="M798.54,446.13c-2.05-1.63-4.83.85-3.41,3.05,4.89,7.54,10.63,19.91,6.54,32.29-3,9.08-.19,9.8,3.74,7.93,7.07-3.38,10.38-11.64,7.88-19.07-2.68-7.96-7.35-18.32-14.75-24.19Z"/>
    <path class="cls-1" d="M601.25,469.43c-7.59,5.63-12.61,15.82-15.55,23.69-2.74,7.34.28,15.71,7.24,19.32,3.87,2.01,6.7,1.37,4-7.8-3.68-12.51,2.47-24.69,7.61-32.06,1.5-2.15-1.2-4.72-3.3-3.16Z"/>
    <path class="cls-1" d="M763.79,456.01c-41.39,18.88-84.02,23.76-127.78,15.89-8.3-1.49-16.45,2.41-21.07,9.46-7.78,11.88-6.68,18.7-4.95,24.95.81,2.92,4.06,3.87,4.98,1,1.48-4.58-.16-7.72,2.72-12.01,4.63-6.89,10.12-12.9,22.61-9.83,43.59,10.7,87.61,3.77,119.33-13.04,8.63-4.57,19.35-2.33,25.14,5.54,2.22,3.01-1.19,6.48.87,10,1.4,2.39,2.84.43,4.76-1.56,1.98-2.05,4.75-11.76-.05-21.39-4.82-9.69-16.73-13.5-26.57-9.01Z"/>
    <path class="cls-1" d="M767.75,493.31c-6.81.44-10.21-1.05-15.16-6.64-1.43-1.61-3.89-1.77-5.51-.34-1.61,1.43-1.76,3.89-.34,5.51.47.53.94,1.03,1.4,1.52-31.23,10.7-62.24,14.43-92.28,11.08.42-.7.83-1.42,1.23-2.17,1.02-1.9.3-4.26-1.6-5.28-1.9-1.02-4.26-.3-5.28,1.6-3.52,6.58-6.48,8.82-13.21,9.97-2.12.36-3.55,2.38-3.19,4.5.35,2.04,2.22,3.43,4.24,3.22.09,0,.17-.02.26-.04,3.06-.52,5.58-1.3,7.74-2.33.43.75,1.01,1.43,1.74,1.98,18.59,14.24,37.04,20.41,55.22,18.53,18.69-1.93,37.11-12.36,55.11-31.29.74-.78,1.26-1.68,1.56-2.63,2.45.58,5.25.79,8.56.57.05,0,.1,0,.15-.01,2.07-.21,3.62-2.03,3.49-4.13-.14-2.15-1.99-3.78-4.14-3.64ZM656.08,512.32c30.32,3.21,61.54-.49,92.94-11.01-30.48,30.04-60.96,33.65-92.94,11.01Z"/>
    <path class="cls-1" d="M908.07,315.93l-40.37-.48-3.54-.11c-.68-7.94-1.48-16.14-2.42-24.65.04-1.21,0-2.43-.13-3.64-.63-6.12-3.61-14.91-14.22-21.97-4.58-3.05-10.21-5.5-17.21-7.5-10.28-2.93-24.08-4.97-41.03-6.06-32.36-2.1-74.62-.73-119,3.85-44.38,4.57-86.04,11.86-117.29,20.51-16.37,4.53-29.46,9.35-38.93,14.31-6.44,3.38-11.45,6.93-15.32,10.85-8.93,9.06-10.07,18.25-9.44,24.37,1.91,20.03,4.05,37.24,6.31,52.14-8.98-.93-17.82,4-21.57,12.5l-6.1,13.82c-2.07,4.7.05,10.19,4.75,12.27,4.7,2.07,10.19-.05,12.27-4.75l6.1-13.82c.52-1.17,1.84-1.79,3.07-1.42l4.84,1.43c4.82,26.17,9.93,43.73,14.38,57.09.34,1.03.71,2.02,1.05,3.04-8.02-7.02-19.28-14.54-33.5-22.37-28.55-15.71-67.65-32.02-110.11-45.91-42.46-13.89-83.63-23.85-115.95-28.04-16.95-2.2-31.05-2.74-41.91-1.6-7.39.78-13.54,2.33-18.79,4.74-11.83,5.43-16.75,14.02-18.78,20.21-3.22,9.61-6.16,18.69-8.87,27.34l-7.81-1.44-39.56-8.08c-16.29-3.33-32.81,6.55-38.44,22.97-15.71,45.87-23.75,77.29-26.08,101.9-2.98,31.48,3.5,54.5,19.83,70.38.66.64,1.3,1.27,1.92,1.88,6.39,6.28,12.99,12.77,26.05,17.97,1.56.62,3.14,1.19,4.73,1.71,10.97,3.59,22.69,4.8,34.46,3.58,2.63,14.48,6.41,28.4,11.37,41.85l.37,1,.62.86c26.01,36.09,58.44,60.69,96.4,73.11,37.72,12.34,81.73,12.88,130.81,1.62l1.33-.31,1.15-.74c34.93-22.49,64.27-55.09,89.69-99.65,12.58-22.06,24.32-47.24,35.84-77.08l1.69-.12c1.28-.09,2.44.78,2.7,2.04l3.03,14.79c1.03,5.03,5.95,8.28,10.98,7.25,5.03-1.03,8.28-5.95,7.25-10.98l-3.03-14.79c-1.68-8.21-8.03-14.46-15.83-16.33,4.59-12.7,9.16-26.2,13.77-40.59.56-1.2,1.05-2.43,1.46-3.68.25-.77.49-1.59.7-2.46,12.47,23.79,27.83,44.18,46.4,61.62h-.08c.31.27.63.55.95.82.32.3.63.6.96.89l.78.71.64.33c4.17,3.33,8.66,6.68,11.88,10.77,3.35,2.86,6.33,6.32,8.6,10.52.31.58.63,1.11.95,1.61,2.91,10.28,4.7,19.66,13.9,28.66,7.56,7.4,18.47,11.89,30.25,12.97,20.67,1.9,40.34,1.47,58.92-1.57l-.48.41s63.72-6.93,79.45-23.91c0,0,10.47-12.59,16.69-37.26,5.95-12.76,12.93-21.41,18.57-26.94.06-.08.11-.17.17-.25l.59-.8c3.39-4.59,6.58-9.32,9.58-14.18l2.14.9c13.27,5.6,27.42,7.76,41.24,6.33,1.67-.17,3.33-.4,4.99-.67,13.87-2.32,21.69-7.26,29.26-12.05.74-.47,1.49-.94,2.28-1.43,19.32-12.05,30.53-33.18,34.28-64.58,2.93-24.54,1.73-56.96-3.91-105.11-2.02-17.24-16.07-30.39-32.7-30.59ZM136.83,488.09l3.55,23.99c.38,2.55.96,5.02,1.71,7.42l-1.25-.18c-3.41,24.41-4.54,47.35-3.37,69.04-7.75.74-15.39-.29-22.32-3.06-6.54-2.6-9.21-5.23-14.53-10.46-.67-.66-1.35-1.33-2.06-2.02-5.28-5.13-12-15.09-9.44-42.13,2.06-21.74,9.56-50.66,24.31-93.75l38.31,7.82,4.32.8c-14.21,9.17-21.74,25.67-19.24,42.52ZM164.23,456.05l13.48-7.99c3.82-2.27,8.44-2.77,12.66-1.39l43.88,14.35c4.22,1.38,7.65,4.52,9.39,8.61l6.15,14.42c1.83,4.29,2.6,8.82,2.38,13.26-1.75,1.85-2.34,4.62-1.29,7.11.01.03.03.05.04.08-1.38,4.53-3.86,8.77-7.36,12.31l-17.04,17.25c-9.18,9.29-22.59,12.54-35.01,8.48l-14.85-4.86c-12.41-4.06-21.31-14.61-23.23-27.53l-3.55-23.99c-1.79-12.07,3.84-23.89,14.33-30.11ZM459.67,632.96c-23.87,41.84-51.17,72.44-83.44,93.52-45.74,10.31-86.49,9.79-121.13-1.55-34.45-11.27-64.04-33.65-87.97-66.54-12.89-35.45-17.14-74.61-12.91-119.21,5.08,4.93,11.3,8.74,18.35,11.04l14.85,4.86c17.2,5.63,35.79,1.12,48.51-11.75l17.04-17.25c5.6-5.67,9.38-12.58,11.2-19.95,20.52-7.21,35.47-2.24,46.55,15.45-3.18,7.25-4.36,15.4-3.14,23.64l3.55,23.99c2.65,17.9,14.98,32.52,32.18,38.15l14.85,4.86c17.2,5.63,35.79,1.12,48.51-11.75l17.04-17.25c4.07-4.12,7.18-8.9,9.28-14.04.14,0,.28,0,.43-.01l58.4-4.29c-10.37,26.1-20.92,48.41-32.14,68.08ZM322.68,527.2c1.49-1.16,2.38-2.89,2.52-4.7,2.45-3.73,5.75-6.94,9.78-9.33l13.48-7.99c3.82-2.27,8.44-2.77,12.66-1.39l43.88,14.35c4.22,1.38,7.65,4.52,9.39,8.61l6.15,14.42c4.79,11.22,2.34,24.08-6.23,32.76l-17.04,17.25c-9.18,9.29-22.59,12.54-35.01,8.48l-14.85-4.86c-12.41-4.06-21.31-14.61-23.23-27.53l-3.55-23.99c-.83-5.59-.06-11.13,2.04-16.08ZM516.24,496.34c-.24.74-.54,1.47-.89,2.18l-.26.53-.18.56c-5.28,16.52-10.51,31.83-15.76,46.08l-63.06,4.63c-.3-4.84-1.42-9.68-3.4-14.32l-6.15-14.42c-3.24-7.59-9.59-13.41-17.43-15.97l-43.88-14.35c-7.84-2.56-16.41-1.62-23.5,2.58l-13.48,7.99c-3.67,2.17-6.92,4.83-9.71,7.84-13.19-17.58-31.33-23.59-53.28-17.67-.4-4.44-1.49-8.87-3.31-13.13l-6.15-14.42c-3.24-7.59-9.59-13.41-17.43-15.97l-43.88-14.35c-6.1-1.99-12.63-1.86-18.58.28,4.01-13.67,8.68-28.43,14.14-44.76,1.56-4.78,5.09-8.46,10.47-10.93,3.69-1.69,8.24-2.8,13.91-3.4,9.65-1.01,22.52-.49,38.27,1.56,31.38,4.07,71.55,13.8,113.11,27.4,41.56,13.6,79.71,29.49,107.43,44.75,13.91,7.66,24.61,14.85,31.79,21.37,4.23,3.83,7.24,7.42,9.21,10.96,2.88,5.18,3.55,10.22,1.99,15.01ZM511.99,382.04c-2.62-16.11-5.1-35.22-7.28-58.14v-.06c-.42-4.05,1.27-8.04,5.03-11.86,2.71-2.75,6.45-5.36,11.44-7.98,8.48-4.45,20.54-8.85,35.85-13.09,30.44-8.43,71.18-15.54,114.72-20.03,43.54-4.49,84.88-5.84,116.4-3.8,15.84,1.03,28.55,2.88,37.76,5.5,5.42,1.54,9.62,3.33,12.83,5.48,4.46,2.97,6.93,6.53,7.35,10.59.06.61.08,1.23.04,1.84l-.04.66.07.66c1.89,17.02,3.24,32.81,4.05,47.57l-33.01,25.43c-1.79-3.08-4.04-5.93-6.74-8.44l-8.01-7.44c-4.65-4.32-10.94-6.42-17.25-5.77l-39.7,4.09c-6.31.65-12.04,3.99-15.71,9.17l-6.32,8.92c-2.17,3.06-3.82,6.38-4.94,9.83-8.46-4.27-16.88-6.07-25.15-5.38-11.12.91-21.93,6.38-32.2,16.25-1.8-3.13-4.08-6.02-6.81-8.56l-8.01-7.44c-4.65-4.32-10.94-6.42-17.25-5.77l-39.7,4.09c-6.31.65-12.04,3.99-15.71,9.17l-6.32,8.92c-2.3,3.24-4,6.76-5.12,10.42l-50.27-14.82ZM759.24,405.03l25.84-31.78c1.78-2.19,4.99-2.52,7.18-.74,2.19,1.78,2.52,4.99.74,7.18l-25.84,31.78c-.89,1.09-2.14,1.72-3.44,1.86-1.3.13-2.65-.23-3.74-1.12-2.19-1.78-2.52-4.99-.74-7.18ZM756.06,397.09c-1.3.13-2.65-.23-3.74-1.12-2.19-1.78-2.52-4.99-.74-7.18l15.31-18.82c1.78-2.19,4.99-2.52,7.18-.74,2.19,1.78,2.52,4.99.74,7.18l-15.31,18.82c-.89,1.09-2.14,1.72-3.44,1.86ZM600.03,424.02l25.84-31.78c1.78-2.19,4.99-2.52,7.18-.74,2.19,1.78,2.52,4.99.74,7.18l-25.84,31.78c-.89,1.09-2.14,1.72-3.44,1.86-1.3.13-2.65-.23-3.74-1.12-2.19-1.78-2.52-4.99-.74-7.18ZM596.85,416.08c-1.3.13-2.65-.23-3.74-1.12-2.19-1.78-2.52-4.99-.74-7.18l15.3-18.82c1.78-2.19,4.99-2.52,7.18-.74,2.19,1.78,2.52,4.99.74,7.18l-15.3,18.82c-.89,1.09-2.14,1.72-3.44,1.86ZM817.63,514.23c-.08.07-.15.14-.24.21-19.74,17.93-20.98-4.29-20.98-4.29h0c.24-4.59-.53-9.09-2.03-13.53-1.18-3.49-5.97-3.36-6.89.2-1.58,6.08-3.56,11.9-5.48,16.93-3.85,10.1-10.76,18.67-19.65,24.54-5.29.38-8.78-1.27-10.92-2.97-2.29-1.82-5.37-2.24-8.12-1.25-15.6,5.6-31.33,9.24-46.98,10.85,0,0,0,0,0,0-9.04.93-18.17,1.2-27.29.81-3.53-.15-6.7,1.98-8.06,5.24-.9,2.15-2.46,4.45-5.16,6.01-19.56,2.88-37.44-24.73-41.79-39.59-.97-3.32-6.11-2.09-6.63,1.35-1.22,7.97-1.22,14.45.21,19.17h0c-7.64,15.35-17.8,10.98-24.25,5.68-24.43-24.71-42.58-55.52-55.32-93.87-3.81-11.48-8.14-26.18-12.34-47.21l45.98,13.56c.92,3.85,2.48,7.58,4.68,11.05l9.25,14.56c8.3,13.07,23.27,20.32,38.67,18.73l9.32-.96c15.4-1.59,28.57-11.74,34.03-26.23l6.08-16.14c2.16-5.74,2.8-11.79,2.03-17.62,9.46-10.56,19.1-16.31,28.71-17.13.02,0,.04,0,.06,0,.04.1.08.19.14.29,12.46,23.45,20.16,43.51,23.53,61.34.68,3.62-.93,7.31-4.02,9.2-8.54,5.21-19.07,7.04-31.31,5.45-3.17-.41-6.08-1.36-8.64-2.82-2.5-1.42-3.97-2.89-4.14-4.15-.17-1.3.92-3.18,3.08-5.31.73-.69,2.64-2.38,8.88,2.02,1.76,1.24,4.19.82,5.44-.94,1.24-1.76.82-4.19-.94-5.44-5.26-3.71-12.79-6.95-18.77-1.28l-.05.05c-4.07,4.01-5.88,8.02-5.37,11.91.5,3.84,3.2,7.18,8.02,9.92,3.45,1.96,7.31,3.23,11.49,3.77,5.47.71,10.67.81,15.57.31,7.69-.79,14.65-3.07,20.81-6.83,5.84-3.56,8.91-10.52,7.62-17.31-3.32-17.55-10.59-37.05-22.18-59.48,4.28.97,8.68,2.85,13.16,5.61.36,6.05,2.23,12.04,5.62,17.38l9.25,14.56c8.3,13.07,23.27,20.32,38.67,18.73l9.32-.96c15.4-1.59,28.57-11.74,34.03-26.23l6.08-16.14c1.41-3.74,2.17-7.61,2.31-11.46l28.97-22.32c.38,21.37-.52,40.51-2.71,58.19-4.53,36.6-14.62,67.46-30.73,93.83ZM910.11,447.49c-3.22,26.98-11.9,35.28-18.15,39.18-.84.52-1.65,1.04-2.44,1.54-6.3,3.98-9.47,5.98-16.41,7.14-8.8,1.47-18.08.31-26.81-3.34,8.57-20.88,14.37-43.98,17.55-69.69,2.66-21.54,3.51-45.07,2.51-71.88l.25-.19h.18s39.43.48,39.43.48c5.29,45.24,6.49,75.09,3.9,96.77Z"/>
  </g>
  <g>
    <path class="cls-1" d="M451.2,353.8l-35.45-83.32c-2.73-6.43-9.13-9.24-12.35-5.43l-13.26,15.69c-2.45,2.9-1.97,8.54,1.1,12.79l48.71,67.63c6.49,9.02,15.67,3.02,11.25-7.36Z"/>
    <path class="cls-1" d="M441.88,375.83l-58.05-40.57c-4.48-3.13-10.38-1.42-11.4,3.29l-4.18,19.44c-.77,3.59,1.7,7.47,5.62,8.8l62.23,21.13c8.3,2.82,13.01-7.04,5.78-12.1Z"/>
    <path class="cls-1" d="M472.58,286.21l-5.17,37c-1.11,7.96-10.8,7.15-13.23-1.11l-11.03-37.43c-1.5-5.08,1.15-9.75,5.46-9.64l16.19.43c4.58.12,8.5,5.53,7.77,10.74Z"/>
  </g>
  <g>
    <path class="cls-1" d="M550.13,625.31l10.11,89.98c.78,6.94-3.41,12.54-8.08,10.8l-19.26-7.14c-3.56-1.32-5.91-6.47-5.34-11.68l9.15-82.84c1.22-11.04,12.16-10.33,13.42.88Z"/>
    <path class="cls-1" d="M519.68,643.45l-20.19,67.88c-1.56,5.24-7.24,7.57-10.97,4.52l-15.37-12.61c-2.84-2.33-3.32-6.91-1.08-10.39l35.56-55.27c4.74-7.37,14.56-2.58,12.05,5.87Z"/>
    <path class="cls-1" d="M594.82,633.51l-25.2-27.58c-5.42-5.94-12.95.21-10.28,8.4l12.09,37.1c1.64,5.04,6.46,7.39,9.95,4.86l13.11-9.52c3.71-2.69,3.88-9.37.33-13.26Z"/>
  </g>
</svg>