<?xml version="1.0" encoding="UTF-8"?>
<svg id="Layer_1" data-name="Layer 1" xmlns="http://www.w3.org/2000/svg" viewBox="0 0 1000 1000">
  <defs>
    <style>
      .cls-1 {
        fill: #b92323;
      }
    </style>
  </defs>
  <path class="cls-1" d="M329.76,499.7c10.86,5.25,32.03,11.86,56.52.56,14.17-6.54,25.41-17.9,33.2-31.42,18.6-32.29,59.24-131.44-22.2-242.91-4.46-6.11-9.79-11.59-15.98-15.93-8.57-6-17.79-9.37-28.31-7.21-5.11,1.05-9.62,6.11-10.01,11.31l-20.4,273.22c-.39,5.22,2.46,10.11,7.17,12.39ZM371.95,254.46c.09-1.55,2.05-2.12,2.98-.89,46.86,62.06,40.31,162.13-11.76,212.69-1.08,1.05-2.9.24-2.82-1.27l11.59-210.54Z"/>
  <path class="cls-1" d="M550.42,311.43c2.19,18.78-1.43,38.33-10.48,56.53-.01.03-.03.06-.04.09-2.96,5.95-4.84,12.36-5.77,18.95-2.24,15.84-4.41,45.32,6.57,63.01,3.45,5.56,10.3,7.83,16.38,5.41,23.16-9.21,40.42-30.28,45.56-55.68,8.7-43.07-5.56-96.99-34.84-126.16-5.41-5.39-12.15-9.24-19.58-11-2.76-.65-5.41-1.11-7.95-1.41-3.42-.4-5.86,3.28-4.22,6.31,6.67,12.3,12.35,26.59,14.38,43.96ZM563.05,356.97c5.82-16,7.04-33.26,5.46-51.29-.26-2.95,3.66-4.27,5.16-1.71,16.57,28.22,21.26,62.09,10.93,103.11-1.46,5.81-4.1,11.32-8.01,15.85-3.77,4.36-7.74,6.81-11.88,7.61-5.23,1.01-10.19-2.32-11.33-7.53-3.65-16.69.65-39.54,9.67-66.04Z"/>
  <path class="cls-1" d="M504.04,451.23c.9.72,1.85,1.38,2.86,1.95,3.35,1.91,7.08,3.86,11.05,4.89,3.82,1,6.55-3.62,3.77-6.42-14.41-14.51-18.01-39.18-15.11-59.78,2.36-9.55,6.36-19.71,12.6-30.34,6.17-10.53,10.8-21.9,13.9-33.71,1.24-4.72,2.33-9.62,3.23-14.75,2.52-8.67-7.2-35.79-15.97-44.52-2.63-2.62-5.96-4.3-9.28-2.62-6.14,3.11-11.16,7.25-15.35,11.43-8.68,8.67-15.32,19.19-19.71,30.65-15.61,40.81-9.23,91.04,13.3,127.71,3.83,6.24,8.87,11.48,14.7,15.5Z"/>
  <path class="cls-1" d="M597.58,463.5c5.28,14.51,16.56,27.76,30.94,36.35,7.24,4.32,15.31,6.5,23.26,6.49,7.21,0,14.32-1.79,20.63-5.38,15.88-9.04,26.21-22.44,32.53-42.17l.21-.7c5.62-21.03,3.02-39.96-3.28-57.35-6.68-25.07-26.84-75.46-26.84-75.46-14.82-49.17,2.03-51.31,6.83-51,4.82,2.56,9.91,7.08,15.23,13.59,5.27,6.44,14.76,7.38,21.2,2.11,6.44-5.27,7.39-14.76,2.11-21.2-17.06-20.84-35.53-29.75-54.88-26.49-13.68,2.31-26,11.25-32.94,23.92-14.94,27.27-9.03,52.21,2.33,75.08l-.09.07s25.42,65.68,27.26,105.45c-.34,7.07-2.17,19.45-10.23,28.89-.48.17-.97.31-1.48.42-2.15-.22-4.35-.93-6.41-2.16-12.46-7.44-16.98-17.78-18.07-20.77-2.84-7.82-11.49-11.85-19.31-9.01-7.82,2.84-11.85,11.49-9.01,19.31Z"/>
  <path class="cls-1" d="M777.02,663.03c-10.88-23.56-39.35-69.75-39.35-69.75-23.03-45.93-6.76-50.9-1.99-51.41,5.18,1.69,10.97,5.29,17.33,10.78,6.29,5.44,15.81,4.75,21.25-1.55,5.44-6.3,4.75-15.81-1.55-21.25-20.38-17.61-40.1-23.23-58.61-16.7-13.09,4.62-23.69,15.53-28.36,29.2-10.05,29.42.04,52.98,15.14,73.57l-.08.08s36.28,60.36,44.9,99.23c.88,7.02,1.19,19.53-5.13,30.22-.44.25-.91.47-1.4.67-2.16.15-4.44-.17-6.68-1.03-13.55-5.19-19.77-14.61-21.35-17.37-4.14-7.22-13.35-9.71-20.56-5.57-7.22,4.14-9.71,13.35-5.57,20.57,7.68,13.4,21.06,24.52,36.71,30.51,5.37,2.06,10.96,3.07,16.45,3.07,9.85,0,19.43-3.25,26.99-9.48,14.1-11.63,21.99-26.6,24.83-47.11l.08-.73c1.94-21.69-3.86-39.9-13.05-55.95Z"/>
  <path class="cls-1" d="M330.97,564.71c10.31-1.99,20.84-3.31,31.54-4.04,12.15-.84,19.72-14.06,13.67-24.62-.06-.11-.13-.22-.19-.32-2.96-4.98-8.44-7.93-14.23-7.96-56.94-.33-105.98,11.37-145.07,38.24-5.39,3.71-8.01,10.3-6.86,16.74,2.56,14.4,11.93,21.47,26.7,22.76,4.12.36,8.22-.98,11.46-3.54,16.68-13.21,34.51-22.68,53.23-29.25-1.89,74.15-.4,145.56,5.04,213.74.29,3.62,2.43,6.88,5.71,8.43,10.97,5.21,20.26,3.63,27.9-4.7,2.05-2.23,2.97-5.28,2.57-8.28-9.36-71.04-13.05-143.46-11.46-217.18Z"/>
  <path class="cls-1" d="M419.05,541.46c-8.62-.23-16.74,4.14-21.22,11.49-47.27,77.59-36.75,179.45-36.28,183.75.94,8.62,8.24,15,16.72,15,.61,0,1.22-.03,1.84-.1,9.24-1,15.92-9.31,14.92-18.55-.05-.46-2.32-22.82.06-53.45l45.85-10.4c2.35,18.67,2.94,38.93.51,60.12-1.06,9.24,5.57,17.59,14.81,18.65,9.24,1.04,17.59-5.57,18.65-14.81,9.5-82.92-21.6-152.76-35.41-178.94-4.01-7.6-11.85-12.49-20.45-12.76ZM399.15,647.41c3.53-19.82,9.32-40.9,18.68-60.65,6.7,15.15,14.39,36.01,19.49,60.65h-38.17Z"/>
  <path class="cls-1" d="M621.38,517.59c-8.6-.33-16.74,4.14-21.22,11.49-47.27,77.58-36.75,179.45-36.28,183.75.94,8.62,8.24,15,16.72,15,.61,0,1.22-.03,1.84-.1,9.24-1,15.92-9.31,14.92-18.55-.05-.46-2.32-22.82.06-53.45l45.85-10.4c2.35,18.67,2.94,38.93.51,60.12-1.06,9.24,5.57,17.59,14.81,18.65,9.23,1.04,17.59-5.57,18.65-14.81,9.5-82.92-21.6-152.76-35.41-178.93-4.01-7.61-11.85-12.5-20.45-12.76ZM601.48,623.55c3.53-19.82,9.32-40.9,18.68-60.65,6.7,15.15,14.39,36.01,19.49,60.65h-38.17Z"/>
  <path class="cls-1" d="M589.57,745.3c-3.25-1.78-7.12-2.08-10.73-1.24l-55.87,12.93c-1.33.31-2.47-.98-2.03-2.27,30.18-88.31,34.87-121.26,38.93-230.48-.88-14.17-5.99-21.42-16.26-20.25-1.68.19-3.32.68-4.9,1.28-32.09,12.16-57.31,19.84-69.13,18.75-1.84-.17-3.76.32-5.01,1.68-1.78,1.94-1.75,4.63.89,8.39,13.46,10.58,31.09,11.27,50.39,8,2.01-.34,3.76,1.39,3.46,3.4-11.91,79.95-27.3,156.79-39.33,231.9-.05,8.98,5.67,12.25,15.56,11.41l87.24-16.71c7.93-1.52,13.7-8.7,13.04-16.74-.38-4.61-2.44-7.99-6.24-10.07Z"/>
</svg>