<?xml version="1.0" encoding="UTF-8"?>
<svg id="Layer_1" data-name="Layer 1" xmlns="http://www.w3.org/2000/svg" viewBox="0 0 1000 1000">
  <defs>
    <style>
      .cls-1 {
        fill: #fff;
      }
    </style>
  </defs>
  <path class="cls-1" d="M596.95,494.03l-65.96-1.28c-5.09-.1-8.87,3.31-7.3,6.59l6.48,13.49c1.2,2.49,5.09,3.86,8.83,3.09l59.48-12.21c7.93-1.63,6.68-9.51-1.54-9.68Z"/>
  <path class="cls-1" d="M608.81,506.8l-44.28,26.49c-3.42,2.04-4.04,6.48-1.21,8.56l11.67,8.58c2.16,1.59,5.48,1.1,7.53-1.11l32.61-35.07c4.35-4.68-.8-10.75-6.32-7.45Z"/>
  <path class="cls-1" d="M576.77,482.6c6.22.85,9.65-5.35,4.68-8.47l-23.06-14.47c-3.25-2.04-8.01-1.05-9.46,1.96l-5.11,10.64c-1.36,2.83.95,5.98,4.78,6.5l28.17,3.83Z"/>
  <path class="cls-1" d="M852.83,495.53l47.39-37.96c2.98-2.39,4.42-6.25,3.27-8.77l-6.24-13.6c-1.51-3.3-6.56-2.57-9.73,1.4l-41.15,51.56c-5.13,6.42.14,12.42,6.46,7.36Z"/>
  <path class="cls-1" d="M874.59,503.74l46.8-10.16c2.94-.64,5.06-3.24,4.79-5.91l-1.42-14.42c-.35-3.5-4.48-5.22-7.98-3.33l-45.38,24.57c-5.65,3.06-3.06,10.59,3.18,9.23Z"/>
  <path class="cls-1" d="M846.23,456.11l-11.66-1.85c-3.3-.52-6.83,2.83-7,6.66l-1.23,27.19c-.26,5.85,6.78,6.56,9.63.97l12.89-25.34c1.75-3.44.48-7.14-2.63-7.63Z"/>
  <path class="cls-1" d="M138.07,521.7c9.06,4.38,26.72,9.9,47.16.46,11.82-5.46,21.2-14.93,27.7-26.22,15.52-26.94,49.43-109.66-18.52-202.67-3.72-5.09-8.17-9.67-13.33-13.29-7.15-5.01-14.84-7.82-23.62-6.02-4.26.88-8.03,5.1-8.35,9.43l-17.02,227.96c-.32,4.35,2.06,8.43,5.99,10.34ZM173.27,317.09c.07-1.29,1.71-1.77,2.49-.74,39.1,51.78,33.63,135.28-9.81,177.46-.91.88-2.42.2-2.35-1.06l9.67-175.66Z"/>
  <path class="cls-1" d="M322.18,364.62c1.83,15.67-1.19,31.98-8.75,47.16-.01.02-.02.05-.04.07-2.47,4.97-4.04,10.32-4.82,15.81-1.87,13.22-3.68,37.81,5.48,52.57,2.88,4.64,8.59,6.53,13.66,4.52,19.32-7.68,33.73-25.26,38.01-46.46,7.26-35.93-4.64-80.92-29.07-105.26-4.51-4.5-10.14-7.71-16.34-9.18-2.31-.55-4.51-.93-6.63-1.17-2.85-.33-4.89,2.74-3.52,5.26,5.56,10.27,10.31,22.18,12,36.68ZM332.72,402.62c4.86-13.35,5.87-27.75,4.56-42.8-.22-2.46,3.05-3.56,4.31-1.43,13.83,23.54,17.74,51.81,9.12,86.03-1.22,4.85-3.42,9.45-6.69,13.23-3.14,3.63-6.45,5.68-9.91,6.35-4.37.84-8.5-1.94-9.45-6.28-3.05-13.92.55-32.99,8.07-55.1Z"/>
  <path class="cls-1" d="M283.48,481.26c.75.6,1.54,1.15,2.38,1.63,2.8,1.6,5.91,3.22,9.22,4.08,3.19.83,5.47-3.02,3.15-5.36-12.02-12.1-15.02-32.69-12.61-49.88,1.97-7.97,5.31-16.44,10.51-25.32,5.15-8.78,9.01-18.28,11.6-28.12,1.03-3.94,1.94-8.03,2.7-12.3,2.1-7.23-6.01-29.86-13.32-37.14-2.2-2.19-4.97-3.58-7.74-2.18-5.12,2.59-9.31,6.05-12.81,9.54-7.25,7.23-12.78,16.01-16.44,25.57-13.03,34.05-7.7,75.96,11.1,106.55,3.2,5.2,7.4,9.58,12.26,12.93Z"/>
  <path class="cls-1" d="M361.53,491.5c4.4,12.11,13.81,23.16,25.82,30.33,6.04,3.61,12.78,5.42,19.41,5.42,6.02,0,11.95-1.49,17.21-4.49,13.25-7.54,21.87-18.72,27.14-35.18l.17-.59c4.69-17.55,2.52-33.34-2.74-47.85-5.58-20.92-22.39-62.96-22.39-62.96-12.36-41.02,1.69-42.81,5.7-42.55,4.02,2.13,8.27,5.91,12.71,11.34,4.4,5.37,12.32,6.16,17.69,1.76,5.37-4.4,6.16-12.32,1.76-17.69-14.24-17.39-29.65-24.82-45.79-22.1-11.42,1.93-21.69,9.39-27.48,19.96-12.47,22.75-7.54,43.56,1.94,62.64l-.08.06s21.21,54.8,22.74,87.98c-.28,5.9-1.81,16.23-8.53,24.11-.4.14-.81.26-1.24.35-1.79-.19-3.63-.77-5.35-1.8-10.4-6.2-14.17-14.83-15.07-17.33-2.37-6.53-9.59-9.89-16.11-7.52-6.53,2.37-9.89,9.58-7.52,16.11Z"/>
  <path class="cls-1" d="M478.41,599.78c-19.21-38.32-5.64-42.47-1.66-42.9,4.32,1.41,9.15,4.41,14.46,9,5.25,4.54,13.19,3.96,17.73-1.29,4.54-5.25,3.96-13.19-1.29-17.73-17-14.7-33.46-19.38-48.9-13.94-10.92,3.85-19.76,12.96-23.66,24.36-8.39,24.55.03,44.21,12.63,61.39l-.07.07s30.27,50.36,37.46,82.79c.73,5.86.99,16.3-4.28,25.21-.37.21-.76.39-1.16.56-1.8.12-3.71-.14-5.57-.86-11.3-4.33-16.49-12.19-17.82-14.49-3.45-6.02-11.14-8.11-17.16-4.65-6.02,3.45-8.1,11.14-4.65,17.16,6.41,11.18,17.57,20.46,30.63,25.46,4.48,1.72,9.14,2.56,13.73,2.56,8.22,0,16.21-2.71,22.52-7.91,11.76-9.7,18.34-22.19,20.72-39.31l.07-.61c1.62-18.09-3.22-33.29-10.89-46.68-9.07-19.65-32.83-58.19-32.83-58.19Z"/>
  <path class="cls-1" d="M139.08,575.95c8.61-1.66,17.38-2.76,26.31-3.37,10.14-.7,16.46-11.73,11.4-20.54-.05-.09-.1-.18-.16-.27-2.47-4.16-7.04-6.62-11.87-6.64-47.51-.28-88.42,9.49-121.04,31.91-4.5,3.09-6.68,8.59-5.73,13.97,2.13,12.01,9.95,17.92,22.27,18.99,3.44.3,6.85-.82,9.56-2.96,13.91-11.03,28.79-18.92,44.42-24.4-1.58,61.87-.33,121.44,4.21,178.33.24,3.02,2.03,5.74,4.76,7.04,9.15,4.35,16.91,3.03,23.28-3.92,1.71-1.86,2.47-4.41,2.14-6.91-7.81-59.27-10.89-119.7-9.56-181.21Z"/>
  <path class="cls-1" d="M212.57,556.55c-7.19-.19-13.97,3.45-17.7,9.59-39.44,64.73-30.66,149.73-30.27,153.31.79,7.19,6.87,12.51,13.95,12.51.51,0,1.02-.03,1.53-.08,7.71-.84,13.28-7.77,12.45-15.48-.04-.38-1.94-19.04.05-44.59l38.26-8.68c1.96,15.58,2.45,32.48.42,50.16-.88,7.71,4.65,14.67,12.36,15.56,7.71.87,14.67-4.65,15.56-12.36,7.93-69.19-18.02-127.45-29.55-149.3-3.35-6.34-9.89-10.42-17.06-10.64ZM195.97,644.95c2.94-16.54,7.78-34.12,15.58-50.61,5.59,12.64,12,30.05,16.26,50.61h-31.84Z"/>
  <path class="cls-1" d="M381.38,536.63c-7.18-.28-13.97,3.45-17.71,9.59-39.44,64.73-30.66,149.73-30.27,153.31.79,7.19,6.87,12.51,13.95,12.51.51,0,1.02-.03,1.53-.08,7.71-.84,13.28-7.77,12.45-15.48-.04-.38-1.93-19.04.05-44.59l38.26-8.68c1.96,15.58,2.45,32.48.42,50.16-.88,7.71,4.65,14.67,12.36,15.56,7.7.87,14.67-4.65,15.56-12.36,7.93-69.18-18.02-127.45-29.55-149.29-3.35-6.35-9.89-10.43-17.06-10.65ZM364.78,625.04c2.94-16.54,7.78-34.12,15.58-50.61,5.59,12.64,12,30.05,16.26,50.61h-31.84Z"/>
  <path class="cls-1" d="M354.84,726.62c-2.71-1.49-5.94-1.73-8.95-1.04l-46.62,10.79c-1.11.26-2.06-.81-1.69-1.89,25.18-73.68,29.09-101.17,32.48-192.3-.73-11.82-5-17.88-13.57-16.89-1.4.16-2.77.57-4.09,1.07-26.77,10.15-47.81,16.55-57.68,15.64-1.54-.14-3.14.27-4.18,1.4-1.49,1.62-1.46,3.86.74,7,11.23,8.83,25.94,9.4,42.05,6.68,1.67-.28,3.14,1.16,2.89,2.84-9.94,66.71-22.78,130.82-32.82,193.49-.05,7.49,4.73,10.22,12.99,9.52l72.79-13.94c6.61-1.27,11.43-7.26,10.88-13.97-.32-3.85-2.04-6.66-5.21-8.4Z"/>
  <path class="cls-1" d="M729.03,504.46c25.93-10.78,49.58-29.05,72.27-55.82,10.67-12.59,21.21-27.16,32.12-44.46l-42.4-4.74c-.1-.01-.2-.03-.31-.05-2.19,3.4-5.05,6.4-8.52,8.81l-14.51,10.08c-10.83,7.52-24.75,8.26-36.31,1.93l-9.98-5.46c-11.57-6.33-18.45-18.45-17.95-31.63l.67-17.66c.23-6.06,2.16-11.74,5.41-16.51-5.57-14.15-15.61-19.71-31.27-17.29-2.29,5.03-5.92,9.48-10.69,12.79l-14.51,10.08c-10.83,7.52-24.75,8.26-36.31,1.93l-9.98-5.46c-4.74-2.59-8.68-6.16-11.66-10.36-9,31.38-11.19,60-6.7,87.11,12.74,26.75,30.94,46.74,54.1,59.42,23.3,12.75,52.42,18.57,86.55,17.31ZM654.57,375.27c7.62-11.5,18.83-23.22,34.28-35.82,1.22-.99,3.01-.81,4,.41.99,1.22.81,3.01-.41,4-14.99,12.23-25.83,23.53-33.13,34.55-1.48,2.24-1.44,5.17.1,7.31,4.26,5.91,10.82,10.11,19.49,12.51,2.25.62,4.47.8,6.6.55,2.08-.25,3.49-.82,3.95-1.62.48-.82.28-2.4-.57-4.44-.3-.67-1.1-2.34-6.53-1.15-1.53.34-3.05-.63-3.39-2.16-.34-1.53.63-3.05,2.16-3.39,4.58-1.01,10.56-1.06,12.97,4.44l.02.05c1.6,3.84,1.68,7.05.24,9.52-1.42,2.44-4.18,3.92-8.19,4.39-2.87.34-5.82.1-8.78-.71-3.87-1.07-7.39-2.47-10.54-4.19-4.94-2.7-8.97-6.2-12.05-10.47-2.92-4.05-3.01-9.58-.23-13.78ZM609.07,379.79c-3.7,5.53-5.3,4.29-5.95,1.34-1.17-5.33,1.95-10.67,7.1-12.47,5.51-1.93,13.19-3.8,19.58-2.25,1.77.43,1.6,3.01-.21,3.17-6.23.54-15.47,2.68-20.51,10.22ZM636.58,452.59c-1.11-2.49-3.49-4.21-6.21-4.4-7.08-.5-12.17,4.91-16.94.24-1.19-1.17-1.77-2.83-1.56-4.49.7-5.45,5.99-8.04,16.98-7.05,7.17.64,13.35,5.55,15.39,12.46,1.53,5.19,1.4,11.07,1.7,16.78-1.86,2.45-4.93-3.63-9.37-13.54ZM717.03,442.25c-.88-.48-1.47-1.41-1.48-2.48,0-1.24-.06-2.39-.19-3.48-.55.9-1.36,1.65-2.36,2.15-10.4,5.21-19.74,8.03-29.38,8.86l-.36.03-.36-.06c-12.38-2.12-23.37-5.81-32.91-11.03-8.5-4.65-15.84-10.51-21.97-17.57l-.29-.34-.18-.41c-3.64-8.54-4.97-17.99-4.07-28.9.08-.95.38-1.83.85-2.6-1,.47-2.03,1.08-3.12,1.85-.92.65-2.09.68-3.01.18-.37-.2-.69-.48-.95-.85-.91-1.28-.61-3.05.67-3.96,8.1-5.75,14.52-4.77,21.68-1.52,1.43.64,2.06,2.33,1.41,3.76-.65,1.43-2.33,2.06-3.76,1.41-1.16-.53-2.26-.97-3.33-1.32.07.1.15.2.21.3,4.08,6.15,11.52,15.19,23.77,23.32,14.57,9.66,32.31,15.65,52.73,17.8-.77-.61-1.65-1.21-2.66-1.79-1.36-.78-1.83-2.52-1.05-3.88.77-1.34,2.48-1.82,3.83-1.08.02,0,.03.02.05.03,8.61,4.95,10.41,11.19,10.46,19.05,0,1.57-1.26,2.85-2.83,2.86-.5,0-.97-.12-1.38-.35ZM723.27,459.23c8.93-8.28,7.84-21.27,5.78-29.85-.6-2.5,3.18-3.22,4.64-.89,5.26,8.41,6.03,19.22,5.69,27.09-.32,7.34-6.86,12.6-15.35,12-4.72-.33-7.3-2.28-.75-8.35Z"/>
  <path class="cls-1" d="M701.35,632.27c.95,0,1.9-.37,2.62-1.1l20.98-21.22c1.44-1.46,1.43-3.81-.03-5.26-1.46-1.44-3.81-1.43-5.26.03l-20.98,21.22c-1.44,1.46-1.43,3.81.03,5.26.73.72,1.68,1.08,2.63,1.07Z"/>
  <path class="cls-1" d="M828.78,603.73c1.44-1.46,1.43-3.81-.03-5.26-1.46-1.44-3.81-1.43-5.26.03l-12.43,12.57c-1.44,1.46-1.43,3.81.03,5.26.73.72,1.68,1.08,2.63,1.07.95,0,1.9-.37,2.62-1.1l12.43-12.57Z"/>
  <path class="cls-1" d="M818.15,629.72c.95,0,1.9-.37,2.62-1.1l20.98-21.22c1.44-1.46,1.43-3.81-.03-5.26-1.46-1.44-3.81-1.43-5.26.03l-20.98,21.22c-1.44,1.46-1.43,3.81.03,5.26.73.72,1.68,1.08,2.63,1.07Z"/>
  <path class="cls-1" d="M677.65,596.38l5.21-6.02c3.03-3.5,7.42-5.52,12.04-5.54l29.08-.17c4.62-.03,9.04,1.94,12.1,5.4l5.28,5.96c1.8,2.03,3.25,4.29,4.33,6.69,8.14-6.43,16.37-9.63,24.5-9.51,6.05.08,12.03,1.99,17.86,5.68,1.06-2.42,2.48-4.71,4.27-6.78l5.21-6.02c3.03-3.5,7.42-5.52,12.04-5.54l29.08-.17c4.62-.03,9.04,1.94,12.1,5.4l5.28,5.96c1.78,2.01,3.21,4.24,4.29,6.6l25.73-16.12c.45-10.76.58-22.31.41-34.78v-.48s.07-.47.07-.47c.07-.44.1-.89.1-1.34-.02-2.97-1.56-5.73-4.58-8.19-2.18-1.78-5.1-3.37-8.92-4.88-6.5-2.55-15.58-4.79-27-6.65-22.71-3.7-52.78-5.64-84.68-5.45-31.89.19-61.94,2.47-84.61,6.44-11.4,1.99-20.45,4.34-26.92,6.96-3.8,1.54-6.7,3.17-8.86,4.98-3,2.5-4.5,5.28-4.49,8.25v.04c-.03,16.78.42,30.81,1.18,42.68l35.41,14.29c1.07-2.58,2.56-5.01,4.45-7.2ZM644.07,550.31c-.07-12.29,52.52-22.56,117.46-22.94s117.65,9.28,117.72,21.58c.07,12.29-52.52,22.56-117.46,22.94-64.94.38-117.65-9.28-117.72-21.58Z"/>
  <path class="cls-1" d="M710.42,433.1c-21.51-2.21-40.25-8.52-55.69-18.76-13.05-8.65-20.99-18.32-25.36-24.92-.03-.04-.04-.05-.04-.05-.04-.02-.16.02-.18.05,0,0,0,.03-.01.07-.81,9.78.33,18.22,3.46,25.79,12.22,13.87,28.87,22.49,50.9,26.32,8.78-.81,17.36-3.43,26.96-8.25.05-.02.07-.04.07-.05.02-.04,0-.16-.03-.19,0,0-.03,0-.07-.01Z"/>
  <path class="cls-1" d="M637.96,270.75l29.51,16.15c5.27,2.89,9.04,7.91,10.35,13.77l2.48,11.15c.73,3.3.92,6.62.61,9.85,16.51-1.31,28.7,5.43,35.8,19.78,2.4-1.78,5.09-3.25,8-4.32l10.73-3.92c5.64-2.06,11.91-1.59,17.18,1.29l29.51,16.15c5.27,2.89,9.04,7.91,10.35,13.77l2.48,11.15c.8,3.59.95,7.21.52,10.71l45.78,5.12c5.67-9.51,11.46-19.77,17.45-30.9l.2-.38.26-.34c.34-.46.66-.94.93-1.44,1.76-3.22,1.96-6.92.58-11.02-.94-2.8-2.62-5.77-5.13-9.09-4.27-5.63-10.97-12.21-19.91-19.55-17.81-14.64-43.02-31.12-70.96-46.42-27.95-15.3-55.42-27.64-77.35-34.75-11.01-3.57-20.16-5.67-27.2-6.23-4.14-.33-7.55-.14-10.42.57-4.19,1.05-7.2,3.21-8.96,6.43-6.1,10.96-11.41,20.91-16.12,30.16,4.54-.73,9.24.04,13.34,2.29ZM647.26,241.87c5.9-10.78,56.87,5.75,113.84,36.93,56.97,31.18,98.37,65.2,92.47,75.98-5.9,10.78-56.87-5.75-113.84-36.93-56.97-31.18-98.37-65.2-92.47-75.98Z"/>
  <path class="cls-1" d="M777.5,359.1l-29.51-16.15c-2.84-1.55-6.21-1.81-9.26-.7l-10.73,3.92c-3.2,1.17-6,3.03-8.25,5.37-.34,1.28-1.21,2.39-2.43,3.03-2.17,3.27-3.46,7.13-3.61,11.25l-.67,17.66c-.36,9.51,4.6,18.26,12.95,22.83l9.98,5.46c8.35,4.57,18.39,4.04,26.21-1.39l14.51-10.08c7.3-5.07,10.77-13.95,8.84-22.63l-2.48-11.15c-.7-3.16-2.73-5.87-5.58-7.42ZM756.24,388.07s-.1.01-.15.01c-1.5.1-2.83-.99-3.01-2.5-.48-4.1-3.58-8.4-8.07-11.22-4.69-2.95-10.24-3.82-14.13-2.22-1.45.6-3.11-.1-3.71-1.55-.6-1.45.1-3.11,1.55-3.71,5.63-2.31,13.03-1.29,19.32,2.66,6,3.78,10,9.52,10.69,15.37.18,1.56-.93,2.97-2.49,3.16Z"/>
  <path class="cls-1" d="M599.06,302.06l-.67,17.66c-.36,9.51,4.6,18.26,12.95,22.83l9.98,5.46c8.35,4.57,18.39,4.04,26.21-1.39l14.51-10.08c2.98-2.07,5.32-4.77,6.91-7.83,0-.02-.01-.04-.02-.06-.42-1.92.38-3.83,1.88-4.92.75-3.15.81-6.5.07-9.82l-2.48-11.15c-.7-3.16-2.73-5.87-5.58-7.42l-29.51-16.15c-2.84-1.55-6.21-1.81-9.25-.7l-10.73,3.92c-8.35,3.05-13.96,10.76-14.29,19.65ZM614.18,299.89c5.63-2.31,13.03-1.29,19.32,2.66,6,3.78,10,9.52,10.69,15.37.18,1.56-.93,2.97-2.49,3.16-.05,0-.1.01-.15.01-1.5.1-2.83-.99-3.01-2.5-.48-4.1-3.58-8.4-8.07-11.22-4.69-2.95-10.24-3.82-14.13-2.22-1.45.6-3.11-.1-3.71-1.55-.6-1.45.1-3.11,1.55-3.71Z"/>
  <path class="cls-1" d="M589.02,324.9c-.22-1.82-.3-3.67-.23-5.54l.67-17.66c.47-12.4,8.06-23.21,19.47-27.88l-2.99-1.15-26.39-10.73c-16.33,28.89-25.57,48.6-29.95,63.9-5.45,19.03-1.97,27.06,1.12,31.44.42.59.82,1.16,1.21,1.72,3.11,4.46,4.67,6.69,9,9.43,4.59,2.9,9.92,4.66,15.57,5.17,2.06-15.7,5.94-31.97,11.64-49l.87.29Z"/>
  <path class="cls-1" d="M751.68,791.04c-11.24,0-23.12-1.18-35.33-3.51-11.12-2.13-20.81-7.52-27.26-15.2-7.29-8.67-8.74-17.09-10.02-24.52-.05-.3-.1-.6-.16-.9-.05-.11-.1-.22-.14-.34-.74-1.77-1.83-3.38-3.31-4.92-.5-.52-.94-1.08-1.33-1.68-1.11-1.74-3.12-3.67-5.24-5.71l-.32-.31c-.61-.45-1.17-.95-1.68-1.52l-1.03-1.16c-.19-.2-.38-.39-.57-.59-.31-.33-.6-.68-.87-1.04-20.08-23.16-33.62-51.04-41.4-85.19-1.36-5.98-2.94-13.6-4.38-23.74-2.57,1.42-5.5,2.21-8.53,2.21-3.01,0-5.99-.78-8.62-2.26-8.45-4.76-11.46-15.5-6.7-23.95l5.4-9.59c3.26-5.78,8.55-10.03,14.69-12.05-.32-8.95-.47-18.48-.45-28.48-.04-9.54,4.38-18.54,12.44-25.28,3.95-3.3,8.77-6.08,14.73-8.51.51-.21,1.03-.41,1.56-.62-3.9-1.71-7.69-3.57-11.35-5.57-27.57-15.09-49.06-38.69-63.86-70.13l-.33-.71c-.41-.88-.7-1.81-.87-2.77l-.13-.76c-1.34-7.86-2.18-15.9-2.53-24-6.59-1.44-12.87-3.79-18.76-7.01-1.26-.69-2.52-1.43-3.75-2.21-10.5-6.64-15.4-13.66-19.34-19.31l-1.09-1.55c-11.58-16.4-13.66-36.77-6.35-62.27,5.2-18.16,15.47-40.31,33.29-71.83,6.45-11.41,18.43-18.5,31.26-18.5,4.42,0,8.74.84,12.82,2.5l23.6,9.59c1.79-3.29,3.64-6.66,5.55-10.08,4.66-8.52,12.83-14.65,22.97-17.19,3.75-.94,7.7-1.4,12.08-1.4,1.76,0,3.61.08,5.5.23,8.77.7,19.63,3.14,32.28,7.24,23.21,7.53,52.03,20.45,81.15,36.39,29.12,15.94,55.54,33.25,74.39,48.74,10.27,8.44,18.18,16.27,23.5,23.28,4,5.26,6.77,10.31,8.49,15.44,3.32,9.91,2.56,20.1-2.16,28.71-.55,1-1.15,1.99-1.81,2.94-3.56,6.59-7.08,12.94-10.53,18.98,3.7,4.5,5.88,10.18,5.99,16.19l.19,11c.08,4.69-1.67,9.14-4.93,12.52-3.26,3.38-7.64,5.29-12.34,5.37h-.31c-5.09,0-9.72-2.21-12.94-5.73-8.22,12.13-16.37,22.93-24.65,32.7-11.54,13.62-23.32,25.22-35.54,34.97,25.09.6,48.45,2.52,67.06,5.55,12.97,2.11,23.58,4.77,31.54,7.9,6,2.36,10.85,5.08,14.84,8.34,8.15,6.65,12.68,15.62,12.73,25.24,0,1.08-.05,2.17-.16,3.26.03,2.66.05,5.28.06,7.87l22.12,2.42c17.43,1.9,30.83,16.96,31.19,35.02.71,36.2-.78,60.57-4.83,79.02-5.68,25.91-17.18,42.85-35.16,51.78-.58.29-1.15.57-1.7.85-6.15,3.1-13.8,6.95-26.19,7.8-1.44.1-2.91.15-4.35.16h-.4c-9.37,0-18.78-1.93-27.6-5.61-.96,1.13-1.94,2.25-2.92,3.34l-.29.32c-.47.58-1,1.11-1.58,1.58-3.2,2.58-7.89,7.16-12.35,14.49-6.84,18.53-15.9,27.84-16.93,28.86-.14.14-.28.27-.42.39-14.5,12.89-54.46,14.33-66.36,14.47-.04,0-.08,0-.12,0-.57,0-1.13-.04-1.68-.13-2.47.12-4.98.17-7.48.17ZM951.25,593.76c-.25-12.64-9.51-23.17-21.56-24.49l-29.24-3.2-2.56-.33c.07-5.8.06-11.81-.02-18.05.11-.88.17-1.76.16-2.65-.03-4.49-1.57-11.06-8.76-16.94-3.11-2.54-7.02-4.71-11.95-6.65-7.25-2.85-17.11-5.3-29.33-7.29-23.32-3.8-54.06-5.79-86.57-5.6-5.03.03-10.02.12-14.95.25,22.54-11.77,43.44-29.16,63.5-52.82,11.96-14.12,23.73-30.58,35.98-50.41l1.23.14c.93.1,1.64.89,1.66,1.82l.19,11c.07,3.74,3.15,6.72,6.9,6.66,3.74-.07,6.72-3.15,6.66-6.9l-.19-11c-.11-6.11-3.82-11.43-9.16-13.82,4.98-8.48,10.07-17.54,15.29-27.23.56-.78,1.08-1.6,1.54-2.44,2.3-4.2,4.41-11.1,1.39-20.09-1.34-3.99-3.58-8.03-6.86-12.34-4.81-6.34-12.13-13.56-21.75-21.47-18.34-15.07-44.17-31.98-72.72-47.61-28.55-15.63-56.71-28.27-79.3-35.59-11.85-3.84-21.87-6.11-29.8-6.75-5.4-.43-10.01-.15-14.09.88-9.2,2.31-13.87,7.8-16.15,11.97-3.59,6.45-6.91,12.56-10.01,18.4l-5.4-2.08-27.25-11.08c-11.22-4.56-24.38.3-30.6,11.31-17.38,30.75-27.35,52.18-32.31,69.49-6.35,22.15-4.78,39.51,4.79,53.06.39.55.76,1.08,1.12,1.6,3.73,5.35,7.6,10.89,16.25,16.36,1.03.65,2.09,1.27,3.16,1.86,7.38,4.04,15.61,6.47,24.2,7.18-.06,10.72.79,21.2,2.55,31.49l.13.76.33.7c13.8,29.33,33.74,51.29,59.27,65.26,14.47,7.92,30.93,13.36,49.2,16.29-3.92.54-7.71,1.13-11.3,1.75-12.19,2.13-22.03,4.7-29.24,7.63-4.91,2-8.8,4.22-11.87,6.79-7.11,5.94-8.59,12.52-8.57,17.01-.03,14.66.31,27.29.9,38.26-6.45-1.31-13.2,1.64-16.53,7.55l-5.4,9.59c-1.84,3.26-.68,7.4,2.58,9.23,3.26,1.84,7.4.68,9.23-2.58l5.4-9.59c.46-.81,1.46-1.17,2.33-.82l3.41,1.38c1.65,19.32,4.12,32.41,6.4,42.42,7.45,32.72,20.43,59.31,39.65,81.23h-.06c.21.22.42.43.63.65.21.24.42.48.63.72l.51.57.44.28c2.79,2.71,5.81,5.45,7.86,8.65,2.23,2.31,4.15,5.03,5.49,8.24.19.44.38.85.57,1.23,1.38,7.66,2.02,14.59,8.06,21.76,4.96,5.9,12.55,9.92,21.02,11.54,14.85,2.84,29.15,3.91,42.84,3.01l-.38.26s46.7-.53,59.3-11.74c0,0,8.48-8.39,14.73-25.84,5.21-8.84,10.88-14.61,15.37-18.23.05-.06.09-.12.14-.17l.49-.54c2.78-3.09,5.43-6.29,7.94-9.61l1.49.8c9.23,4.99,19.34,7.56,29.46,7.5,1.22,0,2.45-.05,3.67-.14,10.22-.7,16.24-3.74,22.07-6.67.57-.29,1.15-.58,1.75-.88,14.86-7.38,24.48-21.91,29.42-44.42,3.86-17.59,5.27-41.18,4.58-76.5Z"/>
  <path class="cls-1" d="M885.09,598.81l-22.58,14.15c-.38,2.79-1.2,5.54-2.49,8.15l-5.55,11.28c-4.98,10.12-15.25,16.55-26.53,16.62l-6.83.04c-11.28.07-21.62-6.25-26.72-16.31l-5.68-11.21c-2.08-4.11-3.01-8.59-2.85-13-3.06-2.31-6.11-3.99-9.15-4.99,6.82,17.08,10.72,31.73,11.89,44.7.45,5.01-2.26,9.84-6.75,12.01-4.73,2.29-9.94,3.45-15.57,3.49-3.59.02-7.35-.42-11.27-1.32-2.99-.69-5.71-1.88-8.07-3.54-3.3-2.32-5.02-4.93-5.12-7.76-.1-2.86,1.5-5.64,4.73-8.26l.04-.03c4.74-3.69,9.97-.81,13.52,2.25,1.19,1.03,1.32,2.82.3,4.01-1.03,1.19-2.82,1.32-4.01.3-4.21-3.63-5.72-2.54-6.3-2.09-1.71,1.39-2.64,2.68-2.61,3.64.03.92.99,2.09,2.71,3.3,1.76,1.24,3.8,2.13,6.07,2.65,8.77,2.02,16.54,1.43,23.09-1.74,2.37-1.15,3.81-3.71,3.56-6.39-1.19-13.17-5.36-28.26-12.74-46.14-.03-.07-.05-.15-.08-.22-.01,0-.03,0-.04,0-7.03-.08-14.42,3.4-22.03,10.4.14,4.28-.74,8.62-2.72,12.64l-5.55,11.28c-4.98,10.12-15.25,16.55-26.53,16.62l-6.83.04c-11.28.07-21.62-6.25-26.72-16.31l-5.68-11.21c-1.35-2.67-2.22-5.48-2.61-8.34l-32.39-13.07c1.56,15.54,3.67,26.51,5.62,35.1,6.54,28.71,17.53,52.34,33.5,71.98,4.3,4.3,11.36,8.18,17.98-2.41h0c-.71-3.53-.25-8.23,1.2-13.92.62-2.46,4.44-2.99,4.91-.51,2.1,11.08,13.12,32.36,27.51,31.65,2.07-.94,3.36-2.5,4.16-4,1.22-2.27,3.66-3.59,6.21-3.23,6.59.93,13.22,1.38,19.85,1.34h0c11.47-.07,23.13-1.59,34.84-4.56,2.06-.52,4.27,0,5.8,1.48,1.43,1.38,3.85,2.83,7.71,2.92,6.86-3.63,12.47-9.36,15.98-16.41,1.75-3.52,3.59-7.6,5.17-11.89.92-2.51,4.4-2.27,5.01.34.78,3.33,1.01,6.65.52,9.96h0s-.66,16.2,14.92,4.59c.06-.05.12-.09.19-.14,13.54-17.98,23.04-39.65,28.9-65.88,2.83-12.67,4.84-26.49,6.07-42.01ZM698.54,661.48c-4.24,4.99-9.57,13.38-7.78,22.71,1.31,6.84-.79,7.1-3.45,5.37-4.79-3.11-6.4-9.39-3.89-14.52,2.69-5.5,7.04-12.54,12.94-16.08,1.64-.98,3.41,1.07,2.17,2.52ZM815.35,693.69s-.07,0-.11,0c-2.41-.08-4.43-.43-6.16-1.02-.28.67-.72,1.29-1.32,1.8-14.39,12.45-28.48,18.72-42.17,18.8-13.32.08-26.26-5.7-38.74-17.33-.49-.46-.86-.99-1.12-1.56-1.64.59-3.52.98-5.78,1.14-.06,0-.13,0-.19,0-1.48,0-2.74-1.13-2.85-2.64-.11-1.57,1.06-2.93,2.63-3.04,4.96-.36,7.27-1.77,10.28-6.3.87-1.31,2.63-1.66,3.94-.79,1.31.87,1.66,2.63.79,3.94-.35.52-.69,1.01-1.04,1.49,21.55,4.54,44.3,4.03,67.7-1.53-.3-.39-.61-.79-.91-1.2-.92-1.27-.64-3.05.63-3.97,1.27-.92,3.05-.64,3.97.63,3.19,4.4,5.55,5.72,10.53,5.89,1.57.05,2.8,1.37,2.75,2.94-.05,1.53-1.3,2.74-2.82,2.75ZM832.34,684.61c-1.54,1.31-2.72,2.63-3.56.8-1.25-2.7,1.47-4.98.08-7.32-3.65-6.11-11.26-8.5-17.84-5.79-24.19,9.95-56.6,11.88-87.46,1.04-8.84-3.1-13.25.87-17.09,5.54-2.39,2.9-1.43,5.3-2.82,8.52-.88,2.02-3.17,1.1-3.54-1.07-.81-4.66-1.13-9.68,5.35-17.75,3.85-4.79,10.03-7.04,15.94-5.38,31.18,8.79,62.44,8.26,93.79-2.52,7.45-2.56,15.82,1.05,18.63,8.41,2.8,7.32.1,14.17-1.47,15.51ZM843.02,687.83c-2.98,1.08-4.97.36-2.16-6.01,3.84-8.69.55-18.07-2.47-23.88-.88-1.69,1.31-3.29,2.69-1.97,4.95,4.78,7.61,12.62,8.99,18.58,1.29,5.56-1.69,11.32-7.06,13.28Z"/>
  <path class="cls-1" d="M711.98,606.28c1.44-1.46,1.43-3.81-.03-5.26-1.46-1.44-3.81-1.43-5.26.03l-12.43,12.57c-1.44,1.46-1.43,3.81.03,5.26.73.72,1.68,1.08,2.63,1.07.95,0,1.9-.37,2.62-1.1l12.43-12.57Z"/>
  <path class="cls-1" d="M733.1,693.92c21.6,18.68,43.95,18.21,68.17-1.43-23.51,5.42-46.41,5.9-68.17,1.43Z"/>
  <path class="cls-1" d="M897.33,591.24l-.13-.02-.2.12c-1.17,19.51-3.43,36.52-6.89,51.95-4.12,18.42-9.96,34.76-17.64,49.3,6.08,3.27,12.72,4.76,19.21,4.31,5.12-.35,7.55-1.58,12.4-4.02.61-.31,1.23-.62,1.88-.94,4.8-2.39,11.68-7.8,15.92-27.13,3.41-15.54,4.64-37.28,4-70.45l-28.56-3.13Z"/>
</svg>