<?xml version="1.0" encoding="UTF-8"?>
<svg id="Layer_1" data-name="Layer 1" xmlns="http://www.w3.org/2000/svg" viewBox="0 0 1000 1000">
  <g>
    <path d="M600.19,490.45l-64.57-1.26c-4.98-.1-8.68,3.24-7.14,6.45l6.34,13.21c1.17,2.44,4.98,3.77,8.65,3.02l58.23-11.95c7.76-1.59,6.54-9.31-1.5-9.47Z"/>
    <path d="M611.81,502.95l-43.35,25.94c-3.34,2-3.96,6.34-1.18,8.38l11.43,8.4c2.11,1.55,5.36,1.07,7.37-1.09l31.92-34.33c4.26-4.58-.79-10.52-6.18-7.29Z"/>
    <path d="M580.44,479.26c6.09.83,9.44-5.24,4.58-8.29l-22.57-14.17c-3.18-1.99-7.84-1.02-9.26,1.92l-5.01,10.41c-1.33,2.77.93,5.86,4.68,6.37l27.58,3.75Z"/>
    <path d="M850.69,491.92l46.4-37.16c2.92-2.34,4.33-6.12,3.2-8.58l-6.11-13.32c-1.48-3.23-6.42-2.52-9.52,1.37l-40.29,50.48c-5.02,6.29.14,12.16,6.33,7.21Z"/>
    <path d="M871.99,499.96l45.81-9.95c2.88-.63,4.95-3.17,4.69-5.78l-1.39-14.11c-.34-3.42-4.38-5.11-7.81-3.26l-44.42,24.06c-5.53,3-2.99,10.37,3.12,9.04Z"/>
    <path d="M844.23,453.33l-11.41-1.81c-3.23-.51-6.68,2.77-6.85,6.52l-1.2,26.62c-.26,5.73,6.64,6.42,9.42.95l12.62-24.81c1.71-3.37.47-6.99-2.57-7.47Z"/>
  </g>
  <path d="M150.98,517.54c8.87,4.29,26.16,9.69,46.17.45,11.57-5.34,20.75-14.62,27.12-25.66,15.19-26.37,48.39-107.36-18.13-198.41-3.64-4.99-7.99-9.47-13.05-13.01-7-4.9-14.53-7.66-23.12-5.89-4.17.86-7.86,4.99-8.17,9.24l-16.66,223.17c-.32,4.26,2.01,8.26,5.86,10.12ZM185.44,317.23c.07-1.27,1.67-1.74,2.44-.72,38.28,50.69,32.92,132.43-9.61,173.73-.89.86-2.37.2-2.3-1.04l9.47-171.96Z"/>
  <path d="M331.21,363.76c1.79,15.34-1.17,31.31-8.56,46.17-.01.02-.02.05-.04.07-2.41,4.86-3.96,10.1-4.72,15.47-1.83,12.94-3.6,37.02,5.36,51.46,2.82,4.54,8.41,6.4,13.38,4.42,18.91-7.52,33.02-24.73,37.21-45.48,7.11-35.18-4.54-79.22-28.45-103.05-4.42-4.4-9.93-7.55-15.99-8.98-2.26-.53-4.42-.91-6.49-1.15-2.79-.32-4.79,2.68-3.45,5.15,5.45,10.05,10.09,21.72,11.75,35.91ZM341.53,400.96c4.75-13.07,5.75-27.17,4.46-41.9-.21-2.41,2.99-3.49,4.22-1.4,13.53,23.05,17.36,50.72,8.92,84.22-1.2,4.75-3.34,9.25-6.55,12.95-3.08,3.56-6.32,5.56-9.7,6.22-4.27.83-8.32-1.9-9.25-6.15-2.98-13.63.53-32.3,7.9-53.94Z"/>
  <path d="M293.33,477.95c.73.59,1.51,1.12,2.33,1.59,2.74,1.56,5.78,3.15,9.02,4,3.12.81,5.35-2.96,3.08-5.25-11.77-11.85-14.71-32-12.34-48.83,1.93-7.8,5.2-16.1,10.29-24.78,5.04-8.6,8.82-17.89,11.36-27.53,1.01-3.85,1.9-7.86,2.64-12.05,2.06-7.08-5.88-29.23-13.04-36.36-2.15-2.14-4.87-3.51-7.58-2.14-5.02,2.54-9.12,5.92-12.54,9.34-7.09,7.08-12.51,15.67-16.1,25.04-12.75,33.33-7.54,74.36,10.87,104.31,3.13,5.1,7.25,9.38,12,12.66Z"/>
  <path d="M369.73,487.97c4.31,11.85,13.52,22.67,25.27,29.69,5.92,3.53,12.51,5.31,19,5.3,5.89,0,11.7-1.46,16.85-4.39,12.97-7.38,21.41-18.33,26.57-34.44l.17-.58c4.59-17.18,2.47-32.64-2.68-46.84-5.46-20.48-21.92-61.63-21.92-61.63-12.1-40.16,1.66-41.91,5.58-41.65,3.93,2.09,8.09,5.79,12.44,11.1,4.31,5.26,12.06,6.03,17.32,1.73,5.26-4.31,6.03-12.06,1.73-17.32-13.94-17.03-29.02-24.3-44.83-21.63-11.18,1.89-21.23,9.19-26.9,19.54-12.2,22.27-7.38,42.64,1.9,61.32l-.07.05s20.76,53.64,22.26,86.13c-.27,5.77-1.77,15.88-8.35,23.6-.39.14-.79.25-1.21.34-1.76-.18-3.55-.76-5.23-1.76-10.18-6.07-13.87-14.52-14.76-16.96-2.32-6.39-9.38-9.68-15.77-7.36-6.39,2.32-9.68,9.38-7.36,15.77Z"/>
  <path d="M484.16,593.97c-18.81-37.52-5.52-41.58-1.62-41.99,4.23,1.38,8.96,4.32,14.15,8.81,5.14,4.44,12.91,3.88,17.36-1.26,4.44-5.14,3.88-12.91-1.26-17.36-16.65-14.39-32.75-18.98-47.87-13.64-10.69,3.77-19.35,12.69-23.16,23.85-8.21,24.03.03,43.28,12.37,60.09l-.06.07s29.64,49.3,36.68,81.05c.72,5.73.97,15.95-4.19,24.68-.36.2-.74.38-1.14.55-1.76.12-3.63-.14-5.45-.84-11.07-4.24-16.15-11.93-17.44-14.19-3.38-5.89-10.9-7.93-16.8-4.55-5.9,3.38-7.93,10.9-4.55,16.8,6.28,10.94,17.2,20.03,29.98,24.92,4.39,1.68,8.95,2.51,13.44,2.51,8.05,0,15.87-2.65,22.04-7.74,11.51-9.5,17.96-21.72,20.28-38.48l.07-.6c1.58-17.71-3.15-32.59-10.66-45.7-8.88-19.24-32.14-56.97-32.14-56.97Z"/>
  <path d="M151.97,570.64c8.42-1.63,17.02-2.7,25.76-3.3,9.92-.68,16.11-11.48,11.16-20.11-.05-.09-.1-.18-.15-.27-2.42-4.07-6.89-6.48-11.62-6.5-46.51-.27-86.56,9.29-118.49,31.24-4.4,3.03-6.54,8.41-5.61,13.67,2.09,11.76,9.74,17.54,21.81,18.59,3.36.29,6.71-.8,9.36-2.89,13.62-10.79,28.19-18.52,43.48-23.89-1.55,60.57-.33,118.89,4.12,174.58.24,2.95,1.99,5.62,4.66,6.89,8.96,4.26,16.55,2.96,22.79-3.84,1.67-1.82,2.42-4.31,2.1-6.77-7.64-58.02-10.66-117.18-9.36-177.39Z"/>
  <path d="M223.91,551.65c-7.04-.19-13.67,3.38-17.33,9.39-38.61,63.37-30.02,146.58-29.63,150.09.77,7.04,6.73,12.25,13.65,12.25.5,0,1-.03,1.5-.08,7.55-.82,13-7.6,12.19-15.15-.04-.37-1.89-18.64.05-43.66l37.45-8.5c1.92,15.25,2.4,31.8.42,49.11-.86,7.55,4.55,14.36,12.1,15.23,7.55.85,14.37-4.55,15.23-12.1,7.76-67.73-17.64-124.77-28.93-146.16-3.28-6.21-9.68-10.2-16.7-10.42ZM207.66,638.19c2.88-16.19,7.61-33.4,15.26-49.54,5.47,12.37,11.75,29.41,15.92,49.54h-31.17Z"/>
  <path d="M389.17,532.16c-7.03-.27-13.67,3.38-17.33,9.39-38.61,63.37-30.02,146.58-29.63,150.09.77,7.04,6.73,12.25,13.65,12.25.5,0,1-.03,1.5-.08,7.55-.82,13-7.6,12.19-15.15-.04-.37-1.89-18.64.05-43.65l37.45-8.5c1.92,15.25,2.4,31.8.42,49.11-.86,7.55,4.55,14.36,12.1,15.23,7.54.85,14.37-4.55,15.23-12.1,7.76-67.73-17.64-124.77-28.93-146.15-3.28-6.21-9.68-10.21-16.7-10.42ZM372.91,618.7c2.88-16.19,7.61-33.4,15.26-49.54,5.47,12.37,11.75,29.41,15.92,49.54h-31.17Z"/>
  <path d="M363.19,718.15c-2.66-1.46-5.81-1.7-8.77-1.01l-45.64,10.56c-1.08.25-2.02-.8-1.66-1.85,24.65-72.13,28.48-99.04,31.8-188.26-.72-11.57-4.89-17.5-13.28-16.54-1.37.16-2.71.56-4.01,1.05-26.21,9.93-46.81,16.2-56.46,15.32-1.51-.14-3.07.26-4.09,1.37-1.46,1.58-1.43,3.78.73,6.85,10.99,8.65,25.4,9.2,41.16,6.54,1.64-.28,3.07,1.14,2.83,2.78-9.73,65.3-22.3,128.06-32.13,189.42-.04,7.33,4.63,10.01,12.71,9.32l71.26-13.64c6.48-1.24,11.19-7.1,10.65-13.67-.31-3.77-1.99-6.52-5.1-8.23Z"/>
  <path d="M631.43,434.52c-10.76-.96-15.94,1.56-16.63,6.9-.21,1.62.36,3.25,1.53,4.39,4.67,4.57,9.65-.73,16.58-.24,2.66.19,4.99,1.87,6.08,4.31,4.34,9.71,7.34,15.66,9.17,13.26-.29-5.58-.17-11.34-1.67-16.42-2-6.76-8.04-11.57-15.06-12.2Z"/>
  <path d="M721.86,437.3c-.05-7.69-1.8-13.8-10.24-18.65-.02,0-.03-.02-.05-.03-1.32-.72-2.99-.26-3.75,1.06-.77,1.33-.31,3.03,1.03,3.8.99.57,1.85,1.15,2.6,1.75-19.99-2.11-37.35-7.96-51.62-17.42-11.99-7.95-19.27-16.8-23.27-22.83-.07-.1-.14-.2-.21-.29,1.04.34,2.12.77,3.26,1.29,1.4.63,3.05.01,3.68-1.38.63-1.4.02-3.06-1.38-3.68-7-3.18-13.29-4.14-21.22,1.49-1.25.89-1.55,2.63-.66,3.88.25.35.57.63.93.83.9.5,2.05.47,2.95-.17,1.07-.76,2.08-1.36,3.06-1.81-.46.75-.75,1.61-.83,2.54-.88,10.68.42,19.93,3.99,28.29l.17.4.29.33c6,6.9,13.19,12.64,21.51,17.2,9.34,5.11,20.1,8.72,32.22,10.8l.35.06.36-.03c9.44-.81,18.58-3.57,28.77-8.68.98-.49,1.77-1.23,2.31-2.11.12,1.06.18,2.19.18,3.4,0,1.05.59,1.96,1.45,2.43.4.22.86.34,1.35.34,1.54,0,2.78-1.26,2.77-2.8ZM711.39,431.01s-.02.02-.07.05c-9.4,4.71-17.8,7.28-26.4,8.07-21.56-3.75-37.87-12.19-49.83-25.77-3.07-7.4-4.18-15.67-3.39-25.24,0-.04.01-.06.01-.07.03-.04.14-.07.18-.05,0,0,.02.01.04.05,4.28,6.45,12.06,15.92,24.83,24.39,15.12,10.02,33.46,16.2,54.52,18.37.05,0,.07.01.07.01.03.03.05.15.03.19Z"/>
  <path d="M697.52,651.9c-5.78,3.47-10.04,10.36-12.67,15.75-2.46,5.02-.88,11.17,3.81,14.22,2.61,1.69,4.66,1.44,3.38-5.26-1.75-9.13,3.46-17.35,7.61-22.23,1.21-1.42-.53-3.43-2.13-2.47Z"/>
  <path d="M761.57,566.67c63.58-.37,115.06-10.42,114.99-22.46-.07-12.03-51.67-21.49-115.24-21.12-63.58.37-115.06,10.42-114.99,22.46.07,12.03,51.67,21.49,115.24,21.12Z"/>
  <path d="M739.63,452.8c.33-7.7-.42-18.28-5.57-26.52-1.43-2.28-5.13-1.58-4.54.87,2.02,8.4,3.08,21.12-5.65,29.22-6.41,5.94-3.88,7.85.74,8.18,8.31.58,14.71-4.56,15.02-11.75Z"/>
  <path d="M632.36,365.51c-6.25-1.52-13.77.31-19.17,2.2-5.04,1.77-8.09,7-6.95,12.21.64,2.9,2.2,4.1,5.82-1.31,4.93-7.38,13.99-9.47,20.08-10,1.78-.15,1.94-2.68.21-3.1Z"/>
  <path d="M739.97,317.98c55.77,30.53,105.67,46.71,111.45,36.16,5.78-10.56-34.75-43.86-90.52-74.38-55.77-30.52-105.67-46.71-111.45-36.16-5.78,10.56,34.75,43.86,90.52,74.38Z"/>
  <path d="M748.11,368.58c-6.16-3.87-13.4-4.87-18.91-2.61-1.42.58-2.1,2.21-1.52,3.63.58,1.42,2.21,2.1,3.63,1.52,3.82-1.57,9.25-.72,13.84,2.17,4.4,2.77,7.43,6.98,7.9,10.99.17,1.48,1.48,2.55,2.94,2.45.05,0,.1,0,.15-.01,1.53-.18,2.62-1.56,2.44-3.09-.68-5.72-4.59-11.35-10.47-15.04Z"/>
  <path d="M619.18,305.54c3.82-1.57,9.25-.72,13.84,2.17,4.4,2.77,7.43,6.98,7.9,10.99.17,1.48,1.48,2.55,2.94,2.45.05,0,.1,0,.15-.01,1.53-.18,2.62-1.56,2.44-3.09-.68-5.73-4.59-11.35-10.47-15.04-6.16-3.87-13.4-4.87-18.91-2.61-1.42.58-2.1,2.21-1.52,3.63.58,1.42,2.21,2.1,3.63,1.52Z"/>
  <path d="M668.63,397.93c3.08,1.69,6.53,3.06,10.32,4.1,2.9.8,5.79,1.03,8.6.7,3.92-.47,6.62-1.91,8.02-4.3,1.41-2.42,1.33-5.55-.24-9.32l-.02-.05c-2.36-5.38-8.21-5.33-12.7-4.35-1.5.33-2.45,1.81-2.12,3.32.33,1.5,1.81,2.45,3.32,2.12,5.31-1.17,6.11.47,6.39,1.13.83,2,1.03,3.54.56,4.35-.45.78-1.83,1.34-3.87,1.58-2.09.25-4.26.07-6.46-.54-8.49-2.34-14.91-6.46-19.08-12.24-1.51-2.09-1.55-4.97-.1-7.16,7.15-10.79,17.76-21.85,32.43-33.82,1.19-.97,1.37-2.72.4-3.92-.97-1.19-2.72-1.37-3.92-.4-15.12,12.33-26.1,23.8-33.56,35.06-2.72,4.11-2.63,9.53.23,13.49,3.01,4.18,6.96,7.6,11.8,10.25Z"/>
  <path d="M814.08,680.35c-4.87-.16-7.18-1.45-10.3-5.76-.9-1.24-2.64-1.52-3.89-.62-1.24.9-1.52,2.64-.62,3.89.3.41.59.8.89,1.18-22.91,5.44-45.18,5.95-66.28,1.5.34-.47.68-.95,1.02-1.46.85-1.28.51-3.01-.77-3.86-1.28-.85-3.01-.51-3.86.77-2.95,4.43-5.21,5.81-10.07,6.17-1.53.11-2.68,1.44-2.57,2.98.11,1.47,1.34,2.59,2.79,2.58.06,0,.13,0,.19,0,2.21-.16,4.05-.54,5.65-1.12.25.56.62,1.08,1.1,1.53,12.22,11.39,24.88,17.04,37.92,16.97,13.4-.08,27.2-6.22,41.28-18.41.58-.5,1.01-1.11,1.29-1.76,1.7.58,3.67.92,6.03,1,.04,0,.07,0,.11,0,1.49,0,2.71-1.19,2.76-2.69.05-1.54-1.15-2.82-2.69-2.87ZM733.49,686.13c21.3,4.37,43.72,3.9,66.74-1.4-23.71,19.23-45.6,19.69-66.74,1.4Z"/>
  <path d="M813.84,653.59c-30.69,10.55-61.29,11.07-91.82,2.46-5.79-1.63-11.84.58-15.61,5.26-6.34,7.9-6.03,12.81-5.24,17.37.37,2.12,2.61,3.03,3.47,1.05,1.36-3.15.42-5.49,2.76-8.34,3.76-4.57,8.08-8.46,16.73-5.42,30.21,10.61,61.93,8.72,85.62-1.02,6.44-2.65,13.89-.32,17.47,5.67,1.37,2.29-1.29,4.52-.07,7.16.83,1.8,1.99.5,3.49-.78,1.54-1.32,4.18-8.02,1.44-15.19-2.75-7.21-10.94-10.74-18.24-8.23Z"/>
  <path d="M839.19,648.98c-1.34-1.3-3.49.27-2.63,1.93,2.95,5.69,6.18,14.87,2.41,23.38-2.76,6.24-.81,6.95,2.11,5.89,5.25-1.91,8.17-7.55,6.91-13-1.35-5.84-3.95-13.51-8.8-18.19Z"/>
  <path d="M925.94,564.1l-28.62-3.13-2.51-.32c.07-5.68.06-11.56-.02-17.67.11-.86.16-1.73.16-2.59-.03-4.39-1.53-10.83-8.58-16.58-3.04-2.48-6.87-4.61-11.7-6.51-7.09-2.79-16.75-5.19-28.71-7.14-22.83-3.72-52.93-5.67-84.75-5.48-4.93.03-9.81.11-14.63.24,22.07-11.53,42.52-28.54,62.16-51.71,11.71-13.82,23.23-29.94,35.22-49.35l1.2.13c.91.1,1.61.87,1.62,1.78l.19,10.77c.06,3.66,3.09,6.58,6.75,6.52,3.66-.07,6.58-3.09,6.52-6.75l-.19-10.77c-.11-5.98-3.73-11.19-8.96-13.53,4.88-8.3,9.86-17.17,14.97-26.65.55-.76,1.06-1.57,1.51-2.39,2.25-4.11,4.31-10.86,1.36-19.67-1.31-3.91-3.51-7.86-6.71-12.08-4.71-6.2-11.87-13.27-21.29-21.01-17.96-14.76-43.24-31.31-71.19-46.61-27.95-15.3-55.52-27.67-77.63-34.85-11.6-3.76-21.41-5.99-29.18-6.61-5.28-.42-9.8-.14-13.8.86-9.01,2.26-13.58,7.63-15.81,11.71-3.51,6.31-6.77,12.3-9.8,18.01l-5.29-2.03-26.68-10.84c-10.99-4.47-23.87.29-29.96,11.07-17.02,30.1-26.77,51.09-31.63,68.03-6.21,21.68-4.68,38.68,4.69,51.94.38.54.74,1.06,1.1,1.57,3.66,5.24,7.44,10.66,15.91,16.01,1.01.64,2.04,1.25,3.09,1.82,7.22,3.95,15.28,6.34,23.7,7.02-.05,10.5.78,20.75,2.49,30.83l.13.75.32.69c13.51,28.71,33.03,50.21,58.02,63.88,14.17,7.75,30.28,13.07,48.17,15.95-3.84.53-7.55,1.1-11.06,1.72-11.93,2.09-21.56,4.6-28.62,7.47-4.81,1.95-8.61,4.13-11.62,6.64-6.96,5.82-8.41,12.26-8.39,16.65-.03,14.35.3,26.72.88,37.45-6.31-1.28-12.93,1.61-16.18,7.39l-5.28,9.39c-1.8,3.19-.66,7.24,2.53,9.04,3.2,1.8,7.24.66,9.04-2.53l5.28-9.39c.45-.8,1.43-1.14,2.28-.8l3.34,1.35c1.62,18.91,4.03,31.73,6.27,41.52,7.3,32.03,20,58.07,38.82,79.52h-.06c.2.21.41.43.62.64.21.23.41.47.62.7l.5.56.43.28c2.73,2.65,5.69,5.34,7.69,8.47,2.18,2.26,4.06,4.92,5.38,8.06.18.43.37.83.56,1.2,1.36,7.5,1.98,14.28,7.89,21.31,4.86,5.77,12.29,9.72,20.58,11.3,14.54,2.78,28.54,3.82,41.94,2.95l-.37.26s45.72-.52,58.06-11.49c0,0,8.3-8.22,14.42-25.3,5.1-8.65,10.65-14.31,15.04-17.85.05-.06.09-.11.14-.17l.48-.53c2.72-3.03,5.31-6.16,7.78-9.4l1.45.79c9.03,4.89,18.93,7.4,28.84,7.34,1.2,0,2.39-.05,3.59-.13,10-.69,15.9-3.66,21.61-6.53.56-.28,1.13-.57,1.72-.86,14.55-7.22,23.97-21.45,28.8-43.48,3.78-17.22,5.16-40.32,4.48-74.89-.24-12.38-9.31-22.68-21.1-23.97ZM643.06,240.1c1.72-3.15,4.68-5.27,8.77-6.29,2.81-.7,6.14-.89,10.2-.56,6.9.55,15.86,2.61,26.63,6.1,21.47,6.96,48.36,19.05,75.72,34.02,27.36,14.97,52.03,31.11,69.47,45.44,8.75,7.19,15.31,13.63,19.49,19.14,2.46,3.24,4.1,6.15,5.02,8.89,1.34,4.01,1.15,7.63-.57,10.78-.27.49-.57.96-.91,1.41l-.25.34-.2.37c-5.87,10.89-11.54,20.94-17.09,30.25l-44.82-5.01c.42-3.43.27-6.97-.51-10.49l-2.43-10.91c-1.28-5.74-4.97-10.66-10.13-13.48l-28.89-15.81c-5.16-2.82-11.29-3.29-16.82-1.27l-10.5,3.84c-2.86,1.04-5.48,2.48-7.84,4.23-6.95-14.05-18.88-20.65-35.04-19.37.3-3.17.12-6.41-.6-9.64l-2.43-10.91c-1.28-5.74-4.97-10.66-10.13-13.48l-28.89-15.81c-4.01-2.2-8.61-2.96-13.06-2.24,4.6-9.06,9.81-18.8,15.78-29.53ZM776.17,398.69l-14.21,9.86c-7.65,5.31-17.48,5.84-25.66,1.36l-9.77-5.35c-8.17-4.47-13.03-13.04-12.68-22.35l.65-17.28c.15-4.03,1.41-7.81,3.54-11.01,1.2-.62,2.04-1.71,2.38-2.96,2.21-2.29,4.94-4.11,8.08-5.26l10.5-3.84c2.98-1.09,6.28-.84,9.06.68l28.89,15.81c2.78,1.52,4.77,4.17,5.46,7.26l2.43,10.91c1.89,8.49-1.51,17.19-8.66,22.15ZM626.76,279.45c2.98-1.09,6.28-.84,9.06.68l28.89,15.81c2.78,1.52,4.77,4.17,5.46,7.26l2.43,10.91c.72,3.25.67,6.52-.07,9.61-1.47,1.06-2.25,2.93-1.84,4.81,0,.02.01.04.02.06-1.56,3-3.85,5.64-6.77,7.67l-14.21,9.86c-7.65,5.31-17.48,5.84-25.66,1.36l-9.77-5.35c-8.17-4.47-13.03-13.04-12.68-22.35l.65-17.28c.33-8.7,5.82-16.24,13.99-19.23l10.5-3.84ZM580.18,372.56c-5.53-.5-10.75-2.22-15.25-5.06-4.24-2.68-5.77-4.87-8.82-9.23-.38-.55-.77-1.11-1.18-1.68-3.03-4.29-6.44-12.15-1.1-30.78,4.29-14.98,13.34-34.27,29.32-62.55l25.83,10.5,2.93,1.12c-11.16,4.57-18.6,15.16-19.06,27.29l-.65,17.28c-.07,1.83.01,3.65.23,5.43l-.85-.29c-5.59,16.67-9.38,32.6-11.4,47.97ZM644.76,483.72c-22.68-12.41-40.5-31.98-52.97-58.17-4.39-26.54-2.25-54.55,6.56-85.28,2.92,4.12,6.78,7.61,11.42,10.15l9.77,5.35c11.32,6.2,24.95,5.47,35.55-1.89l14.21-9.87c4.67-3.24,8.23-7.59,10.47-12.52,15.33-2.37,25.17,3.07,30.62,16.93-3.18,4.67-5.07,10.23-5.3,16.16l-.65,17.28c-.49,12.9,6.25,24.76,17.57,30.96l9.77,5.35c11.32,6.2,24.95,5.47,35.55-1.89l14.21-9.87c3.4-2.36,6.2-5.3,8.34-8.63.1.02.2.04.3.05l41.51,4.64c-10.69,16.94-21,31.2-31.45,43.53-22.21,26.21-45.37,44.09-70.75,54.65-33.42,1.24-61.92-4.46-84.73-16.95ZM639.02,541.92v-.04c-.02-2.91,1.46-5.62,4.39-8.07,2.11-1.77,4.95-3.36,8.68-4.87,6.33-2.57,15.2-4.87,26.35-6.82,22.19-3.88,51.6-6.12,82.83-6.3,31.22-.18,60.66,1.71,82.9,5.34,11.18,1.82,20.07,4.01,26.43,6.51,3.74,1.47,6.6,3.03,8.73,4.77,2.96,2.42,4.47,5.12,4.49,8.02,0,.44-.03.88-.1,1.31l-.07.46v.47c.17,12.21.04,23.51-.4,34.05l-25.19,15.78c-1.06-2.31-2.46-4.49-4.2-6.46l-5.17-5.83c-3-3.39-7.32-5.31-11.85-5.29l-28.47.17c-4.53.03-8.82,2-11.79,5.43l-5.1,5.89c-1.75,2.02-3.15,4.26-4.18,6.64-5.71-3.61-11.56-5.48-17.48-5.56-7.96-.12-16.01,3.02-23.98,9.31-1.06-2.34-2.48-4.56-4.24-6.55l-5.17-5.83c-3-3.39-7.32-5.31-11.85-5.29l-28.47.16c-4.53.03-8.82,2-11.79,5.43l-5.1,5.89c-1.85,2.14-3.31,4.52-4.36,7.05l-34.67-13.99c-.75-11.62-1.19-25.35-1.16-41.78ZM814.13,617.08l20.53-20.78c1.41-1.43,3.72-1.44,5.15-.03,1.43,1.41,1.44,3.72.03,5.15l-20.53,20.78c-.71.71-1.64,1.08-2.57,1.08-.93,0-1.86-.34-2.58-1.05-1.43-1.41-1.44-3.72-.03-5.15ZM812.42,611.23c-.93,0-1.86-.34-2.58-1.05-1.43-1.41-1.44-3.72-.03-5.15l12.17-12.31c1.41-1.43,3.72-1.44,5.15-.03,1.43,1.41,1.44,3.72.03,5.15l-12.17,12.31c-.71.71-1.64,1.08-2.57,1.08ZM699.79,619.58l20.54-20.78c1.41-1.43,3.72-1.44,5.15-.03,1.43,1.41,1.44,3.72.03,5.15l-20.54,20.77c-.71.71-1.64,1.08-2.57,1.08-.93,0-1.86-.34-2.58-1.05-1.43-1.41-1.44-3.72-.03-5.15ZM698.08,613.72c-.93,0-1.86-.34-2.58-1.05-1.43-1.41-1.44-3.72-.03-5.15l12.16-12.31c1.41-1.43,3.72-1.44,5.15-.03,1.43,1.41,1.44,3.72.03,5.15l-12.16,12.31c-.71.71-1.64,1.08-2.57,1.08ZM848.04,698.64c-.06.05-.12.09-.18.13-15.25,11.37-14.6-4.49-14.6-4.49h0c.49-3.24.25-6.49-.51-9.75-.6-2.56-4-2.8-4.91-.34-1.54,4.21-3.35,8.2-5.06,11.64-3.43,6.91-8.93,12.51-15.64,16.07-3.78-.09-6.15-1.51-7.55-2.86-1.5-1.45-3.66-1.96-5.68-1.45-11.46,2.9-22.88,4.39-34.1,4.46h0c-6.49.04-12.98-.4-19.43-1.31-2.5-.35-4.89.94-6.08,3.16-.79,1.46-2.05,2.99-4.08,3.91-14.09.69-24.88-20.14-26.94-30.99-.46-2.43-4.19-1.9-4.8.5-1.42,5.57-1.86,10.17-1.17,13.62h0c-6.48,10.37-13.39,6.57-17.61,2.36-15.64-19.23-26.39-42.35-32.8-70.46-1.92-8.41-3.97-19.15-5.5-34.37l31.71,12.8c.39,2.8,1.24,5.55,2.56,8.16l5.56,10.98c4.99,9.85,15.12,16.03,26.16,15.97l6.68-.04c11.04-.06,21.1-6.36,25.97-16.27l5.43-11.04c1.93-3.93,2.8-8.18,2.66-12.37,7.45-6.85,14.68-10.26,21.56-10.18.01,0,.03,0,.04,0,.02.07.05.14.08.21,7.23,17.51,11.31,32.28,12.47,45.17.24,2.61-1.17,5.13-3.49,6.25-6.42,3.11-14.03,3.68-22.61,1.71-2.22-.51-4.22-1.38-5.94-2.6-1.68-1.18-2.62-2.33-2.65-3.23-.03-.93.88-2.2,2.55-3.56.57-.44,2.04-1.51,6.16,2.05,1.16,1,2.92.87,3.92-.29,1-1.16.87-2.92-.29-3.93-3.48-3-8.6-5.82-13.24-2.21l-.04.03c-3.17,2.57-4.73,5.29-4.63,8.09.09,2.76,1.78,5.32,5.01,7.59,2.31,1.63,4.97,2.79,7.9,3.47,3.84.88,7.52,1.31,11.03,1.29,5.51-.03,10.61-1.17,15.25-3.41,4.4-2.13,7.05-6.85,6.61-11.76-1.15-12.69-4.96-27.03-11.64-43.75,2.97.99,5.96,2.62,8.96,4.89-.16,4.32.75,8.7,2.79,12.73l5.56,10.98c4.99,9.85,15.12,16.03,26.16,15.97l6.68-.04c11.04-.06,21.1-6.36,25.97-16.27l5.43-11.04c1.26-2.56,2.06-5.25,2.43-7.98l22.11-13.85c-1.2,15.2-3.17,28.73-5.94,41.13-5.74,25.67-15.04,46.89-28.3,64.49ZM918.3,657.65c-4.15,18.93-10.88,24.22-15.59,26.56-.63.31-1.24.62-1.84.92-4.75,2.39-7.13,3.59-12.14,3.94-6.35.44-12.86-1.02-18.8-4.22,7.52-14.23,13.24-30.23,17.27-48.26,3.38-15.11,5.6-31.76,6.74-50.86l.19-.12.13.02,27.96,3.06c.63,32.48-.58,53.75-3.91,68.97Z"/>
</svg>