<?xml version="1.0" encoding="UTF-8"?>
<svg id="Layer_1" data-name="Layer 1" xmlns="http://www.w3.org/2000/svg" viewBox="0 0 1000 1000">
  <defs>
    <style>
      .cls-1 {
        fill: #fff5e1;
      }
    </style>
  </defs>
  <path class="cls-1" d="M680.13,536.41c5.97,2.62,11.09,7.9,13.51,14.15,9.49,24.53,11.78,55.57.8,80.44,14.18,14.06,19.47,47.89,6.63,61.92-24.2,15.59-51.12,24.63-79.08,32.05-105.11,27.91-257.82,23.65-357.61-26.2l19.33-69,3.54-7.1c-3.65-6.41-4.34-11.95-3.65-18.95,2.44-25.01,8.53-48.33,21.69-69.76-5.17-11.36-3.82-21.56-2.22-32.9,3.22-22.81,10.11-44.6,25.22-62.41,2.73-3.22,4.31-6.52,3.82-11.13-2.88-27.12,6.36-53.86,26.45-72.3,29.76,13.89,45.95,14.05,77.38,16.21,43.22,2.98,85.73,2.6,128.79-2.4,19.32-2.24,37.05-6.98,54.7-14.39,6.64-2.79,11.11-7.27,16.31-11.88,8.39-7.44,16.8-14.35,25.99-21.02,19.09-13.85,42.1-21.22,65.5-21.91,11.57-.34,21.71,3.58,31.52,9.31,37.02,21.62,65.62,57.55,81.29,97.17l11.33,28.64,14.13,33.67c10.79,25.7,24.83,49.22,43.85,69.48,17.08,18.2,30.62,7.9,37.25,18.68-2.35,5.65-7.27,9.99-11.98,13.44-18.24,13.41-35.62-.54-46.62-15.76-10.85-15.01-20.23-30.43-27.66-47.54l-23.05-53.09c-16.36-37.67-37.01-82.38-66.77-110.68-39.94-37.98-93.7-19.09-125.81,17.07-1.38.73-4.91,1.41-5.69,2.61-2.8,4.29,2.2,10.83,4.03,18.86,3.96,17.44,4.77,35.04,2.04,52.76-.41,2.66-1.95,7.41-.11,9.31,9.3,9.55,18.45,18.56,23.44,31.1,6.38,16.04,8.99,33.87,7.68,51.03-.33,4.39-1.71,7.97,4.06,10.51ZM599.08,446.77c-53.71,17.86-126.58,18.25-182.17,9.51-19.81-3.12-47.83-9.69-62.91-22.36-3.1-2.61-6.61-3.69-9.86-.89-1.98,1.71-2.68,7.28.11,9.46,18.24,14.23,44.07,21.31,67.08,25.2,52.07,8.81,104.56,8.64,156.57-.34,10.54-1.82,72.17-15.48,62.61-30.58-4.6-7.26-14.43,4.35-31.43,10ZM319.66,544c23.33,7.38,45.24,12.81,69.17,16.57,87.49,13.75,188.97,9.39,272.85-20.31,3.49-1.23,5.12-5.58,4.02-8.41-.93-2.4-5.14-4.04-8.08-3.05-22.16,7.44-43.31,13.37-66.51,17.56-63.38,11.43-127.47,12.47-191.3,3.5-26.95-3.79-51.83-9.77-77.51-17.83-3.13-.98-7.2,1.21-7.7,3.53-.72,3.32,1.09,7.18,5.07,8.44ZM350.7,592.62l11.44-17c1.35-2.01,1.23-6.14-.26-7.55-1.73-1.64-7.03-1.32-8.26.46l-12.9,18.5c-1.72,2.47-.42,6.51,1.94,8.11,2.36,1.6,6.14.3,8.04-2.53ZM586.84,574.49c-1.28-1.75-6.35-1.88-7.8-.49-1.27,1.21-1.93,5.33-.93,6.91l12.56,19.79c1.49,2.35,5.28,3.27,7.63,2.2,8.19-3.75-7.06-22.4-11.47-28.41ZM378.36,636.96c21.55-4.05,18.7-32.09,13.79-44.29-3.13-7.79-10.65-12.98-19.45-10.68-13.03,3.41-19.48,59.69,5.66,54.98ZM579.68,591.9c-2.91-4-7.99-6.33-12.42-6.03-12.95.88-20.78,27.57-7.99,45.96,2.73,3.92,7.99,6.5,12.21,6.08,14.84-1.45,20.34-29.3,8.2-46.01ZM512.68,678.87c57.67-4,112.32-15.21,165.77-33.24,3.55-1.2,4.56-5.89,3.38-8.75-.8-1.95-4.68-3.59-7.65-2.61-60.6,19.93-122.61,32.05-186.69,33.37-62.31,1.28-131.53-7.97-184.54-41.82-2.8-1.79-7.41.22-8.44,2.67-.95,2.28,0,6.37,2.42,7.94,45.98,29.9,104.79,40.7,159.11,43.23.77,12.19,3.37,25.46,13.45,33.26,13.37,10.34,33.03,2.95,39.05-12.45,2.71-6.92,3.12-13.77,4.15-21.58Z"/>
  <path class="cls-1" d="M260.8,662.73c-32.26-12.22-53.02-21.68-73.38-48.75-11.3-15.03-18.47-30.74-22.79-49.16-6.1-26-11.04-52.36-7.85-79.3l6.59-55.57c2.7-22.79,4.11-45.24,1.09-68.08-3.47-26.28-19.48-47.8-40.33-63.01-42.85-31.25-64.71-12.57-70.16-30.17-.39-1.26-.71-3.99-.45-5.21,1.17-5.57,31.48,3.12,36.94,4.53,12.71,3.29,23.92,8.39,34.27,16.59,20.11,15.92,37.88,35.44,47.33,59.88,9.46,24.49,12,50.67,10.21,76.87-1.89,27.59-2.94,53.69-2.42,81.32.4,21.36,3.31,41.21,9.31,61.44,4.39,14.79,11.39,26.14,22.29,37.13,29.35,29.58,54.62,28.13,57,32.1.78,1.3-4.38,24.51-7.64,29.39Z"/>
  <path class="cls-1" d="M235.75,688.59c6.14-4.77,13.48-5.33,19.78-4.26-1.45,5.86-2.66,10.42-3.38,15.57l5.47,9.37c29.95,14.74,60.76,24.99,93.8,31.93,79.41,16.68,161.01,17.74,240.83,3.09,43.92-8.06,99.91-25.39,134.64-53.85,1.06-3.76-.13-8.56-1.2-13.12,2.03-1.43,6.26.92,7.32,4.18,6.74,20.57-19.24,35.68-34.67,43.1-25.8,12.4-51.85,20.97-79.78,27.94-49.01,12.23-97.7,19.19-148.46,20-58.58.94-115.61-8.14-170.08-29.26-17.17-6.66-32.49-15.43-47.83-25.08-10.11-6.36-15.71-17.29-16.44-29.61Z"/>
  <path class="cls-1" d="M626.01,329.34c1.97,6.39-3.25,10.36-7.58,12.42-19.96,9.48-40.79,13.81-63.09,16.04-50.41,5.04-100.37,3.93-150.79-1.3-16.16-1.68-30.69-6.85-44.16-15.11-4.62-2.84-6.96-8.18-5.76-13.46,1.63-7.17,8.22-13.9,15.58-14.88,2.92,3.58,6.63,6.79,11.23,8.31,23.08,7.65,45.94,9.7,70.3,11.51,53.17,3.95,104.86-1.02,156.41-16.71,6.45-1.96,15.87,6.75,17.86,13.19Z"/>
  <path class="cls-1" d="M543.57,318.45c-38.91,5.15-121.89,5.98-160.54-10.23,15.5-18.26,43.99-33.78,68.65-27.68,6.9,1.71,45.32,30.26,78.19-6.86l27.96,9.28c14.85,4.93,28.15,12.87,40.28,24.45-18.62,4.77-36,8.58-54.54,11.03Z"/>
  <path class="cls-1" d="M515.85,270.78c-15.75,13.35-39.29,12.51-54.35-.84-5.04-4.46-7.83-10.79-7.74-16.87.09-6.19,3.28-12.71,8.87-17.02,15.73-12.13,39.14-11.49,53.7,1.88,10.06,9.23,10.41,23.62-.49,32.86Z"/>
  <path class="cls-1" d="M480.66,679.98l-.63,11.64c-.17,3.17,1.36,6.36,4.34,6.97,2.26.46,6.41-2.12,6.61-4.75l.98-12.91c1.31-1.21,5.85-1.67,8.51-1.26.79,7.4-.57,14.9-5.2,20.74-4.54,5.72-14.07,7.96-19.29,2.42-5.71-6.06-7.42-14.54-7.53-22.54l12.22-.32Z"/>
</svg>