<?xml version="1.0" encoding="UTF-8"?>
<svg id="Layer_1" data-name="Layer 1" xmlns="http://www.w3.org/2000/svg" viewBox="0 0 1000 1000">
  <defs>
    <style>
      .cls-1 {
        fill: #fff5e1;
      }
    </style>
  </defs>
  <path class="cls-1" d="M560.09,642.11c-28.08,15.37-85.82,14.17-114.43-1.4l-35.22-218.22,183.06-6.52-33.41,226.15ZM556.43,494.4c2.93,1.54,7.82.11,8.73-2.65.67-2.04-.03-7.29-1.67-8.69-7.87-6.72-19.7-7.88-28.66-4.78-2.38.82-3.68,6.98-2.72,9.08,3.02,6.58,10.52-.2,24.32,7.04ZM466.1,480.32c.42-2.03-1.38-6.72-3.3-7.51-10.61-4.39-22.62-.94-28.42,9-1.47,2.51-.57,7.97,1.45,9.21,2.36,1.45,7.41,1.01,9.16-.92,9.47-10.46,19.17-.35,21.11-9.78ZM556.1,545.51c8.95-12.02,9.53-26.94,1.2-39.25-2.18-3.22-8-6.08-11.69-5.84-2.91.19-8.02,2.63-10.44,5.54-9.93,11.98-9.27,30.75,1.07,41.8,6.23,6.66,14.79,4.54,19.85-2.25ZM466.63,541.84c9.29-13.99,6.02-31.6-5.03-43.19-2.54-2.66-8.92-4.47-12.48-3.81-11.94,2.2-22.39,28.1-8.05,48.18,2.7,3.79,8.98,6.52,13.12,6.34,3.62-.16,9.63-3.28,12.45-7.52ZM491.81,565.29c9.73.9,18.25-1.01,24.35-8.04,2.1-2.41,1.91-8.2.14-10.26-1.89-2.2-7.75-2.73-9.45-1-2.8,2.86-5.66,5.27-8.04,5.56-9.82,1.17-9.99-9.59-16.49-6.44-2.69,1.3-4.74,5.09-4.49,7.6.76,7.51,6.17,11.86,13.97,12.58Z"/>
  <path class="cls-1" d="M611.05,400.06l-217.92,7.81c-4.22-9.4-6.31-19.72-3.7-30.06l218.32-9.96c4.45,9.49,4.46,19.16,3.29,32.22Z"/>
  <path class="cls-1" d="M583.83,353.56l-174.63,8.03c-1.33-3.66-1.98-6.67-2.14-10.09l174.25-4.52c1.74-.05,2.27,2.22,2.52,6.59Z"/>
</svg>