<?xml version="1.0" encoding="UTF-8"?>
<svg id="Layer_1" data-name="Layer 1" xmlns="http://www.w3.org/2000/svg" viewBox="0 0 1000 1000">
  <defs>
    <style>
      .cls-1 {
        fill: #b92323;
      }
    </style>
  </defs>
  <path class="cls-1" d="M598.64,549.72c29.49-3.87,57.17-17.36,82.19-33.25,12.52,17.51,13.58,39.87,3.34,58.71-18.41,33.89-61.76,54.9-97.77,65.26-60.07,17.29-123.62,18.62-184.35,3.64-35.33-8.71-76.18-26.64-97.02-57.21-24.77-36.35-1.36-74.37,31.98-95.77,17.65,41.92,47.14,83.04,86.78,105.13,15.54,8.66,32.1,14.67,50.15,15.04,18.87.39,37.15-2.46,55-8.07,27.35-8.61,52.69-30.63,69.7-53.49Z"/>
  <path class="cls-1" d="M683.99,475.63c1.03,3.61,1.82,6.76,3.28,8.04,1.61,1.4,6.58.76,7.82-1.43,7.61-13.4,6.44-32.48-5.64-43.1-10.38-9.13-25.37-8.13-37.75-6.32-10.97,1.6-20.35,3.84-29.14,11-14.82,12.06-30.5,21.55-48.96,28.14-32.2,11.5-65.3,16.42-99.74,16.27-42.03-.19-96.66-8.92-128.44-38.14-10.87-9.99-16.64-25-11.8-39.46,8.85-26.42,45.45-43.94,70.58-51.75,61.15-18.99,142.58-19.63,199.9,10.9,19.87,10.58,23.3,20.66,37,34.97,5.33,5.56,23.41-2.62,46.48,16.62,16.68,13.91,22.92,38.07,12.91,58.19-12.25,24.63-64.89,50.61-91.5,55.56l10.82-19.31c24.03-8.38,46.44-21.15,64.18-40.17ZM574.28,462.09c13.55-5.57,25.75-11.78,35.47-21.84,3.75-3.88,6.47-9.11,9.71-13.76,2.2-3.16,2.6-8.43.48-11.52-.66-.96-3.61-2.32-4.6-1.77-5.11,2.89-8.96,19.03-22.5,26.2-8.18-9.32-17.95-16.14-29.84-20.51-56.53-20.78-147.66-9.62-200.14,21.56-8.04-5.09-10.94-15.84-18.38-12.04-1.76.9-3.28,5.53-2.18,7.54,8.46,15.52,35.96,28.78,52.01,33.02,28.14,7.44,56.2,9.59,85.25,9.82,32.45.26,64.06-4.11,94.73-16.71Z"/>
  <path class="cls-1" d="M444.1,592.51c-51.26-21.1-88.79-77.09-103.76-129.7,42.77,32.83,104.54,39.9,155.45,37.1,47.25-3.24,102.39-15.82,137.58-50.07l-6.28,18.88c-9.88,29.71-24.46,57.04-44.41,81.31-7.9,9.62-16.86,17.63-26.54,25.16-18.93,14.72-41.33,20.82-64.99,23.16-16.23,1.6-31.12.72-47.06-5.84ZM414.52,512.29c1.81-1.23,2.75-5.09,1.79-6.98-3.69-7.23-17.87,1.54-23.38,16.44-1,2.71,1.43,6.71,3.91,7,8.1.97,4.55-7.49,17.69-16.47ZM549.76,510.91c-3.16-3.12-8.29-4.71-12.98-3.99-2.33.36-4.26,4.3-3.73,6.43.56,2.26,3.06,3.49,6.12,4.62,9.03,3.34,11.51,18.22,19.17,13.51,7.4-4.55-4.64-16.68-8.58-20.58ZM431.89,548.89c3.77-8.32,4.27-18.29-.84-25.62-3.11-4.46-12.42-4.3-15.65-.07-5.61,7.33-5.9,17.05-3.07,25.58,1.25,3.78,5.86,6.66,9.25,6.76,3.85.11,8.36-2.36,10.31-6.66ZM537.48,553.58c4.4-8.54,3.83-17.98-1.17-25.75-1.59-2.47-5.85-4.29-8.71-3.91-4.03.53-18.2,12.18-11.49,28.28,1.88,4.51,5.71,7.85,10.37,8.03,4.06.16,8.75-2.3,11-6.65Z"/>
  <path class="cls-1" d="M649.58,488.49c-7.51,4.86-13.22,7.56-22.07,11.06l6.99-17.84c5.23,1.92,8.51,3.31,15.08,6.78Z"/>
  <path class="cls-1" d="M581.54,445.66c-24.61,12.81-58.8,19.49-86.83,20.86-33.07.78-91.12-1.34-119.73-18.94,40.37-21.08,93.97-29.4,138.24-26.46,20.15,1.34,54.77,7.26,68.31,24.54Z"/>
</svg>