<?xml version="1.0" encoding="UTF-8"?>
<svg id="Layer_1" data-name="Layer 1" xmlns="http://www.w3.org/2000/svg" viewBox="0 0 1000 1000">
  <defs>
    <style>
      .cls-1 {
        fill: #b92323;
      }
    </style>
  </defs>
  <path class="cls-1" d="M492.53,490.78l36.24,37.39c21.88,22.58,38.46,50.52,41.26,82.33,1.81,20.53-4.23,39.52-16.84,55.6-11.3,14.4-26.24,25.57-44.66,28.85-22.48,4-44.56,2.76-67.22,2.11-20.82-.6-38.88-6.67-56.66-17-14.5-8.43-26.86-18.99-33.46-35.02-4.56-11.08-7.32-22.24-7.89-34.42-.28-6.05-1.33-11.83.03-17.95,1.96-8.8,3.4-18.12,8.07-26.01,3.07-5.18,10.3-7.26,15.45-9.28,2.32-.91,2.83-2.35,2.59-4.34-.61-5.11-7.81-1.82-10.61-2.48,15.26-22.28,29.4-41.94,52.83-56.36,8.04.9,15.49,3.41,23.62,3.71,15.37.57,29.92-.69,44.72-3.97,4.1-.91,7.75-.64,12.53-3.17ZM371.75,567.67c-4.83-2.34-10.38-2.69-14.5.71-5.22,4.31-7.12,11.51-5.94,17.94,1.09,5.95,5.38,9.49,10.78,11.19,7.01,2.2,13.13-.78,16.47-6.99,3.23-6.03.11-19.5-6.81-22.85ZM442.52,599.77l-22.4-.71c-3.95-.13-8.68,3.18-7.27,7.8,2.74,8.97,12.9,14.4,21.92,12.44,10.56-2.3,13.31-15.71,11.65-17.7-.66-.8-1.91-1.77-3.9-1.83ZM492.44,579.76c-6.59-2.34-12-.2-15.95,4.61-4.09,4.98-6.93,11.62-3.61,18.01,4.16,8.01,15.21,10.99,22.93,6.26,5.61-3.44,7.66-9.87,6.82-16.22-.69-5.21-4.29-10.57-10.2-12.67ZM517.11,581.12l-12.18-11.94c-2.81-2.76-12.68-10.32-15.12-4.38-.77,1.88-.02,4.13,2.15,5.19,12.6,6.15,20.45,23.67,25.88,17.06,1.23-1.5,1.18-4.03-.75-5.92Z"/>
  <path class="cls-1" d="M426.38,190.57l60.15,1.91c3.08.1,8.84,0,9.06-4.3l3.8-72.91c2.01-1.29,4.51-1.57,6.84-.91l-9.16,249.48c-7.06-.27-13.09-1.95-19.42-3.75-14.94-4.25-30.07-6.68-45.69-5.43-7.85.63-14.58,3.27-22.63,5.55-.23-8.81.01-17.14.13-26.02l.88-68.19.86-68.25.83-67.32.33-18.66c2.33-.75,4.35-.75,6.82.07l-1.3,74.22c.92,2.89,5.33,4.42,8.52,4.52Z"/>
  <path class="cls-1" d="M401.39,289.87l-1.21,72.76c-6.46,1.81-12.98,2.11-19.26,1.24-7.67-1.06-3.76-10.23-9.2-11.85-11.16-3.33-10.73-14.11-11.02-23.15l-6.96-218.15c11.84-6.26,24.67-9.5,37.94-11.86.45,6.95,5.38,10.53,12,11.01l-.66,45.22-.79,68.21-.85,66.56Z"/>
  <path class="cls-1" d="M548.18,312.22c-1.08,17.29.16,28.02-11.65,39.54-1.77,1.73-3.47,4.58-5.47,5.7-7.67,4.28-16.63,5.94-25.45,6.34l9.27-252c5.88-1.16,9.3-5.1,8.62-11.92,12.62,1.55,24.93,4.93,37.34,9.13l-12.65,203.2Z"/>
  <path class="cls-1" d="M675.86,629.72c4.84,44.55,8.67,80.76,3.64,125.02-2.33,20.55-4.8,40.21-10.85,60.04-10.47,3.21-21.53,1.92-31.75-2.37l-5.06-36.59c-2.94-21.25-1.54-42.33.77-63.65l4.1-37.67,8.49-63.82,3.03-23.94,22.97.22,4.65,42.76Z"/>
  <path class="cls-1" d="M564.14,62.87c4.77,12.28,5.11,25.22.78,38.15-46.08-15.61-105.93-18.51-153.71-13.72-19.87,1.99-45.07,6.44-63.04,16.43-5.68-11.2-5.55-32.39,1.93-42.38,45.9-13.35,106.27-15.33,153.42-11.41,18.56,1.55,43.21,4.94,60.62,12.92Z"/>
  <path class="cls-1" d="M536.32,863.92c1.59,12.44-.5,35.07-5.85,45.71-8.2.88-16,.86-24.4.75l-74.89-.99-36.71-3.14c-8.85-.76-16.93,1.77-23.95,7.9-12.11-12.9-10.45-39.48-6.68-55.5,9.39,4.43,18.87,6.73,28.86,9.45,22.23,6.06,44.19,9.81,67.37,10.53,20.84.64,40.7-2.42,60.24-9.17l16.01-5.53Z"/>
  <path class="cls-1" d="M511.12,773.41c-7.56,13.44-8.19,15.29-6.34,34.6.29,3.04,2.82,5.46,4.69,6.23,7.39,3.07,12.4-6.5,14.32-12.79-.17,5.25,1.53,9.41,7.11,10.04-.45,2.65-.13,6.65-1.79,9.05-8.8,4.53-17.84,9.51-27.95,11.02-17.33,2.58-34.53,4.12-52.21,2.83-24.31-1.76-47.43-8.18-70.14-16.26-1.9-.67-4.08-1.89-5.2-3.33l-8.56-60.4c9.81,5.57,18.86,9.11,29.56,11.42,38.38,8.28,78.18,8.25,116.64.39,10.52-2.15,19.56-5.62,28.93-10.74l-1.98,14.79c-11.08-.21-9.38,8.55-12.17,16.1.58-6.3-.23-16.72-7.72-16.8-2.46-.02-5.68,1.14-7.21,3.85ZM397.54,801.54c3.63-9.09,7.09-33.06-5.5-35.34-4.17-.76-7.83,1.4-10.35,4.87-4.61,6.34-4.24,13.86-2.96,21.41.92,5.41.87,12.08,6.11,15.32,4.69,2.9,10.59-.96,12.7-6.26ZM421.7,776.88c-1.81-3.12-4.71-4.89-8.11-4.57-10.24.94-9.52,17.89-9.18,25.05.25,5.35.15,19.03,10.03,18.14,11.78-1.06,12.4-29.72,7.26-38.63ZM438.35,772.53c-10.46.38-10.14,20.1-9.37,27.91.53,5.36,1.78,19.05,10.65,16.87,13.1-3.22,13.26-45.31-1.28-44.78ZM503.01,784.18c-.04-3.67-1.86-4.91-4.33-5.82-16.24-6.03-15.82,24.82-15.71,34.36.03,2.77,1.11,4.81,3.21,6.01,1.9,1.08,4.41.87,6.55-.71,10.56-7.77,10.4-21.22,10.27-33.83Z"/>
  <path class="cls-1" d="M490.89,112.41l-3.68,71.35-60.85-1.82,1.65-72.03c-.68-3-1-5.68-3.7-7.33-2.31,1.55-27.19,1.13-24.25-5.12,38.37-5.32,76.87-4.56,115.21.81,4.73,7.57-13.99,7.12-18.51,8.38-3.21.04-5.08,2.24-5.88,5.77Z"/>
  <path class="cls-1" d="M533.93,828.01c4.33,3.07.35,6.91,1.56,12.74.28,1.32,3.35,1.81,4.12,3.36,2.88,5.82-2.8,11.02-8.15,12.89-17.04,5.96-33.48,11.15-51.64,12.39-28.04,1.92-55.35-1.83-82.43-9.17-10.77-2.92-21.16-4.95-30.96-10.31-2.32-1.27-4.51-4.35-5.99-6.55-1.51-2.24-1.23-7.42.55-9.26,2.5-2.59,4.84-4,5.05-8.02.06-1.12.85-2.67,1.59-3.14,1.62-1.03,2.59,1.1,4.1,1.69,25.2,9.74,51.54,16.91,78.92,18.61,18,1.12,35.38-.64,52.95-3.2,10.87-1.58,20.17-7.62,30.33-12.02Z"/>
  <path class="cls-1" d="M683.52,896.64c.88,4.35,1.72,9.71-.12,13.14-5.22,7.4-15.86,4.31-22.58,7.82l-22.78,11.92c-13.15,6.88-27.32,9.8-42,13.21-23.84,5.55-47.33,9.34-71.99,9.09-31.66-.31-75.38-3.5-106.85-7.38-15.68-1.93-31.13-3.26-47-8.77,4.22-6.02,11.86-5.68,18.25-5.33l29.02,1.61c22.41,1.24,44.11,2.24,66.47,4.65,15.71,1.7,30.35,1.55,46.09,1.86,89.04,1.77,121.1-31.18,136.2-36.15l17.29-5.69Z"/>
  <path class="cls-1" d="M492.77,760.62l-.02-18.15c-3.31-2.1-6.02-6.31-9.96-7.75-11.41-4.18-23.38-4.88-35.49-5.72-11.22-.77-22.09,1.72-31.2,8.05-10.54,7.32-5.89,8.87-8.53,22.4-9.42-1.03-43.02-9.38-42.22-19.67.57-7.29,18.65-13.35,25.38-15.18,36.58-9.95,88.16-9.68,124.85.08,9.85,2.62,18.55,6.48,26.26,12.94,1.77,14.33-37.8,21.54-49.07,23Z"/>
  <path class="cls-1" d="M626.17,892.72l16.42,1.92c4.88.57,9.58.35,14.25,3.97-25,17.48-69.22,28.58-99.21,30.36-21.62,1.29-42.52,1.31-64.28-.43-26.93-2.15-52.86-3.72-79.63-5.4l-23.59-1.48c-5.4-.34-10.47-.46-15.25.87,4.11-4.98,9.35-7.12,15.2-7.42,11-.56,35.35,3.3,51.25,3.41l58.81.39c30.49.2,100.01-.33,118.75-28.59l7.28,2.41Z"/>
  <path class="cls-1" d="M526.58,368.25c-1.91,6.11-6.48,9.97-11.25,13.7-15.21,11.9-15.34,8.49-34.84,9-24.08.63-47.58-.05-71.59-1.17-3.48-.16-6.17,1.23-9.57-1.14-6.13-4.29-12.29-9.15-17.2-15.33,4.41-1.1,8.72.1,13.18-.7,8.59-1.53,16.71-3.89,24.94-6.6,17.74-5.84,38.58-2.14,56.32,2.77,16.32,4.68,32.69,4.92,50.01-.54Z"/>
  <path class="cls-1" d="M493.79,446.93c1.6,5.88,1.01,11.02,1.33,16.91.31,5.69,1.35,11.02.41,16.68-25.37,10.18-52.88,12.06-79.24,5.27-3.81-12.1-4.28-24.32-.35-36.7,3.77,2.85,7.77,3.33,12.06,4.37,19,4.64,38.14,3.96,57.02-1.19,3.5-.96,6.47-1.28,8.78-5.34Z"/>
  <path class="cls-1" d="M681.6,549.19c-5.17,9.67,6.65,11.63,3.31,21.14-3.26,9.27-13.41,8.43-20.23,8.41-8.43-.01-17.74.56-25.2-3.36-5.7-3-5.02-11.16-1.11-14.74,3.11-2.85,2.06-6.99-.48-9.3-2.76-2.5-4.03-5.67-3.7-9.32.24-2.66,2.34-6.32,5.69-7.44,12.48,8.08,28.07,7.9,41.32,1.14,2.07-.38,4.32,4.34,3.74,6.22-.77,2.49-2.1,4.92-3.34,7.23Z"/>
  <path class="cls-1" d="M493.19,398.69c.83,6.06.23,11.49-1.19,17.17-23.89,6.75-48.67,6.01-72.56.23-2.19-5.77-2.83-11.13-2.82-17.15l76.57-.25Z"/>
  <path class="cls-1" d="M490.41,436.59c-.78,4.08-3.75,7.12-7.17,7.98-20.38,5.08-41.76,5.82-61.41-2.45-5.36-2.26-1.44-15.64,3.96-15.08,19.85,2.03,38.51,3.39,58.33-.85,3.45.82,7.01,6.59,6.28,10.41Z"/>
  <path class="cls-1" d="M667.26,498.6c-4.49.92-8.24.76-13.09-.25,1.21-5.6,1.18-10.83,1.41-16.64.31-7.52-4.2-14.29-12.33-14.53l-53.49-1.61c-3.46-.1-5.86-1.79-5.71-5.31.12-2.88.48-5.86,2.28-8.33l38.36,2.36c7.89.48,15.06,1.26,22.77,3.08,9.36,2.2,17.61,9.03,19.5,18.77,1.41,7.29.38,14.35.31,22.47Z"/>
  <path class="cls-1" d="M428.76,743.76c-2.82-1.04-4.73.42-7.39.49,11.48-10.17,38.66-6.76,53.07-3.7,3.74.8,8.9,2.29,9.96,6.62,1.12,4.55.02,9.4.21,14.46-22.83,2.29-45.33,2.13-68.07-.8-.94-4.96-.31-9.5.63-14,1.31-.89,2.9-1.84,4.59-2.48-.02,2.15-.65,3.43.23,5.2.49.98,1.85,1.67,3.59,2.2,16.83,5.2,34.54,4.92,51.23-.64,2.18-.73,2.56-3.59,1.99-5.11-.67-1.77-2.65-2.78-4.96-2.12-14.79,4.25-30.05,4.79-45.07-.13Z"/>
  <path class="cls-1" d="M549.46,450.56l-.06,17.65c-6.28.74-12.29.64-18.53.43-11.69-.38-11.96,10.55-26.12,10.19l-1.78-35.78c5.42.55,8.46,3.66,12.59,5.47,10.66,4.68,21.26,1.47,33.9,2.04Z"/>
  <path class="cls-1" d="M676.7,872.75c2.92,4.95,4.63,9.77,6.71,15.28-6.36,3.15-12.98,5.04-20.18,6.06-5.95-10.59-35.76-5.94-40.11-12.42-.78-4.01,3.53-8.02,5.63-11.3,7.94,7.39,27.62,4.57,38.54,4.12,3.07-.13,5.66.2,9.41-1.74Z"/>
  <path class="cls-1" d="M676.4,831.65c.66,2.67-1.53,8.69-4.48,9.42-11.44,2.85-27.04,1.13-37.49-4.11-2.77-1.39-6.36-5.83-6.75-8.72-.49-3.63,3.52-6.58,6.13-7.67,12.48,4.13,25.04,5.75,37.56,1.77,1.75,3.03,3.98,5.09,5.03,9.31Z"/>
  <path class="cls-1" d="M606.57,890.74c-16.58-12.18-40.9-14.74-61.22-15.26l-.29-12.44c17.74,1.04,34.47,3.59,50.7,9.27,5.5,1.92,10.13,4.71,14.03,8.98,2.29,2.51.65,9.91-3.21,9.46Z"/>
  <path class="cls-1" d="M676.59,848.43c1.71,2.05,2.37,4.29,2.74,6.93-2.04,4.03-4.93,7.35-8.18,10.64l-15.78.6c-6.41.24-12.28.44-18.56-1.32-3.56-3.14-7.22-7.02-8.19-11.92-.51-2.61,1.83-5.34,2.71-7.61,13.17,3.4,14.28,5.37,28.32,4.86,5.66-.2,10.94.23,16.95-2.2Z"/>
  <path class="cls-1" d="M674.89,506.45c.9,7.95,1.35,15.27.27,23.08-9.73,4.65-21.11,4.2-30.09-1.73l-.1-22.68c9.98,2.3,19.01,3.2,29.92,1.33Z"/>
  <path class="cls-1" d="M578.63,851.41c9.04.18,38.81,3.85,44.12,13.34l-6.83,10.3c-12.88-15.06-49.73-18.47-68.93-19.96-.89-1.13.06-2.62.64-3.4.95-1.28,3.15-.82,4.54-.79l26.46.51Z"/>
  <path class="cls-1" d="M355.06,859.76c-.98,6.8-1.81,12.97-2.01,19.92l-32.6-.29c5.48-7.78,13.07-12.7,21.57-15.84,4.23-1.31,7.86-2.75,13.04-3.78Z"/>
  <path class="cls-1" d="M351.86,846.92c1.4,1.44,2.13,2.53,2.68,4.38l-13.06,3.82c-10.63,3.11-19.43,9.07-26.71,17.28-3.47-16.62,25.28-23.54,37.09-25.47Z"/>
  <path class="cls-1" d="M561.39,436.31l.21,36.9c.01,2.48-.36,9.39-3,9.02-.39-.06-1.07-.45-1.06-1.4l.42-44c.01-1.1,2.39-.92,3.43-.52Z"/>
  <path class="cls-1" d="M517.31,779.07c1.42,8.49-.9,16.9-4,25.44-1.61-8.39-1.15-17.4,4-25.44Z"/>
  <path class="cls-1" d="M575.89,455.68c.47,1.8.24,3.46-.12,5.13-1.98.24-3.45.29-5.41.07-.35-1.52-.21-2.87-.15-4.84,1.59-.48,3.01-.33,5.68-.36Z"/>
  <path class="cls-1" d="M532.72,802.91c-3.35.89,2.69-20.92,3.07-21.9.1,7.62-1.98,14.17-3.07,21.9Z"/>
  <circle class="cls-1" cx="536.4" cy="779.46" r=".54"/>
  <path class="cls-1" d="M437.02,607.59c-.19,2.01-2.1,3.44-4.3,3.85-3.83.72-7.43-1.01-9.77-3.8,4.89-.5,8.72-.27,14.07-.06Z"/>
  <path class="cls-1" d="M438.87,805.92c-1.99-4.18-1.08-8.42-1.64-12.88-.49-3.92-1.07-7.7,1.61-11.11,3.01,7.85,2.83,16.13.03,23.98Z"/>
  <path class="cls-1" d="M389.78,774.46c4.13-2.64,3.35,19.93-.73,24.64-2.28-4.64-3.54-21.92.73-24.64Z"/>
  <path class="cls-1" d="M414.7,781.08c2.89,8.08,2.36,16.38-.58,24.21-2.33-5.48-.95-10.79-1.04-16.45-.04-2.68-1.11-5.68,1.61-7.76Z"/>
  <path class="cls-1" d="M494.76,787.29c.98,6.79.02,14.09-3.58,20.32.78-6.78.47-13.08,3.58-20.32Z"/>
</svg>