<?xml version="1.0" encoding="UTF-8"?>
<svg id="Layer_1" data-name="Layer 1" xmlns="http://www.w3.org/2000/svg" viewBox="0 0 1000 1000">
  <defs>
    <style>
      .cls-1 {
        fill: #b92323;
      }
    </style>
  </defs>
  <path class="cls-1" d="M520.9,583.74c-37.35,8.29-75.4,8.61-112.76-.21l-9.48-205.62,40.23-.76,99.72-.79-17.71,207.38Z"/>
  <path class="cls-1" d="M513.17,878.83c-39.81,7.72-81.11,8.41-122.07.89l16.22-184.83c19.76-20.73,73.25-14.41,98.45-4.01l7.41,187.95Z"/>
  <path class="cls-1" d="M395.28,579.81c-22.44-4.37-65.88-28.32-76.23-46.61-4.72-8.34-4.19-18.08-7.22-27.33l-28.64-161.69c34.45,12.7,67.26,23.66,102.86,31.56l9.23,204.07Z"/>
  <path class="cls-1" d="M525.61,876.37l-7.21-184.63c11.58-21.04,52.46-31.96,73.35-28.72l22.13,182.07c-27.78,13.86-56.11,24.38-88.27,31.29Z"/>
  <path class="cls-1" d="M378.73,876.75c-26.02-5.26-49.75-15.46-73.68-29.2l24.43-185.83c2.61-2.21,7.56-2.1,10.62-1.57,21.22,3.72,39.68,13.95,55.09,29.66l-16.45,186.94Z"/>
  <path class="cls-1" d="M203.77,467.43c5.02,22.04,13.27,39.75,37.96,40.18,7.08.12,13.85-1.57,21.69.09-2.16,10.37-9.35,19.08-18.13,24.76-11.22,7.26-43.39-15.26-46.74-21.16-11.57-20.41-19.49-41.67-28.32-63.25l-41.84-102.26c-7.79-19.03-13.78-27.27,1.21-47.22,13.63-18.14,29.99-33.57,47.7-47.49,6.49-5.1,13.11-6.27,20.71-3.37,6.44,2.46,13.4,3,19.85,6.43-8.68,8.64-16.14,10.56-13.36,27.38l5.09,30.83c-5.47-.54-9.08-4.69-14.17-6.02-8.35-2.18-16.56.93-18.39,9.55-5.2,24.48,7.38,66.58,13.34,92.73l13.4,58.81Z"/>
  <path class="cls-1" d="M600.34,597.74c-13.16,13.19-28.25,22.58-45.58,29.53-51.06,20.46-106.92,23.73-160.17,9.99-17.71-4.57-33.34-11.39-48.24-21.34-9.11-6.58-16.95-13.96-22.62-23.64l-4.28-38.97c72.03,64.38,207.02,64.87,283.92,7.02l-3.04,37.41Z"/>
  <path class="cls-1" d="M605.61,541.29c-20.52,19.25-45.02,31.1-71.84,39.09l17.8-208.14,82.79-35.58-9.62,122.52-19.12,82.11ZM601.78,375.84c.13-1.8-.23-6.11-3.43-6.46-24.6-2.71-49.12,18.32-39.88,26.89,2.58,2.39,6.57,2.19,9.04-1.05,14.29-18.76,33.58-9.58,34.27-19.38ZM583.54,483.75c8.37-.3,15.21-6.05,19.29-12.77,17.83-29.36,11.58-75.28-11.57-79.04-6.96-1.13-12.97,1.71-17.86,6.52-24.05,23.67-18.93,86.32,10.13,85.28Z"/>
  <path class="cls-1" d="M488.32,364.22l-86.6,1.31,47.44-107.75,15.97-2.35,69.23,108.04c-15.25,1.42-29.82.5-46.04.74Z"/>
  <path class="cls-1" d="M388.34,364.38c-32.88-8.02-64.1-17.63-97.15-31.31l138.52-74.03c1.58-2.58,3.01-4.98,6.31-2.94l-47.68,108.27Z"/>
  <path class="cls-1" d="M593.63,651.06c-25.22-1.35-49.69,4.01-70.37,17.69-5.08,3.36-8.36,8.12-14.14,10.68-27.79-10.43-80.2-17.42-105.77,2-18.8-19.25-49.25-36.97-76.74-33.08-2.99-14.56-10.2-27.02-20.27-36.57-.09-3.93,4.89-8.55,8.9-8.84,19.54,27.48,55.93,43.05,88.35,49.53,50.24,10.04,102.12,6.76,150.07-11.09,21.53-8.02,40.23-19,56.47-35.48,4.56,4.99,8.44,9.64,12.16,14.95-11.45,8.33-20.23,17.84-28.67,30.22Z"/>
  <path class="cls-1" d="M621.39,327.94l-74.12,32.31-69.38-108.54c-.9-1.4,2.9-4.28,4.24-4.25,1.38.03,3.57-.19,5.44,1.63l133.82,78.85Z"/>
  <path class="cls-1" d="M625.71,836.34l-21.95-178.51c6.27-10.1,13.35-18.65,23.74-26.04l24.28,173.95-26.07,30.59Z"/>
  <path class="cls-1" d="M724.88,348.66l-85.66,92.53,7.84-106.42,41.84-1.4c9.81,8.18,20.62,12.04,35.98,15.29Z"/>
  <path class="cls-1" d="M274.77,327.07l-3.41-43.45,47.34-21.88,100.94-15.91c1.49-.24,2.14.72,2.4,1.18.6,1.07.19,1.91-1.52,2.73l-145.74,77.33Z"/>
  <path class="cls-1" d="M621.56,267.07c23.4,4.14,6.12-3.27,34.83,14.02l-26.99,36.9-118.32-70.45,110.48,19.53Z"/>
  <path class="cls-1" d="M294.91,826.77l-17.28-30.47,24.71-170.9c10,10.5,13.61,23.2,14.4,36.74l-21.83,164.62Z"/>
  <path class="cls-1" d="M448.78,244.58c-5.17,1.54-16.16-.11-17.71-6.66l-16.15-68.33c8.54.2,28.64,14.92,30.53,2.54,1.39-9.05-17.83-9.64-25.45-15.73l32.49-14.56,35.03,13.41-29.18,11.28c-2.24.87-4.51.91-5.89,3.05-1.02,1.59-.68,3.57-.62,6.16.62,23.06-1.23,45.29-3.06,68.84Z"/>
  <path class="cls-1" d="M258.76,286.73l3.32,46.07-37.15-7.65-7.83-47.01c7.93-1.32,15,2.07,22.46,4.18,6.19,1.75,12.47,1.35,19.2,4.4Z"/>
  <polygon class="cls-1" points="262.62 273.85 224.08 264.66 253.12 243.32 307.94 252.51 262.62 273.85"/>
  <path class="cls-1" d="M461.29,243.72l1.31-27.39c.63-13.19,1.57-25.66,1.09-38.77,8.71-3.78,16.08-7.69,26.13-9.42l-15.58,69.84c-2.37,3.57-8.13,5.06-12.95,5.74Z"/>
  <path class="cls-1" d="M685.79,320.54c-14.6.69-28.27,2.18-43.04,1.19l24.81-33.98c8.43,5,15.57,10.51,23.63,16.79-3.99,4.84-6.15,8.76-5.4,16Z"/>
  <path class="cls-1" d="M591.27,241.55c6.61.85,11.13,7.34,16.19,9.68l-97.82-17.81c-7.36-1.34-14.09-1.04-21.71-3.82,7.31-1.83,13.75.4,20.66,1.29l82.69,10.65Z"/>
  <path class="cls-1" d="M324.7,247.67c7.58-6.11,17.1-7.91,25.78-12.42l63.6-4.85c1.01-.08,1.72.54,1.89.89.21.44.16,1.12.2,2.51l-91.46,13.86Z"/>
  <path class="cls-1" d="M729.54,336.14c-10.16,1.12-36.22-5.95-31.21-22.19,11.6.13,23.22,12.45,31.21,22.19Z"/>
  <circle class="cls-1" cx="321.86" cy="248.17" r=".86"/>
  <circle class="cls-1" cx="510.13" cy="246.81" r=".68"/>
  <path class="cls-1" d="M771.95,253.15c-11.28,4.58-21.8,18.42-33.37,26.65-3.04-8.9-4.82-18.25-6.38-28.06-1.87-11.76-20.02-14.29-33.95-32.73-24.05-31.84-6.12-68.48,24.99-86.69,33.91-19.85,75.51-22.82,111.89-8.03,14.14,5.75,25.91,14.29,34.6,26.37,12.17,16.94,13.15,37.98,2.82,56.1-18.97,33.28-63.75,47.96-100.6,46.38ZM842.38,144.18c2.89-1.83,3.16-5.43,1.83-8.02-2.94-5.71-11.94-2-16.42,2.74-2.07,2.19-1.6,5.68-.27,7.43,3.81,5.02,10.62.54,14.87-2.14ZM800.09,188.5c-1.37-7.43-10.37-3.77-14.22-4.91-.07-6.92.48-13.2,1.3-20.01,6.1-3.4,20.62-2.1,18.47-11.74-.79-3.54-4.7-5.57-8.86-4.23-6.6,2.12-13.95,2.29-19.93,5.89-3.94,2.37-2.41,8.38-2.68,12.47-1.18,17.53-3.48,34.2-2.69,51.63.2,4.36,2.95,7.14,6.47,7.15,10.79.05,4.64-17.97,6.89-26.57,4.91-2.51,16.85-.96,15.25-9.68ZM757.05,161.18c-1.42-5.03-5.2-7.71-9.11-7.47-15.57.94-12.51,53.16-19.01,65.76l-1.79-8.02c-.95-4.25-12.66-1.3-14.93-12.07-1.94-9.19-2.04-19.07,2.6-27.18,1.41,5.33,1.75,9.63,7.33,9.09,9.08-.87,5.76-16.29,2.74-21.71-2.13-3.81-5.58-6.14-9.47-5.92-15.51.89-20.01,33.06-15.73,50.48,2.45,9.96,10.53,16.44,20.51,17.64,3.38.41,4.98-1.32,8.21-3.43-.04,4.84.33,8.05,3.97,9.54,2.31.94,5.79.09,7.7-2.81,7.15-10.85-.76-18.95,10.47-17.88,4.2.4.25,12.4,9.8,12.4,3.74,0,7.06-2.76,6.46-7.52-2.15-17.1-4.96-33.87-9.76-50.9ZM820.7,198.23c6.14,1.07,10.26,1.15,14.88.29,4.1-.76,5.85-3.88,5.32-7.34-1.28-8.32-14.31-3.05-19.23-5.91.72-6.76,2.04-12.5,4.08-18.44,2.94-1.11,5.85-.82,8.59-2.06,3.38-1.52,4.36-4.8,3.8-7.4-.84-3.91-4.51-3.73-7.71-4.09-9.73-1.09-15.63,3.38-18.1,12.59-4.16,15.5-5.53,31.43-7.8,47.64-2.42,17.25,27.24,8.85,34.7,5.11,3.44-1.73,5.06-5.92,3.63-8.64-4.97-9.46-13.77.61-23.75-.25-.53-4.32-.12-8.17,1.6-11.5Z"/>
  <path class="cls-1" d="M598.56,441.26c.12,7.52-7.65,29.83-16.13,28.38-12.27-2.11-12.55-40.02-5.75-50.92,2.97,12.54,6.84,22.82,21.88,22.54Z"/>
  <path class="cls-1" d="M750.05,192.7c-.58,1.89-2.36,1.46-3.39.32,1.6-3.75.17-6.91,1.19-10.91,1.76,2.89.49,6,2.19,10.59Z"/>
</svg>