<?xml version="1.0" encoding="UTF-8"?>
<svg id="Layer_1" data-name="Layer 1" xmlns="http://www.w3.org/2000/svg" viewBox="0 0 1000 1000">
  <defs>
    <style>
      .cls-1 {
        fill: #b92323;
      }
    </style>
  </defs>
  <path class="cls-1" d="M839.24,256.37c9.7-23.03,11.57-59.15-5.75-81.13l59.25,18.25c1.17,6.59,1.61,12.66,1.47,19.6l-30.93-6.17c-3.83-1.13-9.68,2.18-9.61,7.53l2.43,168.35-247.09-11.69,1.35-128.59.91-93.78c-.61-3.88-2.55-6.4-6.1-6.51-2.97-.09-6.61,2.19-6.65,6.66l-1.22,135.46-1.02,85.88c-7.3.72-13.1-1.1-20.36-.86l-324.76,10.63,1.59-149.75.7-65.44,294.98-48.62c13.41-2.21,25.43-5.33,39.05-4.85,19.84.69,40.34-.69,59.53,5.27l117.83,36.59c-29.58,24.55-27.09,72.88-18.55,104.3,4.22,15.52,13.21,28.53,26.51,37.22,6.36,4.16,13.8,4.54,21.22,1.23,10.58-4.73,11.43-19.15,12.68-20.06,3.67-2.67,23.47,2.02,32.54-19.51ZM479.36,158.65l-174.24,20.85c-2.86.34-4.09,2.96-6.24,3.85-12.99,5.36-22.92,14.43-29.36,27.14-18.98,37.45-1.58,88.07,41.71,98.81l165.78-14.12c13.9-4.6,24.41-12.68,33.04-24.27,17.27-24.42,19.74-56.82,5.08-83.03-7.88-14.11-19.58-24.62-35.77-29.21Z"/>
  <path class="cls-1" d="M722.99,391.78l.17-2.43,32.84,1.94,4.63,370.83-331.85-42.58,5.16-200.28c6.49-.51,11.53-2.26,17.01-1.22.25,4,.72,7.37,2.63,9.38,3.68,3.89,10.18,1.84,21.66,4.63,9.32,2.26,20.4-15.53,27.47-11.38l12.41,7.28c10.11.69,20.84-.58,30.54-2.68,20.63-4.46,11.17-27.94,12.52-41.57l13.91-8.47,3.93-38.16c2.94-1.84,5.47-4.12,5.61-8.4l1.42-46.07,65.3,3.31c.69,19.41-.19,39.92,24.09,42.18-.77,9.06-7.12,44.73,2.66,49.18l4.31,169.99c.38,15.12,25.96,17.6,40.07,9.89,5.71-3.12,9.27-7.18,9.14-14.15l-2.92-163.41c9.21-3.57,5.85-12.26,7.79-18.74,3.5-11.68,20.2-26.79,7.71-55.27-3.59-8.2-9.79-12.72-18.22-13.8ZM487.45,569.97c-3.7-2.13-9.49-4.69-13.46-4.11-7.34,1.08-9.57,9.17-9.41,15.8-5.5,12.08-3.55,41.4,12.5,40.62,18.16-.87,13.26-39.86,10.38-52.31ZM499.44,548.66c-2.41-2.98-5.83-3.1-8.2-1-2.39,2.12-2.88,5.48-.48,8.58,5.31,6.85,11.62,13.01,18.46,18.39,2.19,1.73,6.26.65,7.55-1.16,4.53-6.39-7.41-12.56-17.32-24.82ZM598.69,623.06l-68.12,1.82c-6.86.18-14.56,2.31-18.72,8.09-6.65,9.22,13.42,36.82,39.86,40.8,41.92,6.31,64.49-39.31,55.39-49.6-2.04-2.3-4.84-1.2-8.41-1.1ZM620.89,541.7l-16.74,21.96c-1.86,2.44-1.58,5.49-.38,7.45,1,1.62,6.12,3.24,7.84,1.11,6.9-8.52,14.3-16.53,20.35-25.75,1.69-2.57,1.45-6.12-.12-8.56-.95-1.48-3.57-2.13-6.36-1.5-1.7.38-2.67,2.76-4.59,5.29ZM640.44,574.33c-1.78-3.21-4.74-5.19-7.96-5.13-3.21.06-6.09,1.92-7.97,4.95-5.69,9.19-4.66,19.48-3.05,29.7.35,2.25-.73,26.94,14.38,25.24,18.66-2.1,11.39-42.52,4.59-54.76Z"/>
  <path class="cls-1" d="M657.68,811.9l248.21-81.94,7.73,75.58-239,93.92c-54.18,18.27-80.63,26.87-137.39,17.14l-52.65-9.02-257.05-53.1c-3.17-.66-3.85-3.9-3.62-6.42l6.64-72.31c4.1,3.86,6.94,4.49,11.91,5.27l240.75,37.68c4.91.77,7.37,4.15,13.04,4.03,22.9-.47,32.04,7.94,75.16,2.99,21.62-2.48,42.71-4.23,63.86-8.82,7.81-1.69,14.39-3.74,22.42-5Z"/>
  <polygon class="cls-1" points="836.48 394.62 850.77 734.86 773.31 760.14 768.63 391.57 836.48 394.62"/>
  <path class="cls-1" d="M651.6,800.7c-11.11,3.18-20.95,5.42-31.68,7.12l-54.72,5.91c-19.73,2.13-38.74,1.07-58.23-4.18l-265.77-41.49c-3.05-1.55-5.66-2.57-4.85-6.5l181.16-30.83,319.43,41.26-85.34,28.71Z"/>
  <path class="cls-1" d="M142.87,459.02l315.9,11.26c6.98,10.7,6.73,23.67-1.39,33.55l-314.63,34.04c-.25-4.41,3.2-7.95,3.99-12.34l4.19-27.8c1.77-13.27-1.18-24.94-8.06-38.71Z"/>
  <path class="cls-1" d="M887.85,361.42l1.21,63.51,1.3,69.09,1.28,64.13,1.18,56.44c-14.32-2.26-19.09-6.03-34.78-7.05l-8.85-211.82c3.98-.66,7.73.13,11.92.03,4.48-.11,7.76-2.89,7.68-7.86l-2.47-149.4c5.73-4.18,12.18-6.18,19.3-6.59l1.09,67.27,1.14,62.27Z"/>
  <path class="cls-1" d="M636.75,86.97l254.46,84.23c.93,3.16,1.66,6.11-.42,8.53l-237.05-74.83-39.25-4.6c-24.65-2.89-47.35-.21-71.7,3.83l-288.75,47.84c2.69-12.19,12.96-18.05,24.32-20.14l256.88-47.42c35.25-6.51,54.91-6.29,89.55-1.83,4.73.61,6.81,2.68,11.96,4.39Z"/>
  <path class="cls-1" d="M569.91,381.94c.41,14.55.23,28.18-1.34,42.52l-139.98-.51-2.48-37.09,143.81-4.92Z"/>
  <path class="cls-1" d="M560.9,468.19c-24.22,16.78-60.59,15.94-86.75,7.21-2.49-5.98-4.83-16.05-11.6-17.58-8.06-1.83-17,1.54-25.35-1.37-.24-6.4-.73-13.18-.28-19.94l125.86.48-1.88,31.21Z"/>
  <path class="cls-1" d="M714.47,550.14l1.11,72.16c.12,7.93,1.22,15.32.3,23.33-6.94,5.12-16.39,5.62-24.2,1.59l-3.74-166.85,24.9,1.49c1.72,22.9,1.26,44.62,1.62,68.28Z"/>
  <path class="cls-1" d="M116.66,459.09c19.98,1.79,24.41,24.41,22.01,41.11-1.91,13.35-2.17,39.44-19.13,36.42-8.52-1.52-17.14-1.42-25.65-4.26-5.14-7.81-7.02-17.32-7.48-26.91-.49-10.09,4.94-41.93,14.81-47.24,4.77-2.56,10.48.44,15.44.88Z"/>
  <path class="cls-1" d="M894.1,682.63l.41,37.54-31.43,10.4-3.55-89.17c11.11-.18,21.16-2.93,33.27-6.48l1.3,47.72Z"/>
  <path class="cls-1" d="M706.99,408.98c3.97-4.27,14.23-7.42,19.02-3.14,13.84,12.4,7.64,36.72-5.01,49.19-1.89,3.62.41,8.83-.96,13.16-12.46,1.82-24.73.78-37.5-1.63-.94-15.47-.93-42.94,11.55-56.05,7.28,12.34,9.05,26.24,10.9,39.93.44,3.27,5.3,3.56,7.22,2.84,9.71-3.65-1.87-34.48-5.22-44.31Z"/>
  <path class="cls-1" d="M807.39,182.17c-12.4,21.29-14.59,59.63-1.58,81.57-6.16.56-11.83.98-17.91.07-16.69-19.97-15.31-62.14-.57-82.93,6.77-1.22,12.93-.5,20.06,1.29Z"/>
  <path class="cls-1" d="M545.87,488.35c1.09,6,5.26,24.89-3.92,25.59-7.37.56-15.83,3.19-23.36,1.24-5.91-1.53-15.58-18.1-40.97,3.75-4.74-.2-8.91-.76-13.54-1.64,1.68-10.31,9.66-10.19,11.21-28.11,23.47,5.24,46.81,6.73,70.58-.83Z"/>
  <path class="cls-1" d="M777.68,172.88c-18.04,24.95-19.37,68.77-3.12,94.19,4.33,6.78,10.06,10.36,19.16,8.77.52,3.74-1.6,6.98-3.63,8.59-10.64,8.43-27.48-13.77-31.53-29.36-6.27-24.16-9.33-58.39,4.21-80.22,4.91-7.92,14.27-17.13,22.33-12.57,1.63.92,3.17,3.24,3.7,6.23-4.82-1.43-8.3.48-11.12,4.38Z"/>
  <path class="cls-1" d="M827.99,189.13c8.97,21.52,8.18,46.48-2.58,66.8-1.07,2.01-3.19,3.3-4.5,3.52-2.11.36-4.1-1.72-5.18-3.88-13.09-26.28-2.3-70.67,7.67-70.13,1.7.09,2.62,1.65,4.58,3.7Z"/>
  <path class="cls-1" d="M723.17,389.34l-.17,2.43c-8.62-1.11-16.54,2.17-23.24,5.91-9.24-6.77-16.1,3.38-20.15-.67-2.32-2.33-.88-6.9-.67-9.96l44.24,2.28Z"/>
  <path class="cls-1" d="M660.12,386.36c16.91-3.4-4.18,19.12,19.4,23.35-.7,1.42-.76,4.81-3,5.77-4.13,1.77-11.04-.26-13.07-4.65-3.7-7.98-3.29-16.53-3.33-24.47Z"/>
  <path class="cls-1" d="M859.54,620.02c8.66-.35,16.96,2.53,24.32,5.33-9.41,2.43-15.85,4.48-24.13,3.81-1.02-2.15-1.95-6.71-.19-9.15Z"/>
  <path class="cls-1" d="M819.28,170.39c-4.52.26-19.61,1.04-16.35-4.93l16.35,4.93Z"/>
  <path class="cls-1" d="M504.35,194.49c23,43.1-10.28,86.16-30.91,87.98l-159.21,14.02c-9.34-1.96-16.92-5.86-23.49-12.77-17.65-18.57-21.3-46.59-9.02-69.15,5.24-9.62,13.29-16.32,23.4-19.93,2.11-.75,3.53-2.94,5.94-3.23l167.63-20.08c11.28,4.78,19.69,11.97,25.66,23.16ZM323.24,246.85c-.38-6.52-5.78-10.49-10.38-11.58-5.61-1.34-10.77,1.24-14.06,5.62-3.96,5.27-2.32,11.28,2.54,15.09,4.42,3.47,8.83,5.37,14.37,2.93,3.81-1.67,7.89-5.77,7.53-12.06ZM342.07,231.97c-6.47,2.09-10.1,5.68-10.35,11.17-.24,5.33,1.8,10,7.02,12.55,5.76,2.82,12.15,1.79,17.37-2.06,3.89-2.87,7.89-8.43,6.09-14.44-2.51-8.36-12.3-9.73-20.13-7.21ZM387.02,225.41c-8.64,0-14.36,6.6-13.95,13.85.39,6.93,6.19,12.06,13.63,12.59,7.8.55,14.6-5.17,14.95-12.67.34-7.32-5.98-13.78-14.63-13.77ZM438.52,231.98c-1.18-9.65-11.22-12.84-18.78-9.89-6.59,2.57-10.19,11.84-5.82,18.62,3.35,5.19,9.91,6.34,15.22,4.43,4.69-1.68,10.22-6.28,9.38-13.16ZM475.44,221.84c-5.3-4.47-12.58-2.11-16.67,1.11-4.45,3.5-7.3,9.56-4.96,15.48,3.03,7.66,14.54,9.84,19.89,4.43,5.95-6.01,8.74-15.11,1.74-21.01Z"/>
  <path class="cls-1" d="M596.38,634.97c-4.67,15.41-18.45,25.84-34.95,27.09-15.48,1.17-31.22-9.32-37.86-23.77,25.05-3.28,48.39-3.2,72.82-3.32Z"/>
</svg>