<?xml version="1.0" encoding="UTF-8"?>
<svg id="Layer_1" data-name="Layer 1" xmlns="http://www.w3.org/2000/svg" viewBox="0 0 1000 1000">
  <defs>
    <style>
      .cls-1 {
        fill: #b92323;
      }
    </style>
  </defs>
  <path class="cls-1" d="M577.04,574.13c-6,1.09-6.69,3.81-8.13,8.7-2.55,8.66-7.48,16.64-11.7,24.82-10.99,21.28-25.29,38.34-44.46,54.13-37.8,11.54-104.96,12.53-140.99-8.44-52.8-54.78-78.29-173.07-78.62-245.95-.07-15.27,12.18-28.88,22.81-38.26,17.53-15.48,38.28-24.48,61.13-30.44,52.92-13.81,109.16-10.82,160.59,7.67,32.63,11.73,71.51,36.01,78.64,72.26,2.48,12.62,17.05-1.64,39.33,2.6,12.01,2.29,23.68,7.34,33.33,14.68,12.12,9.22,17.33,24.05,17.84,38.92.47,13.52-3.5,24.89-11.33,35.84-27.76,38.84-72.02,55.01-118.44,63.48ZM568.77,467.47c26.06-15.15,40.13-52.13,25.26-72.19-8.66-11.69-18.01-21.27-30.53-28.66-48.72-28.74-117.11-33.02-171.43-21.36-29.38,6.31-64.03,20.12-81.31,45.45-19.08,27.97-3.36,57.3,22.16,74.42,16.35,10.97,33.96,18.18,53.42,22.99,58.85,14.53,128.97,10.44,182.44-20.65ZM593.11,546.92c19.45-4.63,37.98-11.59,52.95-23.89,15.72-12.91,28.17-27.42,37.52-45.27,6.93-13.23,2.37-32.09-12.6-37.13-25.17-8.47-54.03,15.06-65.53,35.31-7.86,13.85-13.23,28.67-15.89,44.48-1.27,7.54-3.9,14.92-6.3,22.65-.06,2.58,6.2,4.72,9.85,3.85ZM377.82,546.6c3.69.08,6.46-.04,8.24-.64,1.49-.5,2.74-5.43,1.71-6.64-12.55-11.23-32.55-10.93-44.76.95-3.26,3.17-3.72,8.64-1.05,11.93l6.85.64c-.73,9.74.3,19.64,8.16,26.24,3.11,2.61,8.87,3.83,12.41,2.3,12.4-5.38,9.76-25.55,8.45-34.78ZM522.61,563.32l9.3,3.19c1.75.6,5.73-1.66,6.37-3.73.54-1.77-1.02-5.3-2.75-6.17l-12.63-6.37c-20.75-10.47-47.36-.4-42.25,8.35.84,1.44,4.64,3.25,6.31,2.77l9.15-2.64c-5.99,13.6-5.28,40.05,11.4,40.79,14.63.65,20.05-21.36,15.1-36.19ZM478.77,609.26c3.9-8.75,1.16-17.33-4.99-23.71-1.32-1.37-6.52-.71-7.32.97-3.39,7.11,4.59,8.28,2.43,19.09-.55,2.78.89,5.77,3.38,6.62,1.67.57,5.48-.7,6.5-2.97ZM430.26,601.53c-13.93-1.43-15.26-17.1-23.76-15.53-1.63.3-4.21,2.73-4.28,4.38-.27,6.42,13.41,24.34,34.41,22.87,10.06-.71,19.67-4.03,25.67-12.91,1.25-1.85-.23-6.63-2.17-7.54-8.29-3.89-6.45,11.13-29.86,8.73Z"/>
  <path class="cls-1" d="M565.41,454.05c-57.33,40.8-178.46,40.18-233.21-4.81,1.75-20.97,33.86-33.59,51.1-37.83,44.48-10.95,91.51-8.67,134.91,6.01,15.61,5.28,42.7,18.93,47.2,36.63Z"/>
  <path class="cls-1" d="M575.54,444.5c-11.98-21.35-38.47-34.48-61.24-41.28-41.31-12.34-84.48-14.02-126.71-5.56-24.6,5.81-54,16.32-65.38,40.19-9.9-12.4-9.86-28.3-.81-41.02,6.88-9.67,16.17-17.02,26.84-22.82,43.55-23.63,103.53-27,151.48-17.77,26.64,5.13,64.3,17.97,79.92,41.2,3.82,5.69,6.34,13.93,7.17,20.71,1.24,10.22-4.81,19.18-11.27,26.35Z"/>
</svg>