<?xml version="1.0" encoding="UTF-8"?>
<svg id="Layer_1" data-name="Layer 1" xmlns="http://www.w3.org/2000/svg" viewBox="0 0 1000 1000">
  <defs>
    <style>
      .cls-1 {
        fill: #fff5e1;
      }
    </style>
  </defs>
  <path class="cls-1" d="M621.66,786.47c20.63-6.49,40.03-12.8,59.1-21.5,9.16.65,17.73,4.67,27.1,4.16,37.1-2.02,67.71-37.02,64.03-63.63l-26.17-189.45c-1.93-16.08-24.19-29.44-39.96-29.33,2.26-35.64-.39-95.1-26.9-123.04,13.12-2.37,33.58-7.67,38.16,9.69.77,2.9,4.13,4.29,6.02,3.93,3.2-.6,5.18-3.47,4.53-7.22-1.69-9.67-9.16-17.08-18.72-19.36-3.69-.88-7.51-2.57-11.25-2.25l-18.78,1.61c27.83-43.99,21.33-143.37,14.54-193.2-.55-4.06-3.49-7.76-7.77-7.39l-189.04,16.52c-.92-6.36-.59-12.22-.34-19.4l268.24-22.12-11.4,350.52,47.05,321.5c-.28,10.19-5.68,18.06-13.69,23.37-4.06,5.84-9.89,7.56-16.26,9.91l-97.35,35.9c-38.75,14.29-76.48,27.3-116.08,39.01-34.96,4.64-69.19,5.85-104.19,1.82l-51.97-5.99c-48.32-5.57-94.89-17.74-138.32-39.28-9.45-4.69-18.14-9.31-24.95-17.01l7.29-69.14,15.03,7.96c-3.2,17.28-6.39,33.63-6.76,50.68-.23,10.42,5.67,17.43,15.09,20.35,32.47,10.04,79.56,19.65,113.11,18.44,11.41-1.23,18.78-7.46,21.96-18,4.26-14.11,5.13-28.63,5.36-43.87,58.25,5.73,116.43,6.28,171.5-11.04l41.79-13.14Z"/>
  <path class="cls-1" d="M482.02,374.33l-206.94-18.15-11.14-187.14,219.71,10.41,1.14,125.27.72,61.8c.78,3.61,3.94,5.98,6.89,5.56,3.94-.56,5.56-3.85,5.52-8.23l-1.82-185.1,185.34-16.2c4.5,34.53,6.25,68.86,4.54,103.88-1.59,22.07-3.72,42.93-11.09,63.33-9.14,23.22-19.89,24.33-41.15,27.2l-135.45,18.26c-5.4.73-10.12-.35-16.28-.89ZM297.84,212.41c16.72-19.95,34.99-18.33,29.35-28.3-5.1-9.02-28.77,11.36-34.01,15.6-3.39,2.74-6.41,5.74-6.59,10.3-.13,3.23,1.6,5.7,4.17,6.47,3.29.98,4.75-1.32,7.07-4.08ZM456.44,227.28l-25.04-30.75c-2.89-3.55-8.45-5.94-11.78-2.43-3.51,3.69.1,7.39,2.6,10.34l25.41,29.99c2.29,2.7,5.69,3.02,8.05,1.13,1.93-1.55,2.93-5.59.75-8.27ZM334.21,274.76c10.35-15.78,7.4-45.41,2.12-60.91-2.09-6.15-8.64-8.83-13.84-8.68-5.8.16-11.42,2.51-14.78,7.91-12.35,19.86-12.93,58.1,8.06,68.15,6.45,3.09,14.42-.33,18.44-6.46ZM428.02,293.09c23.29-18.51,6.36-77.86-17.12-73.77-6.13,1.07-9.12,6.13-11.08,12.1-5.65,17.21-7.09,35.63-1.04,52.87,2.1,5.99,6.84,10.43,11.28,12.11,6.34,2.4,12.51,1.02,17.96-3.3ZM396.07,303.07c-1.34-3.92-5.87-6.06-9.74-3.94-32.24,17.62-46.43-8.7-53.46,1.29-6.85,9.72,17.54,14.94,23.86,16.37,3.13,10.18,9.15,19.7,19.01,23.79,5.96,2.47,12.36,2.41,17.76-1.24,12.26-8.3,6.33-25.25,2.57-36.26Z"/>
  <path class="cls-1" d="M604.73,739.02c-61.47,19.65-141.13,26.28-204.36,20.28-22.75-2.16-65.12-8.55-80.86-25.64-16.45-17.86-15.87-52.96-11.78-75.29,4.22-23.05,10.03-44.64,16.5-67.84,8.66,13.83,42.42,19.34,58.01,21.47,63.96,8.73,150.56,6.7,214.77-7.73,11.86,45.85,11.72,85.64,7.71,134.74Z"/>
  <path class="cls-1" d="M731.97,671.02c-.39-3.93-4.24-5.24-6.25-5.06-3.28.29-4.73,2.68-4.76,6.29-.1,15.34,3.4,46.21-9.08,55.72-11.87,5.19-24.42,5.52-37.4,3.48-18.7-2.95-36.7-6.86-55.38-11.22,1.8-54.18-.08-90.28-16.03-141.81-7.88-25.46-19.63-48.19-34.26-70.34,2.35-9.48,1.26-18.6-4.46-27.06l36.83-4.39c.97,6.39-5.26,20.16,3.76,21.45,8.59,1.23,6.23-15.83,8.43-19.88l19.58-4.9c1.88,5.23-.26,17.97,9.65,19.01l65.16,6.85c9.91,1.04,17.95,5.44,24.76,13.42l26.84,191.56c1.65,11.77-4.59,23.02-11.44,31.55-9.98,12.43-24.32,19.04-40.14,21.16l-89.83-16.04c-1.15-2.67-.42-5.07.37-7.67l41.71,8.06c12.27,2.37,24.2,2.77,36.57,3.2,18.71.65,32.69-11.3,35.09-30.06,1.79-14.02,1.76-28.52.27-43.33ZM722.46,550.85c-.47-4.38-1.8-7.72-2.5-11.48-3.01-16.31-9.53-32.58-27.61-35.26-22.42-3.31-44.47-4.93-67.2-6.02-3.9-.19-6.26,2.42-6.14,5.81.07,2,1.84,5.06,5.21,5.32,22.09,1.71,43.87,3.42,65.7,6.78s14.21,43.78,26.91,42.41c3.18-.34,6.08-3.44,5.63-7.57ZM693.93,721.97c8.32-1.3,16.57-13.92,15.58-22.22l-18.27-152.57c-.91-7.63-3.7-20.58-12.76-21.46l-54.48-5.26c-2.96-.29-5.67,1.32-6.65,2.81-1.05,1.61-1.71,4.78-.63,6.77,27.96,51.57,35.63,123.24,32.43,180.88-.13,2.31-.78,5.08.51,6.27,1.15,1.07,3,3.15,5.33,3.11,12.91-.22,24.91,3.86,38.94,1.68Z"/>
  <path class="cls-1" d="M576.91,432.7c-41.62,7.22-171.3,13.95-205.56-7.4-10.79-6.72-25.45-36.81-29.06-50.43l122.25,10.45c11.26.96,22.13,4.09,33.38,2.59l121.27-16.16c-4.54,11.35-14.2,41.75-22.62,48.92-5.16,4.39-12.6,10.81-19.67,12.03Z"/>
  <path class="cls-1" d="M578.46,549.26c-27.82-2.96-53.85-4.75-81.59-4.15-42.22-.21-83.51,2.64-124.64,11.1-14.51,2.99-27.25,6.9-40.65,14,9.55-27.1,19.76-47.82,36.79-69.66,3.3-4.27,3.64-8.06,3.5-14.34,7.25,4.43,14.06,4.12,21.06,5.65,55.12,12.05,108.56,11.18,164.44,3.39,3.21,6.4-3.86,10.46,2.54,20.36,6.88,10.64,13.02,20.92,18.56,33.65Z"/>
  <path class="cls-1" d="M630.33,771.38l-52.05,15.58c-15.41,4.61-30.56,6.5-46.49,8.98-68.48,10.63-136.54,2.78-204.32-9.54-11.72-2.13-81.44-14.53-79.03-28.26,1.57-8.96,43.91-23.78,54.93-24.78,12.66,22.61,41.59,29.08,65,34.15,75.34,13.22,166.5,5.78,239.21-15.77l51.33,9.56c-9.37,4.42-18.73,6.85-28.57,10.08Z"/>
  <path class="cls-1" d="M593.86,591.97c-64.37,14.72-165.17,17.2-229.05,4.19-10.44-2.13-20.32-4.79-29.04-11.37,4.96-11.05,51.63-18.76,63.06-20.51,55.59-8.49,129.31-9.49,185.64-1.15,3.86,9.07,6.62,17.76,9.39,28.84Z"/>
  <path class="cls-1" d="M570.38,467.99c-2.75.29-3.81-2.89-5.31-3.14l-44.47-7.19c1.08-2.54,1.64-5.41,3.5-7.46,19.79-2.19,39.22-2.07,58.61-6.79,8.65-2.1,17.11-8.58,23.2-14.61,6.42-6.36,9.84-14.73,12.94-22.9l13.18-34.8c7.01-2.38,14.28-1.14,21.45-1.94,8.97-.99,16.3,1.84,21.41,9.52,17.37,26.13,20.73,74.63,18.34,106.48l-47.7-5.48c-.8-6.1.47-12.57-3.1-17.04-3.01-3.77-8.25-1.31-12.24-.89l-59.81,6.23Z"/>
  <path class="cls-1" d="M495.5,134.12c-2.19-5.33.39-9.53-.05-14.07-.37-3.82-1.93-7.17-.71-11.76l237.21-9.95c7.77,4.25,15.16,7.03,21.96,14.2l-258.41,21.59Z"/>
  <path class="cls-1" d="M482.85,134.62l-212.81-6.97c7.88-6.95,17.21-13.94,27.03-17.32l185.52-3.03c.62,8.69.65,16.74.26,27.33Z"/>
  <path class="cls-1" d="M483.09,166.9l-219.68-10.43c-.86-5.5-.8-10.21-.97-16.47l220.62,7.09c.42,6.42.56,11.7.03,19.81Z"/>
  <path class="cls-1" d="M545.28,484.07c-51.37,6.92-112.31,7.1-162.24-8.41,9.1-3.62,17.45-3.81,26.23-4.44l33.64-2.4c6.26-.45,16.19-2.38,21.43,1.37,14.01,10.33,31.44,12.08,44.28-1.19l33.8,4.86c.22,3.85,1.04,6.53,2.86,10.22Z"/>
  <path class="cls-1" d="M334.66,851.51c7.93.98,14.84-1.2,19.52-6.52,6.31-.29,22.21,6.14,24.11-2.19,2.22-9.7-13.97-6.52-19.32-9.09-.74-3.16-.04-6.11.83-8.66l18.72,1.51c3.22.26,5.97-.98,7.04-3.82,3.81-10.07-18.26-8.05-23.93-8.97-.26-2.96-.32-5.66.97-8.56l32.83,4.19c-.1,15.86.55,32.57-7.28,46.52-2.92,5.21-12.23,4.49-17.17,4.24-18.31-.95-35.3-2.63-53.05-6.66-8.45-1.92-50.25-9.91-51.92-15.02-.79-2.42-1.99-7.01-.12-7.94,6.94-.22,13.33,1.16,19.8,1.88-.66,7.48,3.65,12.32,10.61,13.6,12.43,2.29,24.86,3.82,38.35,5.49Z"/>
  <path class="cls-1" d="M346.28,833.07c-.74,5.04-4.97,7.52-9.61,6.78l-37.99-6.06c-.14-13.46,2.45-25.49,4.47-38.97l47.69,8.65-4.55,29.59Z"/>
  <path class="cls-1" d="M497.85,462.34c-11.39,9.72-27.18.99-33.32-10.18l43.38-1.22c-2.52,4.45-6.07,7.99-10.06,11.4Z"/>
  <path class="cls-1" d="M286.41,820.56l-20.05-1.99c-.52-3.1.06-5.74.79-8.75,6.97-.83,13.55.36,20.35,1.55-.23,3.38-.09,5.8-1.09,9.19Z"/>
  <path class="cls-1" d="M288.99,799.61l-20.08-2.03c.46-4.46.76-7.12,2.02-10.82l19.05,4.97c1.15,1.83.44,5.21-.99,7.88Z"/>
  <path class="cls-1" d="M387.31,329.03c-6.56,5.49-17.86-7.87-17.02-12.86,4.73,1.51,3.12,6.03,5.62,8.29,2.72,2.46,5.99,3.02,8.12,1.38,6.7-5.18-4.58-12.9,2.44-13.67,2.33,3.47,4.39,13.89.84,16.86Z"/>
  <path class="cls-1" d="M697.06,699.76c.53,4.33-2.09,10.08-5.36,10.19-9.99.33-19.21-1.14-29.55-2.01,2-57.7-4.75-120.42-28.8-173.74l39.42,3.07c4.82.38,6.81,4.63,5.58,9.41l18.71,153.08Z"/>
</svg>