<?xml version="1.0" encoding="UTF-8"?>
<svg id="Layer_1" data-name="Layer 1" xmlns="http://www.w3.org/2000/svg" viewBox="0 0 1000 1000">
  <defs>
    <style>
      .cls-1 {
        fill: #b92323;
      }
    </style>
  </defs>
  <path class="cls-1" d="M638.4,601.54c-27.86,41.62-48.86,32.05-49.93,46.39-1.41,18.78-11.97,38.77-29.89,45.83-30.88,12.17-83.76,14.16-116.31,12.52-16.73-.84-32.53-2.74-48.71-6.79-5.05-1.26-9.4-4.72-13.79-7.18-3.51-1.97-6.95-3.62-9.68-6.54-10.61-11.33-22.2-26.34-17.51-43.25l43.44-156.77c54.56,9.67,106.51,12.38,161.22,7.5-.29,2.67-.56,5.6.15,7.03.71,1.43,4.36,2.97,6.02,2.82,23.36-2.1,51.28-4.38,67.58,15.39,12.79,15.53,15.55,35.48,15.61,54.97.04,11-2.27,19.21-8.2,28.07ZM451.05,539.39c4.58-5.54,6.04-14.01,3.04-20.32-2.98-6.29-11.46-6.64-16.72-2.39-6.88,5.55-8.09,16.82-2.08,23.67,3.93,4.48,11.72,3.92,15.76-.96ZM519.41,540.23c2.82-6.91,1.85-13.52-2.07-19.41-1.27-1.9-6.17-3.36-8.48-2.93-8.13,1.54-12.24,13.99-7.52,23.28,1.85,3.64,5.94,5.93,9.76,5.55,2.92-.29,6.85-2.92,8.3-6.49ZM629.95,579.74c3.62-12.41,4.3-25.69-2.21-37.43-6.14-11.06-18.15-19.74-30.95-21.26-6.52-.78-26.68-1.83-30.89,2.82-.98,1.09-1.29,4.8-.89,6.36l13.08,50.09c3.29,12.6,5.13,25.34,9.17,37.64,1.58,4.79,11.18,2.01,13.93-.52,13.99-12.88,23.81-20.72,28.76-37.7ZM544.27,572.97c.86-1.43.47-5.17-.5-6.26-.97-1.1-4.24-2.14-6.03-1.98-29.66,2.71-58.06,2.56-87.65.42-9.26-.67-17.96-.49-27.29-.22-4.49.13-11.09,3.57-11.08,8.85,0,4.43,4.76,8.75,8.51,11.37,21.98,15.37,48.18,21.46,74.97,19.79,25.1-1.57,36.77-11.54,49.06-31.96ZM470.89,629.69c20.61-3.96,27.72,13.05,36.19,7.83,8.77-5.4-12.79-20.91-34.77-19.69-15.37.85-28.83,17.2-22.93,22.55,7.61,6.92,11.1-8.69,21.51-10.69Z"/>
  <path class="cls-1" d="M548.7,450.63c16.1,3.28,41.98,7.37,53.49,16.53-7.76,9.52-49.88,12.99-61.43,13.52-51.47,2.38-108.96.73-158.83-12.5-8.33-2.21-15.74-5.15-22.85-10.46,10.67-5.95,21.54-8.4,32.85-9.18,6.1-.42,28.57-1.06,23.02-12.7l-53.82-112.9c20,3.89,38.66,7.57,58.41,8.42l27.65,1.19c24.68.72,48.67.64,73.56-.14,26.73-.84,52.71-.17,79.05-5.47,8.24-1.66,16.41-4.88,25.09-1.8,5.02,1.78,11.14,5.49,14.64,9.82,17.88,22.13,6.68,50.62-12.83,67.46-17.64,15.23-37.95,23.94-60.13,30.2l-18.48,5.22c-1.89.54-4.21,3.88-4.4,5.72-.24,2.3,1.96,6.44,5,7.06ZM562.44,416.38c19.76-1.25,37.88-9.62,52.43-21.77,14.49-12.09,20.73-37.73,8.64-48.67-7.88-7.12-28.16-10.64-34.01-.55l-13.13,22.66-21.17,35.43c-1.29,2.16-1.63,7.23-.43,9.04,1.07,1.61,4.87,4.03,7.67,3.85Z"/>
  <path class="cls-1" d="M556.17,315.05c-40.64,4.68-73.35,4.05-114.35,2.99-22.41-.58-60.07-3.41-80.03-11.93-.57-.24,1.04-1.86,2.03-2.12,18.78-4.93,39.72-7.55,59.58-8.62l23.62-1.27c21.41-1.15,42.69-1.21,64.12,0l23.53,1.33c21.8,1.23,43.29,2.6,64.93,10.69-14.44,5.84-28.78,7.25-43.42,8.93Z"/>
  <path class="cls-1" d="M526.86,577.05c-13.53,27.13-74.81,15.98-95.98.37l36.51.64c19.49,1.17,38.08-.03,59.46-1.01Z"/>
</svg>