<?xml version="1.0" encoding="UTF-8"?>
<svg id="Layer_1" data-name="Layer 1" xmlns="http://www.w3.org/2000/svg" viewBox="0 0 1000 1000">
  <defs>
    <style>
      .cls-1 {
        fill: #fff5e1;
      }
    </style>
  </defs>
  <path class="cls-1" d="M642.34,268.17l-48.34,89.34c-54.22,11.12-121.87,15.03-175.48.83-4.33-8.87-9.22-16.23-14.24-24.45l-40.17-65.77c32.65,8.02,63.66,12.39,95.94,13.52l29.99,1.05c19.58.69,38.61-.65,58.35-1.05,31.17-1.86,60.3-5.64,93.95-13.46Z"/>
  <path class="cls-1" d="M620.36,785.41c-64.95,21.6-159.66,21.79-226.36,1.09-17.85-15.05-30.58-35.8-37.58-59.65,19.77,5.01,37.25,8.22,56.1,9.52,27.95,2.73,54.8,3.82,83.17,3.43,42.73.38,84.3-2.05,126.39-8.09,13.91-2,26.12-5.4,39.82-9.51-4.27,18.89-12.6,33.41-23.19,47.09-5.66,5.7-10.22,13.42-18.34,16.12Z"/>
  <path class="cls-1" d="M543.31,216.13c30.32,13.74,45.55,7.89,77.06-2.72,12.39-4.17,24.93-6.13,38.44-2.45l-27.82,46.5c-47.61,11.33-108.57,14.3-157,11.97l-22.27-1.07c-31.41-1.51-61.89-6.12-92.5-15.16l-23.92-42.16c24.62,1.57,27.27-12.57,36.32-3.34,16.37,16.71,31.84,12.52,51.21,4.03,7.24-3.17,14.28-3.46,21.48-.28,19.52,8.62,37.59,13.15,58.02,4.46,13.45-5.72,27.46-5.89,40.99.24Z"/>
  <path class="cls-1" d="M585.08,430.32c-8.7,5.42-18.76,6.9-28.53,7.95l-68.86,7.42c-16.6,1.79-32.7.1-49.44.35-1.56-8.14-6-12.6-11.92-16.9-1.83-1.33-2.1-4.59-3.56-6.34-13.62-16.31-30.68-33.82-13.12-53.54,61.18,17.02,127.09,11.86,189.74.69,8.64,3.66,11,18.25,6.83,26.31-7.58,14.64-12.95,19.24-21.14,34.05Z"/>
  <path class="cls-1" d="M417.36,524.08c-15.37-3.84,7.4-13.07-12.73-33.13,31.06.29,25.07-19.11,35.52-17.75,18.9,2.47,37.29,3.02,56.23,1.99,25.52-1.38,61.16-3.81,85.86-12.43,2.46,14.32,32.23,44.58,24.37,56.52-1.34,2.03-4.37,4.79-7.9,5.8-42.47,12.22-136.43,10.21-181.35-1Z"/>
  <path class="cls-1" d="M626.56,717.99c-51.24,9.3-120.02,10.68-172.32,8.74-23.25-.86-73.21-3.53-93.27-13.82,7.18-4.03,14.29-5.51,22.05-7.06,55.27-11.07,128.21-12.12,184.81-9.91,19.81.77,72.32,4.06,88.67,13.77-10.12,4.47-19.64,6.42-29.94,8.29Z"/>
  <path class="cls-1" d="M425.76,459.05c3.17-4.31,7.4-.49,10.88-.57,16.08-.35,31.75,1.61,47.95-.19l71.5-7.97c12.74-1.42,24.29-4.62,35.89-9.79,1.03-.45,2.2,2.89,2.13,4-.4,5.65-34.43,12.45-41.02,13.3-43.52,5.65-83.69,8.2-127.32,1.22Z"/>
  <path class="cls-1" d="M387.35,522.38c2.85,6.75,14.59,31.82,7.08,36.26-6.17-8.25-9.01-17.38-12.91-26.55-17.17-40.35,10.84-73.66,16.52-65.54,3.42,4.89-25.56,20.53-10.68,55.83Z"/>
  <path class="cls-1" d="M422.1,472.06c-1.69,5.4-9.28,8.5-13.69,6.15-1.72-2.66,1.43-6.43,1.88-8.96,1.34-7.66-4.5-13.87-11.91-15.88-.1-6.58,4.55-11.07,9.5-12.95,6.23-2.36,13.19-2.54,17.86,3.67-4.27,1.96-9.17,1.96-11.3,6.15-3.96,7.78-.52,16.48,7.66,21.82Z"/>
  <path class="cls-1" d="M607.42,204.35c-11.59,5.38-36.42,11.44-47.6,4.28,14.91-7.43,31.61-7.85,47.6-4.28Z"/>
  <path class="cls-1" d="M353.08,617.45c-1.43-10.06,11.46-20.13,17.98-28.06,3.36,14.98-10.21,17.04-17.98,28.06Z"/>
  <path class="cls-1" d="M408.54,203.21c-8.41,4.97-18.94,5.32-25.87-2.73,8.3-3.81,17.43-2.91,25.87,2.73Z"/>
  <path class="cls-1" d="M350.76,641.54c-2.46-.27-2.36-5.29-.22-5.9,4.07-1.16,7.71-2.4,11.88-2.83,1.64-.17,2.05,2.92,2.2,4.01.59,4.33-11.73,4.97-13.87,4.73Z"/>
  <path class="cls-1" d="M378.24,557.07c4.51,5.67,7.35,8.89,5.52,13.34-.55,1.32-3.55,4.27-5.2,2.73-4.12-3.86-2.84-11.26-.32-16.07Z"/>
  <path class="cls-1" d="M483.44,207.65c-7.94.85-16.25.41-24.3-4.44,8.68-2.14,16.62.32,24.3,4.44Z"/>
  <path class="cls-1" d="M398.38,516.16c-2.98-5.43-3.68-10.89-3.47-16.75,3.33,1.06,5.91,3.76,6.46,6.06.81,3.36,1.32,8.09-2.99,10.69Z"/>
  <path class="cls-1" d="M380.32,693.4c-10.34,1.98-19.5,4.57-29.48,9.74-1.84-9.18-1.49-18.48,1.76-27.61,3.31-1.8,7.06-1.79,10.63-2.97,10.29-3.42,2.39-13.72,4.14-21.73,8.2-1.86,10.81-8.23,9.53-15.73-1.12-6.56-3.49-11.24-10.68-15.02,13.58-8.05,19.51-19.76,16.6-34.53,6.61-2.55,9.27-8.64,13.77-12.61,5.24-4.63,11.44-8.07,12.57-15.71,1.22-8.21-.95-15.38-3.86-23.79,28.35,9.6,59.75,10.98,88.28,11.81,13.83,1.3,27.02.63,40.87.16,22.2-.76,43.85-2.2,66.18-7.24l60.71,136.94c3.37,7.59,4.02,15.42,2.78,23.03-25.01-10.39-67.65-13.53-93.62-14.52-59.17-2.26-132.33-1.32-190.18,9.78ZM453.63,606.43c3.81,0,4.47,1.86,6.37,2.47,3.4,1.09,6.99.21,8.09-3.16.79-2.41-.48-5.08-3.05-6.92-17.65-12.68-40.08-17.64-60.12-9.15-3.81,1.61-5.25,5.49-4.04,8.66,3.16,8.26,14.76-2.23,21.55-.22-10.92,15.38-8.38,52.46,10.98,54.18,18.99,1.69,24.75-30.68,20.21-45.85ZM583.16,601.69c3.16,1.22,4.93,3.99,7.88,5.48,2.9,1.46,6.37.71,7.71-1.81,4.77-8.97-18.53-22.02-41.2-19.25-7.5.92-28.42,3.2-23.3,14.55,3.2,7.09,14.26-3.25,20.1-1.43-10.95,15.83-8.2,52.7,11.03,54.29,20.09,1.66,26.43-34.9,17.78-51.83ZM507.24,666.79c8.59-2.64,14.35-8.75,16.6-14.48,3.4-8.66,2.09-16.77-2.42-23.52-6.44-9.64-17.21-13.86-28.56-12.86-9.92.87-18.26,7.34-21.61,15.27-4.16,9.82-1.68,20.26,5.42,27.57,7.76,7.99,19.43,11.44,30.57,8.01Z"/>
  <path class="cls-1" d="M512.97,644.04c-.35,6.29-5.62,9.17-9.31,10.65-5.19,2.08-9.91.65-14.63-2.05-5.19-2.98-8.04-8.67-6.88-14.48,1.06-5.34,6.02-8.88,12.29-9.61,9.26-1.07,19.13,4.8,18.53,15.49Z"/>
</svg>