<?xml version="1.0" encoding="UTF-8"?>
<svg id="Layer_1" data-name="Layer 1" xmlns="http://www.w3.org/2000/svg" viewBox="0 0 1000 1000">
  <defs>
    <style>
      .cls-1 {
        fill: #fff5e1;
      }
    </style>
  </defs>
  <path class="cls-1" d="M291.98,507.08c-8.2,49.9-6.08,91.1-3.69,140.46l1.31,27.07c2.24,46.19,66.4,35.13,98.09,34.98l-.5,20.42c-24.08.72-50.77,2.57-73.84-5.91-10.49-3.86-24.4-10.18-29.39-20.86-19.13-40.97-19.29-173.4-1.12-217.05,4.44-10.67,13.26-17.29,23.86-20.71,16.28-5.25,32.88-7.23,50.11-7.9,9.57-.37,18.7-1.55,28.3-1.04,8,.42,14.75-4.37,15.05-12.46l1.56-42.07c.06-1.59,1.13-2.44,2.43-1.83,3.32,1.55.15,12.15,2.12,16.64,2.05,4.66,8.58,6.49,13.11,7.92,35.22,10.11,74.08,11.39,111.62,13.04l-.81,138.67c-20.68.79-39.29,2.42-58.46,6.06-19,3.8-36.99,8.99-54.15,17.05l-17.12,12.95-.34-123.97c0-3.41-.53-8.58-3.39-10.1-8.15-4.35-17.42-3.8-26.43-4.75-18.63-1.97-52.57-4.37-67.06,8.14-7.05,6.08-9.82,16.43-11.27,25.27Z"/>
  <path class="cls-1" d="M690.5,618.27c-21-32.47-94.27-40.52-130.53-41.82l1.19-137.98c39.58-1.28,84.18-1.82,122.85-12.36,10.01-2.38,13.89-11.29,11.76-22.23,12.13,4.75,23.16,7.66,34.8,10.89l-36.4,35.62-3.11,153.85c-.1,5.03,1.47,9.08-.57,14.04Z"/>
  <path class="cls-1" d="M682.3,698.98c3.54,5.8-34.81,17.6-40.63,19.09-33.29,8.52-66.63,11.18-101.17,10.92-40.71-.3-92.71-5.98-129.4-23.36-15.81-7.49,23.62-25.64,40.4-21.77,27.75,6.4,54.17,12.09,82.85,12.44,33.73.42,66.14-2.41,98.63-11.99,11.3-1.81,44.42,6.65,49.31,14.68Z"/>
  <path class="cls-1" d="M560.96,340.98c41.29,2.04,84.11,4.79,125.46,16.07-21.19,7.92-42.72,11.75-65.62,13.66-62.49,5.22-152.11,2.86-213.04-17.64,11.07-4.74,21.48-6.05,32.83-7.64,29.86-4.19,59.6-5,89.5-4.92.94,6.05-1.42,12.96,1.19,18.14,7.59,8.41,22.1,6.44,28.92-1.86l.76-15.81Z"/>
  <path class="cls-1" d="M563.82,611.84c12.77-.8,82.44,6.74,83.65,19.07.67,6.78-26.42,13.09-32.6,14.83-9.48,2.68-18.7,5.44-28.84,4.23-43.45,7.46-83.07,2.89-125.6-6.08-3.82-.81-29.64-8.41-19.89-14.82,18.53-12.18,64.59-16.61,87.56-17.25l.89,25.92c.19,5.56,3.13,9.41,8.84,10.21,8.18,1.73,18.47,1.95,24.86-4.24,2.6-2.52,2.37-26.58,1.12-31.87Z"/>
  <path class="cls-1" d="M693.33,384.35c-28.71,12.33-52.52,10.67-82.18,13.87-35.48-.13-70.36,1.21-105.82-1.54-25.82-2-50.41-4.32-75.93-7.88-11.28-1.58-21.68-4.43-32.02-8.43-2.26-6.39-2.36-12.49.33-18.86,47.51,18.65,120.03,23.19,171.11,22.84,33.75-.23,99.33-2.79,128.72-20.43,2.44,8.1,5.18,16.4-4.2,20.43Z"/>
  <path class="cls-1" d="M684.04,399.01c.98,5.76.86,9.76.29,14.68-13.77,4.64-26.8,7.11-41.35,8.68-60.67,6.54-121.36,5.91-181.98-.98-15.88-1.8-30.24-4.71-45.24-9.01-1.34-4.7-1.63-8.85-.8-14.38,29.94,5.03,59.53,7.49,89.99,10.06,16.13,1.36,31.63,1.14,47.94,1.53,23.96.57,46.97.42,70.74-1.53,20.4-1.67,39.77-2.62,60.42-9.05Z"/>
  <path class="cls-1" d="M568.82,171.56c-13.93,4.56-28.7,3.49-42.3-1.99l-6.6-65.85c12.98-6.9,44.58-5.21,60.09-.59l-11.19,68.43Z"/>
  <path class="cls-1" d="M689.59,641.3c1.45,2.03.83,4.72-.04,7.28-81.91,47.35-204.83,50.08-285.96.17-2.73-1.68-4.2-3.67-2.79-6.9,16.93,10.08,35.24,16.75,55.49,21.12,67.37,14.53,156.42,13.27,220.75-14.34,3.89-2.77,6.87-5.11,12.54-7.32Z"/>
  <path class="cls-1" d="M549.19,350.84c-.02,3.87-6.58,3.4-7.88,1.62l.7-55.18,1.18-111.05c1.9-1.07,4.08-.74,6.85-.17l-.85,164.78Z"/>
  <path class="cls-1" d="M548.7,604.99c-2.34.74-4.25.43-6.89-.05l.5-166.61c3.39-.24,5.78-.95,7.76.96l-1.37,165.7Z"/>
  <path class="cls-1" d="M689.07,688.76c-9.41-6.54-18.29-9.69-28.88-13.04l28.99-13.7c.75,8.98.26,17.01-.11,26.73Z"/>
  <path class="cls-1" d="M427.68,674.57c-9.77,3.72-17.72,6.95-26.87,13.19-.9-9.58-.68-17.87-.13-27.26l27.01,14.07Z"/>
  <path class="cls-1" d="M553.83,636.82c-5.18,1.86-9.13,1.77-14.11.42.8-6.38-2.78-13.77-.32-19.71,1.84-3.48,13-2.52,14.51,1.18,2.23,5.47-.96,11.73-.07,18.11Z"/>
  <path class="cls-1" d="M426.02,635.01c-6.12-.63-14.17-3.22-18.65-8.86,1.1-4.57,7.78-7.1,12.34-5.18,5.09,2.15,7.68,6.18,6.31,14.04Z"/>
  <path class="cls-1" d="M450.93,612.66c-3.49-1.24-3.38-8.4-7.52-10.57,4.87-2.49,9.12-2.94,13.76-1.61,3.08.88,6.42,6.59,5.02,9.55-1.74,1.79-7.44,3.98-11.26,2.62Z"/>
  <path class="cls-1" d="M579.49,601.62c-3.14.41-6.89,1.54-10.2-.38-2.99-1.73-5.28-9.56-2.14-11.72,3.96-2.72,9.82.15,14.11-.43-1.48,4.57-2.31,7.17-1.77,12.53Z"/>
  <path class="cls-1" d="M658.77,623.75c-1.76,1.04-6.58-2.61-5.99-4.51,1.56-5.01,7.54-7.11,12.63-7.08,3.93.03,8.1,3.62,11.42,7.82-6.38-.01-11.57-.07-18.06,3.76Z"/>
  <path class="cls-1" d="M625.02,607.61c-3.32.05-7.08-.77-9.66-2.94-2.6-2.18-1.22-5.57.09-7.4,3.03-4.25,10.54-1.21,14.71.52-1.93,3.25-3.3,5.69-5.13,9.81Z"/>
  <path class="cls-1" d="M482.06,606.33c-2.55,1.91-5.88,2.09-8.76,1.68-.85-5.14-2.88-8.76-5.03-12.47,4.92-.98,12.1-1.5,14.3,3.21,1.06,2.28,1.54,6.05-.51,7.58Z"/>
  <path class="cls-1" d="M652.02,646.03c.68-4.41,5.36-5.4,7.79-8.58,4.65-6.07,11.89-9.14,18.97-4.86-8.81,5.01-16.71,9.52-26.76,13.43Z"/>
  <path class="cls-1" d="M603.26,604.05l-8.49-.85c-2.89-.29-4.48-2.25-4.89-4.48-1.04-5.75,11.48-9.48,15.35-5.99-1.16,3.94-1.85,6.57-1.97,11.31Z"/>
  <path class="cls-1" d="M521.19,601.13c-1.68,2.05-5.18,1.27-7.08,1.68-.08-5.07-1.15-8.57-3.66-13.59,3-.38,6.84-1.77,9.68.08,3.45,2.25,3.6,8.74,1.06,11.83Z"/>
  <path class="cls-1" d="M502.79,602.18c-.7,3.03-5.67,2.59-8.42,2.48-.28-4.69-.97-8.97-3.32-13.16,6.2-1.9,13.32,3.84,11.73,10.68Z"/>
  <path class="cls-1" d="M643.42,612.54c-1.52,1.63-6.86-.39-7.21-2.51-.4-2.44,2.47-6.39,4.67-7.67,3.57-2.09,7.4.49,10.98,2.16-3.1,2.8-5.16,4.52-8.44,8.02Z"/>
  <path class="cls-1" d="M433.66,618.9c-2.93-3.95-6.35-5.88-10.72-8.32,4.74-3.32,10.47-2.82,14.43.68,1.35,1.19,2,3.06,1.68,4.61-.33,1.61-2.57,2.22-5.4,3.02Z"/>
  <path class="cls-1" d="M712.49,396.93c-3.58-.03-7.9-1.29-11.18-4.04-.88-.97,2.46-2.75,4.15-1.53,2.27,1.65,4.52,2.56,7.03,5.57Z"/>
  <path class="cls-1" d="M399.17,854.48l.04-142.06c17.57,9.49,34.27,14.48,52.92,18.71,60.17,12.34,121.9,12.56,182.11.67,19.44-4.6,37.06-9.95,54.44-20.43l-3.13,149.93c-64.44,43.57-159.92,50.14-231.59,24.86-20.18-7.85-38.33-16.84-54.79-31.68ZM497.26,789.16c4.25.27,4.95,2.45,7.45,2.87,3.2.53,6.12-.6,7.01-3.5.76-2.48-.51-5.08-3.07-6.92-17.6-12.69-40.1-17.6-60.1-9.14-3.83,1.62-5.25,5.51-4.04,8.67,3.16,8.28,15.12-2.24,21.55-.2-10.88,15.27-8.44,52.35,10.97,54.17,18.94,1.77,24.78-30.61,20.23-45.94ZM626.79,784.49c3.12,1.73,12.57,10.73,15.56,3.88,4.65-10.63-19.98-21.22-39.02-19.72-8.04.63-30.67,3.19-25.45,14.8,3.19,7.08,14.2-3.19,20.09-1.43-11.04,15.88-8,52.91,10.99,54.27,20.47,1.47,26.33-35.05,17.83-51.81ZM567.4,826.84c-14.41,9.05-31.36,7.33-43.95-3.1-2.6-2.16-6.95-.81-8.05,1.47-1.05,2.18-1.43,6.17,1.06,8.28,25.79,21.79,64.94,5.83,59.02-4.78-1.32-2.36-4.98-3.83-8.08-1.88Z"/>
</svg>