<?xml version="1.0" encoding="UTF-8"?>
<svg id="Layer_1" data-name="Layer 1" xmlns="http://www.w3.org/2000/svg" viewBox="0 0 1000 1000">
  <defs>
    <style>
      .cls-1 {
        fill: #fff5e1;
      }
    </style>
  </defs>
  <path class="cls-1" d="M414.76,136.62c-7.86,1.74-39.99-8.23-39.24-18.6.73-10.1,29.79-19.69,39.09-21.72l.15,40.31Z"/>
  <g>
    <path class="cls-1" d="M602.67,576.2l-182.62,2.33-4.34-345.15c15.45-17.07,58.16-22,80.02-22.98,30.11-1.35,79.08,2.17,104.7,20.42l1.45,242.66.79,102.72ZM473.41,441.24c6.72-12.02-34.81-19.12-43.47-4.63-1.69,2.83.38,5.88,2.19,6.59,2.78,1.09,4.9-.12,7.13-1.51,15.68-9.78,30.35,6.36,34.15-.45ZM588.52,443.53c7.23-14-46.92-19.25-43.15-3.86.53,2.18,3.98,4.35,6.83,3.17,20.75-8.6,32.32,8.44,36.32.69ZM440.05,459.24c-1.04,7.26,3.04,12.91,8.14,16.68,6.65,4.92,14.34,6.11,22.03,2.02,5.82-3.1,10.01-10.13,9.91-18.16-.03-2.63-2-5.03-4.31-5.18-7.08-.47-3.96,10.13-9.88,13.96-3.28,2.12-6.85,1.8-10.3-.15-7.47-4.23-4.07-11.91-9.99-12.18-1.98-.09-5.16-.07-5.6,3ZM536.64,461.39c-1.03,7.26,3.04,12.92,8.14,16.68,6.66,4.91,14.34,6.12,22.03,2.03,5.82-3.1,10.01-10.13,9.91-18.16-.03-2.63-2-5.03-4.31-5.18-7.08-.47-3.96,10.13-9.88,13.96-3.28,2.12-6.85,1.8-10.3-.15-7.47-4.23-4.07-11.91-9.99-12.18-1.98-.09-5.16-.07-5.6,3ZM536.37,481.94c-1.5-5.91-11.11-3.52-14.62-1.58-16,8.82-30.39-8.03-35.95-2.44-1.48,1.49-3.82,5.1-4.06,7.52-1.7,17.18,3.2,43.07,17.62,54.28,6.77,5.26,15.53,4.78,22.12-.9,13.9-11.98,18.66-42.01,14.88-56.89Z"/>
    <path class="cls-1" d="M596.35,913.65c-44.99,28.66-84.26,26.97-135.38,16.21.41-8.84-.48-16.39-3.77-24.26-5.64-13.5-12.49-26.07-20.48-38.3-2.16-3.31-6.39-6.02-7.41-10.01l-16.31-63.97-9.13-28.45c14.79,3.94,27.9,6.37,42.6,7.82,44.86,4.41,89.35,4.61,134.08-.38,10.02-1.12,18.4-3.38,28.22-6.99-8.6,26.38-11.67,51.77-11.88,78.5l-.54,69.84Z"/>
    <path class="cls-1" d="M408.21,723.09c13.03-14.11-9.75-31.91-19.88-40.19-8.14-13.37-10.67-41.27-9.02-56.87,3.59-.22,7.21-.35,11.32-.02,3.2,11.41-1.48,24.21,11.97,24.3l144.42,1.01,70.88.4c4.32.02,7-3.75,7.02-7.57l.1-18.63c4.82-.59,9.25-.16,14.28-.22.16,6.69-.38,12.79-1.28,19.67-4.74,36.26-13.25,71.15-25.13,105.92-4.76-3.35-9.19-5.37-14.37-6.67-45.7-11.39-119.83-11.08-167.01-6.34-12.2,1.23-23.15,3.72-33.86,8.47l-6.06-19.57c6.3,1.01,12.42.85,16.63-3.71Z"/>
    <path class="cls-1" d="M588.1,212.52c-45.71-16.33-118.12-17.36-163.8,2.22l.28-121.25c53.85-10.72,108.64-12.17,161.98-3.45l1.02,67.01.52,55.48Z"/>
    <path class="cls-1" d="M441.34,895.25c2.7,5.89,15.87,30.56,7.22,35.9-4.94,3.05-15.86-.75-18.84-5.71-.45-13.17-1.18-26.52-7.57-38.36-13.86-25.66-30.26-48.55-49.18-70.65-18.15-21.2-40.39-47.82-49.63-73.9-6.44-18.19,1.82-35.1,13.1-49.28,8.19-10.31,21.06-13.64,33.74-8.89,13.15,4.93,24.06,14.87,32.23,26.3,1.11,1.56-.28,4.25-.47,5.34s-2.55,2.28-4.21,2.19c-4.79-6.1-11.57-10.43-17.95-15.11-7.44-5.45-15.28-8.27-24.81-5.07-7.03,2.36-13.72,9.1-16.11,18.19-3.46,13.12.26,27.05,6.73,39.25,9.87,18.6,21.29,35.21,33.36,52.52,11.43,16.4,21.96,32.63,35.06,47.7,10.73,12.34,20.27,24.19,27.32,39.58Z"/>
    <path class="cls-1" d="M564.9,615.42l-101.72.51-118.67.33c-.37-4.16-.3-7.51.45-11.38l191.86-.71,142.01-.33c.3,3.74-.08,7.26-1.11,11.3l-112.82.28Z"/>
    <path class="cls-1" d="M564.15,641.7l-50.29-.54-110.76-.5c-1.24-5.17-1.81-9.5-2-14.87l38.89-.25,174.79-.31c.62,5.69.43,10.79-.02,16.72l-50.61-.25Z"/>
    <path class="cls-1" d="M553.82,764.82c-30.83,2.15-50.24,1.68-80.94.06-12.79-.67-56.96-3.79-66.81-11.41,11.99-3.76,23.32-5.33,35.81-6.47,43.51-3.98,86.77-3.06,130.15,2.29,10.97,1.35,21.09,3.07,31.13,7.5-16.5,5.49-32.64,6.88-49.35,8.04Z"/>
    <path class="cls-1" d="M599,82.59c-51.9-12.18-130.58-9.97-182.49,2.79-14.7,3.61-28.24,7.94-41.29,16.62-1.06-4.49-.7-7.97-.72-12.81,69.21-31.75,183.88-34.08,256.21-10.37,1.11,5.55,1.26,10.23,1.09,15.85-10.32-6.08-21.09-9.33-32.8-12.08Z"/>
    <path class="cls-1" d="M384.59,594.88c-2.2-1.6-1.22-4.04-.55-6.08l65.48-.85,84.74-1.11,68.03-.89,31.6-.32c.41,2.74.31,5.05-.36,8.42l-57.76.38-191.18.45Z"/>
    <path class="cls-1" d="M632.75,110.69c1.77,10.18-26.02,20.1-35.6,22.28l-.5-40.6c9.23,1.55,34.56,9.43,36.1,18.32Z"/>
    <path class="cls-1" d="M526.53,489.74c1.57,10.22-4.92,42.86-16.67,42.6-4.84-.11-7.45-4.71-9.91-8.26-5.55-10.64-7.79-22.18-7.72-35.09,11.81,4.38,23.01,5.92,34.3.75Z"/>
  </g>
</svg>