<?xml version="1.0" encoding="UTF-8"?>
<svg id="Layer_1" data-name="Layer 1" xmlns="http://www.w3.org/2000/svg" viewBox="0 0 1000 1000">
  <defs>
    <style>
      .cls-1 {
        fill: #fff5e1;
      }
    </style>
  </defs>
  <path class="cls-1" d="M570.85,463.02c-29.9,12.29-60.72,16.55-92.35,16.29-28.31-.23-55.67-2.32-83.1-9.58-15.64-4.14-42.45-17.06-50.7-32.19-1.07-1.96.41-6.48,2.13-7.35,7.25-3.7,10.08,6.78,17.92,11.74,51.17-30.4,140-41.28,195.11-21.02,11.59,4.26,21.12,10.91,29.09,19.99,13.2-6.99,16.96-22.72,21.94-25.54.96-.54,3.83.78,4.48,1.72,2.07,3.01,1.68,8.15-.46,11.23-3.15,4.53-5.81,9.63-9.46,13.41-9.48,9.81-21.37,15.86-34.58,21.29ZM577.93,447c-13.2-16.84-46.95-22.61-66.59-23.92-43.16-2.87-95.41,5.25-134.77,25.79,27.89,17.15,84.48,19.22,116.72,18.46,27.32-1.33,60.65-7.85,84.64-20.34Z"/>
  <g>
    <path class="cls-1" d="M686.2,582.99c-21.18,34.16-64.02,55.28-102.08,65.95-61.18,17.15-125.87,18.04-187.45,2.24-37.06-9.51-82.48-30.81-101.6-65.35-23.18-42.89,3.17-82.13,39.9-106.13-5.44-18.33-11.26-36.39-12.51-55.47-.99-15.07,7.66-28.1,17.44-38.78,14.23-13.72,30.5-23.05,49.18-30.11,57.34-21.66,132.97-24.08,190.94-4.14,23.58,8.11,49.1,22.45,60.28,45.53,22.17.57,43.36,8.61,58.39,24.27,15.8,16.45,19.29,38.54,9.44,58.74-2.81,5.76-5.09,12.05-9.7,16.33l-13.84,12.84c15.68,23.11,16.11,50.7,1.6,74.1ZM677.81,476.22c-17.29,18.54-39.14,30.99-62.56,39.16l-10.55,18.82c25.94-4.82,77.25-30.15,89.2-54.16,9.76-19.61,3.68-43.16-12.58-56.72-22.5-18.76-40.12-10.78-45.32-16.2-13.36-13.95-16.7-23.78-36.07-34.09-55.87-29.76-135.25-29.13-194.87-10.62-24.49,7.61-60.17,24.69-68.8,50.44-4.72,14.09.91,28.73,11.5,38.47,30.98,28.48,84.24,37,125.21,37.18,33.57.15,65.84-4.64,97.23-15.86,17.99-6.43,33.28-15.68,47.73-27.43,8.57-6.98,17.71-9.16,28.41-10.72,12.07-1.76,26.69-2.74,36.8,6.16,11.77,10.36,12.92,28.95,5.49,42.02-1.21,2.14-6.06,2.76-7.63,1.39-1.43-1.25-2.2-4.32-3.2-7.83ZM655.23,481.48c7.52-4.54,23.8-21.46,22.72-28.28-1.3-8.22-32.16-15.38-38.05.46l-6.64,17.84,21.97,9.99ZM443.95,590.16c15.54,6.4,30.06,7.26,45.88,5.69,23.07-2.28,44.91-8.23,63.36-22.58,9.44-7.34,18.17-15.15,25.87-24.52,19.44-23.66,33.66-50.3,43.29-79.27l6.12-18.4c-34.31,33.38-88.06,45.66-134.12,48.81-49.63,2.72-109.85-4.17-151.54-36.17,14.6,51.28,51.18,105.86,101.15,126.44ZM644.26,488.76c-6.41-3.38-9.6-4.74-14.7-6.61l-6.82,17.39c8.63-3.41,14.2-6.05,21.52-10.78ZM594.6,548.45c-16.58,22.28-41.28,43.75-67.95,52.14-17.4,5.47-35.22,8.25-53.61,7.87-17.6-.37-33.74-6.22-48.89-14.66-38.64-21.54-67.39-61.61-84.59-102.48-32.5,20.86-55.33,57.92-31.18,93.36,20.31,29.8,60.14,47.28,94.58,55.77,59.21,14.61,121.15,13.31,179.72-3.55,35.11-10.11,77.36-30.59,95.31-63.62,9.98-18.37,8.96-40.17-3.25-57.24-24.39,15.49-51.37,28.64-80.12,32.41Z"/>
    <path class="cls-1" d="M534.98,552.21c-2.19,4.24-6.76,6.64-10.72,6.48-4.55-.18-8.28-3.43-10.11-7.83-6.54-15.69,7.27-27.05,11.2-27.57,2.78-.37,6.94,1.4,8.49,3.81,4.87,7.57,5.43,16.78,1.14,25.1Z"/>
    <path class="cls-1" d="M432.05,547.64c-1.9,4.19-6.29,6.6-10.05,6.49-3.31-.1-7.8-2.9-9.02-6.59-2.76-8.32-2.48-17.79,2.99-24.94,3.15-4.12,12.23-4.29,15.26.06,4.98,7.14,4.5,16.87.82,24.97Z"/>
    <path class="cls-1" d="M546.95,510.61c3.85,3.8,15.58,15.63,8.37,20.06-7.47,4.59-9.88-9.91-18.69-13.17-2.98-1.1-5.42-2.31-5.96-4.51-.52-2.08,1.37-5.92,3.63-6.27,4.57-.7,9.57.84,12.65,3.88Z"/>
    <path class="cls-1" d="M415.11,511.96c-12.81,8.75-9.35,17-17.24,16.05-2.41-.29-4.79-4.19-3.81-6.83,5.38-14.52,19.2-23.07,22.8-16.02.94,1.83.02,5.6-1.74,6.8Z"/>
  </g>
</svg>