<?xml version="1.0" encoding="UTF-8"?>
<svg id="Layer_1" data-name="Layer 1" xmlns="http://www.w3.org/2000/svg" viewBox="0 0 1000 1000">
  <defs>
    <style>
      .cls-1 {
        fill: #fff5e1;
      }
    </style>
  </defs>
  <g>
    <path class="cls-1" d="M392.47,816.51c-2.22,5.56-8.41,9.62-13.34,6.57-5.5-3.41-5.45-10.41-6.42-16.09-1.35-7.92-1.73-15.82,3.11-22.47,2.65-3.64,6.49-5.9,10.87-5.11,13.22,2.4,9.59,27.56,5.78,37.1ZM384.33,788.09c-4.47,2.86-3.16,21-.76,25.87,4.28-4.95,5.1-28.64.76-25.87Z"/>
    <path class="cls-1" d="M435.31,786.06c15.26-.56,15.09,43.63,1.34,47.01-9.31,2.29-10.61-12.08-11.17-17.71-.82-8.2-1.15-28.9,9.83-29.3ZM435.86,821.11c2.94-8.25,3.14-16.94-.03-25.18-2.81,3.58-2.2,7.54-1.69,11.66.58,4.68-.37,9.12,1.72,13.52Z"/>
    <path class="cls-1" d="M417.83,790.63c5.4,9.34,4.75,39.44-7.62,40.54-10.37.93-10.26-13.43-10.53-19.05-.35-7.52-1.11-25.31,9.64-26.3,3.56-.33,6.61,1.52,8.51,4.8ZM410.49,795.04c-2.86,2.18-1.74,5.33-1.69,8.14.09,5.94-1.36,11.52,1.09,17.27,3.08-8.22,3.63-16.93.6-25.41Z"/>
  </g>
  <g>
    <path class="cls-1" d="M492.08,583.73c6.21,2.2,9.98,7.83,10.7,13.3.88,6.66-1.27,13.41-7.16,17.02-8.1,4.97-19.7,1.84-24.07-6.57-3.49-6.71-.5-13.68,3.79-18.91,4.15-5.05,9.82-7.3,16.74-4.84Z"/>
    <path class="cls-1" d="M365.41,571.04c7.25,3.52,10.54,17.66,7.14,23.99-3.5,6.53-9.93,9.65-17.28,7.34-5.67-1.78-10.17-5.5-11.31-11.74-1.23-6.75.76-14.31,6.23-18.83,4.33-3.57,10.15-3.21,15.22-.75Z"/>
    <path class="cls-1" d="M439.69,604.73c2.09.07,3.4,1.09,4.09,1.92,1.74,2.09-1.14,16.17-12.23,18.58-9.46,2.06-20.13-3.65-23.01-13.06-1.48-4.85,3.49-8.32,7.63-8.19l23.51.75ZM433.92,612.94c-5.61-.22-9.63-.46-14.76.06,2.46,2.92,6.23,4.74,10.25,3.98,2.31-.43,4.31-1.93,4.51-4.05Z"/>
    <path class="cls-1" d="M517.99,585.15c2.02,1.98,2.08,4.64.78,6.22-5.7,6.94-13.95-11.45-27.17-17.91-2.28-1.11-3.07-3.47-2.26-5.45,2.56-6.23,12.91,1.71,15.87,4.6l12.78,12.53Z"/>
    <g>
      <path class="cls-1" d="M359.58,352.99c-4.81-6.27-14.18-6.99-14.96-31.67l-7.24-227.98-5.42-6.36c-5-5.87-3.73-15.31-4.12-23.27-.44-9.1,2.2-16.91,5.15-25.21,1.12-3.15.72-5.49,4.64-6.78,52.82-17.35,141.97-18.7,196.91-9.43,12.01,2.03,23.3,4.94,34.34,9.36,4.85,1.94,6.2,4.54,7.59,9.22,4.55,15.25,5.57,36.39-3.45,50.04l-14.9,238.43c-.33,5.36-1.73,8.76-4.73,12.29l-12.13,14.31c-4.14,4.88-9.52,28.07-39.27,38.11-1.25,7.1.7,25.02-7.66,25.84,1.23,3.63,3.89,6.59,4.21,11,23.65,2.59,13.63,10.52,39.25,8.67,4.95-.36,9.54.05,14.39-.59,1.13-4.39-.6-8.75,1.06-12.72.84-2.02,16.22-5.85,19.15,1.87,1.97,5.17.67,10.46,1.19,16.2,16.97,1.46,6.47-3.87,22.69-2.97l38.19,2.1c20.7,1.14,39.93,3.94,48.72,25.17,2.49,6.02.77,13.39,2.62,19.28,4.01,3.5,6.45,6.3,6.55,12.79l.42,27.15,5.37,4.84c5.32,4.79,6.05,12.57,2.16,18.71-2.4,3.8-1.84,6.31.61,9.82,6.92,9.93.34,25.45-12.73,29.19l4.73,40.55c2.89,24.74,5.6,48.7,6.61,73.68.53,13.16,1.2,25.45.14,38.58-1.62,20.19-2.39,39.92-6.71,59.6l-6.51,29.68c6.29,11.57,10,12.32,5.43,26.22,4.48,11.72,8.59,13.2-.46,25.35,13.02,26.07,9.67,19.5,10.41,45.29.43,14.72-29.45,17.25-31.01,18.04-19.13,9.63-37.5,18.89-58.78,24.07-27.5,6.7-54.54,12.04-83.18,11.94-41.67-.15-94.84-4.53-136.25-10.28-12.57-1.75-25.64-3.68-36.96-9.53-6.82-8.01,2.5-20.08,2.15-21.91-.21-1.09-1.43-1.74-2.23-2.81-6.83-9.16-9.64-20.16-10.15-32-12.61.31-24.41,1.05-36.78-.13-5.11-.48-9.31-5.24-10.96-9.97-3.8-10.87.47-22.78,10.05-29,10.9-7.07,22.53-10.61,35.67-12.74-.24-6.35,3.62-9.87,6.35-14.28,2.42-3.89,3.08-8.75,8.1-11.31l-9.25-66.5.51-8.13c.5-8.06,4.56-14.74,11.39-18.8,9.87-5.88,20.51-9.26,32.13-11.57,36.55-7.27,73.8-7.41,110.52-1.11,12.29,2.11,45.38,10.68,48.76,23.53,2.1,7.98.99,15.5-.38,23.72l-10.88,65.36c4.11,4.6,7.36,9.99,5.32,16.74l5.86,7.36h19.09c16.18.02,39.78,1.52,54.53,8.27,1.92-4.57,3.55-8.08,4.69-12.28-2.41-3.68-6.07-7.01-5.81-11.69.37-6.7,5.3-11.88,10.69-15.97-.75-7.18-1.65-13.83-2.92-20.84-7.53-41.61-3.64-68.3.52-109.24,2.78-27.35,7.09-53.7,10.4-80.92l3.44-28.27c-10.4-3.83-15.24-15.06-11.85-24.98.66-1.92,2.48-3.05,2.67-5.18-4.47-5.17-6.12-11.07-5.15-17.88.78-5.5,6.16-9.53,10.44-13.67,4.83-12.53-5.34-38.27,10.44-42.52,1.91-1.73,1.69-7.8-.79-9.11-4.92-2.6-10.49-1.51-15.78-1.69l-40.42-1.4c-15.51-.54-7.96-7.07-21.97-3.94-1.14,8.89.14,22.58-12.14,21.85-3.48-.21-6.71-1.52-8.5-3.58-2.62-3-2.13-6.6-1.97-11.08l-22.51.12c-7.38,7.08-15.95,10.85-26.25,10.41-.84.12-1.01,1.61-.37,2.23,14.2,13.84,27.84,27.23,41.21,41.95,16.24,17.88,28.26,38.4,34.99,61.59,2.47,8.49,3.6,16.73,4.24,25.42,1.68,22.72-5.37,43.9-19.23,61.83-13.16,17.02-30.86,30.11-52.34,34.11-14.4,2.68-28.53,2.9-43.31,3.33-14.04.41-27.74-1.17-41.75-2.03-19.12-1.18-35.8-9.17-52.17-18.24-31.06-17.23-43.86-42-47.45-76.95-1.59-15.52,0-29.65,4.97-44.34,1.05-3.1,1.45-5.71,2.91-8.76,6.4-13.43,13.88-25.2,22.87-37.19,12.87-17.14,27.24-32.39,45.71-43.72-2.6-8.54-2.54-16.24-2.59-24.39-.05-8.98,3.41-16.31,6.18-24.54,1.69-5.04-.25-11.46,4.93-15.86-7.59-4.51-7.6-20.21-8.65-27.86-5.59.1-10.21-.98-14.41-3.73-26.09-17.1-24.17-30.21-28.85-36.31ZM344.53,864.15c-12.4,2.03-42.58,9.3-38.93,26.74,7.64-8.62,16.88-14.87,28.04-18.14l13.71-4.01c-.58-1.94-1.34-3.08-2.81-4.59ZM347.89,877.63c-5.44,1.08-9.25,2.6-13.69,3.97-8.92,3.3-16.89,8.45-22.64,16.63l34.22.31c.21-7.29,1.08-13.77,2.11-20.9ZM492.19,490.33c-5.01,2.65-8.85,2.37-13.15,3.32-15.53,3.44-30.8,4.76-46.94,4.17-8.53-.32-16.35-2.95-24.79-3.9-24.6,15.13-39.43,35.77-55.45,59.15,2.95.69,10.5-2.76,11.14,2.61.25,2.09-.29,3.6-2.72,4.55-5.41,2.12-13,4.31-16.22,9.74-4.91,8.29-6.42,18.07-8.47,27.31-1.43,6.42-.32,12.48-.03,18.84.59,12.79,3.49,24.5,8.28,36.13,6.93,16.82,19.9,27.91,35.12,36.76,18.66,10.84,37.63,17.22,59.47,17.84,23.78.68,46.96,1.99,70.55-2.22,19.33-3.44,35.01-15.17,46.87-30.28,13.24-16.88,19.57-36.81,17.68-58.36-2.94-33.38-20.34-62.72-43.31-86.42l-38.04-39.24ZM567.35,41.17c-18.27-8.38-44.15-11.94-63.63-13.56-49.49-4.12-112.85-2.04-161.03,11.97-7.86,10.48-7.99,32.72-2.03,44.48,18.86-10.49,45.31-15.15,66.17-17.25,50.15-5.03,112.98-1.98,161.34,14.4,4.55-13.57,4.2-27.15-.81-40.04ZM396.51,279.44l.89-69.86.83-71.6.69-47.46c-6.95-.5-12.12-4.26-12.6-11.56-13.93,2.47-27.4,5.87-39.83,12.44l7.3,228.98c.3,9.48-.15,20.8,11.56,24.3,5.71,1.71,1.61,11.33,9.66,12.44,6.6.91,13.44.59,20.22-1.31l1.27-76.38ZM535.64,844.3c-10.67,4.62-20.43,10.95-31.84,12.61-18.44,2.69-36.69,4.53-55.58,3.36-28.74-1.79-56.39-9.31-82.84-19.53-1.58-.61-2.61-2.85-4.3-1.77-.77.49-1.61,2.12-1.67,3.3-.22,4.21-2.68,5.7-5.3,8.42-1.87,1.94-2.16,7.37-.58,9.72,1.56,2.31,3.86,5.54,6.29,6.88,10.29,5.63,21.19,7.76,32.5,10.83,28.43,7.7,57.08,11.63,86.52,9.62,19.06-1.3,36.32-6.74,54.21-13,5.61-1.96,11.57-7.42,8.55-13.53-.81-1.64-4.04-2.15-4.32-3.53-1.27-6.11,2.9-10.15-1.64-13.37ZM538.15,881.99l-16.81,5.8c-20.51,7.08-41.36,10.3-63.23,9.63-24.33-.75-47.38-4.69-70.72-11.05-10.49-2.86-20.44-5.26-30.3-9.92-3.96,16.82-5.71,44.71,7.01,58.26,7.37-6.44,15.85-9.09,25.14-8.29l38.53,3.3,78.61,1.04c8.82.12,17,.15,25.61-.78,5.62-11.16,7.82-34.92,6.14-47.98ZM511.69,786.99c1.6-2.84,4.98-4.07,7.56-4.04,7.87.08,8.71,11.02,8.1,17.63,2.93-7.92,1.14-17.12,12.77-16.9l2.08-15.52c-9.83,5.37-19.32,9.01-30.36,11.27-40.37,8.25-82.16,8.28-122.44-.41-11.24-2.42-20.74-6.15-31.03-11.99l8.98,63.4c1.17,1.51,3.47,2.79,5.46,3.5,23.83,8.47,48.1,15.21,73.62,17.06,18.55,1.35,36.61-.26,54.8-2.98,10.62-1.58,20.1-6.81,29.34-11.57,1.74-2.52,1.4-6.72,1.88-9.49-5.86-.66-7.64-5.03-7.47-10.54-2.02,6.61-7.28,16.65-15.03,13.43-1.97-.82-4.62-3.35-4.92-6.54-1.94-20.27-1.28-22.21,6.65-36.31ZM492.43,773.57c11.83-1.54,53.36-9.1,51.5-24.14-8.09-6.78-17.22-10.83-27.56-13.58-38.52-10.24-92.65-10.53-131.05-.08-7.06,1.92-26.05,8.28-26.64,15.93-.84,10.8,34.43,19.56,44.32,20.65,2.77-14.2-2.11-15.83,8.96-23.51,9.56-6.64,20.97-9.26,32.75-8.45,12.71.88,25.28,1.62,37.26,6,4.13,1.51,6.98,5.93,10.45,8.13l.02,19.05ZM692.66,916.34l-18.14,5.98c-15.84,5.22-49.5,39.8-142.96,37.94-16.52-.33-31.9-.17-48.38-1.95-23.46-2.54-46.25-3.58-69.77-4.88l-30.46-1.69c-6.71-.37-14.73-.72-19.16,5.59,16.65,5.78,32.87,7.17,49.33,9.2,33.03,4.07,78.93,7.42,112.16,7.75,25.88.26,50.54-3.72,75.56-9.54,15.41-3.59,30.28-6.64,44.08-13.87l23.91-12.52c7.05-3.69,18.21-.45,23.7-8.21,1.94-3.61,1.05-9.23.13-13.8ZM632.46,912.22l-7.64-2.53c-19.67,29.67-92.64,30.22-124.64,30.01l-61.73-.41c-16.68-.11-42.24-4.17-53.79-3.58-6.14.31-11.64,2.57-15.95,7.79,5.02-1.39,10.34-1.27,16.01-.91l24.76,1.55c28.1,1.76,55.31,3.41,83.58,5.67,22.83,1.82,44.78,1.8,67.47.45,31.48-1.87,77.89-13.52,104.14-31.87-4.9-3.79-9.83-3.56-14.95-4.16l-17.24-2.01ZM527.93,361.72c-18.18,5.72-35.36,5.47-52.49.56-18.62-5.15-40.49-9.04-59.12-2.91-8.64,2.84-17.16,5.32-26.18,6.92-4.68.83-9.21-.42-13.83.73,5.15,6.49,11.61,11.6,18.05,16.09,3.57,2.49,6.39,1.03,10.05,1.2,25.21,1.18,49.87,1.89,75.15,1.23,20.48-.54,20.61,3.04,36.57-9.45,5-3.91,9.8-7.97,11.8-14.38ZM490.46,93.17c.83-3.71,2.8-6.01,6.17-6.06,4.74-1.32,24.39-.85,19.43-8.8-40.24-5.64-80.65-6.43-120.93-.85-3.09,6.56,23.03,7,25.46,5.38,2.83,1.73,3.16,4.54,3.88,7.69l-1.73,75.6,63.87,1.91,3.86-74.89ZM422.75,175.21c-3.34-.11-7.97-1.71-8.94-4.74l1.36-77.91c-2.6-.85-4.71-.85-7.16-.07l-.34,19.59-.87,70.67-.9,71.64-.92,71.58c-.12,9.32-.38,18.07-.13,27.31,8.45-2.39,15.52-5.17,23.76-5.83,16.4-1.31,32.28,1.24,47.96,5.7,6.65,1.89,12.97,3.65,20.38,3.93l9.62-261.87c-2.44-.7-5.07-.41-7.18.95l-3.99,76.53c-.24,4.52-6.28,4.62-9.51,4.52l-63.13-2.01ZM493.5,444.3c-2.42,4.26-5.54,4.6-9.21,5.61-19.81,5.41-39.91,6.12-59.85,1.25-4.5-1.1-8.7-1.6-12.66-4.59-4.13,12.99-3.64,25.83.36,38.53,27.67,7.12,56.54,5.16,83.17-5.53.99-5.95-.1-11.55-.43-17.51-.33-6.18.29-11.57-1.39-17.75ZM425.25,755.87c15.77,5.17,31.79,4.6,47.31.14,2.43-.7,4.51.36,5.21,2.22.6,1.6.2,4.61-2.09,5.37-17.53,5.83-36.11,6.13-53.78.67-1.82-.56-3.25-1.28-3.76-2.31-.92-1.86-.26-3.2-.24-5.46-1.77.68-3.44,1.67-4.82,2.6-1,4.72-1.65,9.49-.66,14.7,23.87,3.08,47.49,3.24,71.45.84-.19-5.32.96-10.4-.22-15.18-1.11-4.54-6.53-6.12-10.45-6.95-15.13-3.22-43.66-6.79-55.71,3.88,2.8-.07,4.8-1.61,7.76-.51ZM492.88,393.66l-80.37.26c-.02,6.33.65,11.95,2.96,18,25.08,6.06,51.08,6.84,76.16-.24,1.5-5.95,2.13-11.65,1.25-18.02ZM489.96,433.45c.77-4.01-2.97-10.07-6.59-10.93-20.81,4.45-40.39,3.02-61.23.89-5.67-.58-9.78,13.47-4.16,15.83,20.62,8.68,43.06,7.9,64.46,2.58,3.59-.89,6.71-4.09,7.53-8.37ZM551.95,448.11c-13.27-.6-24.39,2.77-35.58-2.14-4.34-1.9-7.53-5.17-13.22-5.74l1.87,37.56c14.86.38,15.14-11.09,27.42-10.69,6.55.21,12.86.33,19.45-.45l.07-18.52ZM550.6,302.9l13.28-213.29c-13.03-4.41-25.94-7.96-39.19-9.59.71,7.16-2.88,11.29-9.05,12.51l-9.73,264.51c9.26-.42,18.67-2.17,26.72-6.66,2.1-1.17,3.89-4.17,5.74-5.98,12.39-12.1,11.1-23.36,12.23-41.5ZM518.2,792.93c-5.4,8.43-5.88,17.9-4.2,26.7,3.25-8.96,5.69-17.79,4.2-26.7ZM534.37,817.96c1.15-8.12,3.33-14.99,3.23-22.99-.4,1.03-6.74,23.92-3.23,22.99ZM538.23,792.77c-.31,0-.57.25-.57.57s.25.57.57.57.57-.25.57-.57-.25-.57-.57-.57ZM599.71,912.44c-17.07-7.17-35.11-9.62-52.97-8.72-1.08,9.11-2.3,16.52-4.94,25.55,20.7-1.06,43.81-4.34,62.43-13.1-.74-1.98-2.38-2.84-4.52-3.74ZM611.89,910.15c4.06.47,5.78-7.3,3.37-9.93-4.1-4.48-8.96-7.4-14.73-9.43-17.04-5.96-34.59-8.63-53.21-9.73l.31,13.06c21.34.55,46.86,3.24,64.26,16.02ZM582.56,868.86l-27.78-.54c-1.46-.03-3.77-.52-4.77.83-.61.82-1.6,2.39-.67,3.57,20.16,1.56,58.84,5.14,72.36,20.95l7.17-10.81c-5.58-9.96-36.82-13.82-46.31-14.01ZM564.46,433.15c-1.1-.42-3.59-.6-3.6.55l-.44,46.18c0,.99.71,1.41,1.12,1.46,2.76.39,3.16-6.87,3.14-9.46l-.22-38.73ZM579.68,453.48c-2.8.03-4.29-.13-5.96.38-.06,2.07-.22,3.49.15,5.08,2.05.24,3.6.18,5.68-.07.37-1.75.62-3.49.13-5.38ZM675.59,498.54c.07-8.52,1.16-15.94-.32-23.59-1.98-10.22-10.64-17.38-20.46-19.7-8.09-1.91-15.62-2.72-23.9-3.23l-40.27-2.47c-1.89,2.59-2.26,5.72-2.39,8.74-.16,3.7,2.37,5.47,6,5.58l56.15,1.69c8.54.26,13.26,7.36,12.94,15.26-.25,6.1-.21,11.59-1.48,17.47,5.1,1.06,9.03,1.23,13.74.26ZM685.49,891.27c-3.94,2.04-6.66,1.69-9.88,1.83-11.46.47-32.11,3.42-40.45-4.33-2.21,3.44-6.72,7.65-5.91,11.86,4.57,6.8,35.86,1.92,42.1,13.03,7.56-1.07,14.5-3.05,21.18-6.36-2.18-5.78-3.97-10.84-7.04-16.03ZM685.18,848.13c-1.1-4.44-3.44-6.59-5.28-9.77-13.14,4.18-26.32,2.47-39.42-1.86-2.74,1.15-6.95,4.24-6.44,8.05.41,3.04,4.18,7.7,7.08,9.15,10.97,5.5,27.34,7.31,39.35,4.32,3.09-.77,5.4-7.08,4.7-9.89ZM685.38,865.73c-6.31,2.55-11.85,2.09-17.79,2.31-14.74.53-15.9-1.54-29.73-5.1-.92,2.38-3.38,5.24-2.84,7.99,1.01,5.14,4.86,9.22,8.59,12.51,6.59,1.84,12.75,1.64,19.49,1.38l16.57-.63c3.42-3.46,6.45-6.94,8.59-11.17-.38-2.77-1.08-5.13-2.87-7.28ZM684.61,636.17l-4.88-44.88-24.11-.23-3.18,25.13-8.92,66.99-4.3,39.54c-2.43,22.38-3.9,44.5-.81,66.81l5.31,38.4c10.73,4.51,22.34,5.86,33.32,2.49,6.34-20.81,8.93-41.45,11.38-63.02,5.28-46.46,1.26-84.47-3.83-131.23ZM690.64,551.63c1.3-2.43,2.69-4.98,3.5-7.59.61-1.97-1.75-6.93-3.93-6.53-13.91,7.09-30.28,7.28-43.37-1.2-3.52,1.18-5.73,5.02-5.98,7.81-.34,3.83.99,7.15,3.89,9.78,2.67,2.42,3.78,6.77.51,9.76-4.11,3.76-4.83,12.32,1.16,15.47,7.83,4.12,17.6,3.52,26.45,3.53,7.16.01,17.82.9,21.24-8.83,3.51-9.99-8.89-12.05-3.47-22.19ZM683.6,506.78c-11.45,1.97-20.93,1.01-31.41-1.4l.1,23.81c9.43,6.22,21.37,6.69,31.59,1.81,1.13-8.19.67-15.88-.28-24.22Z"/>
      <path class="cls-1" d="M503.18,798.29c.14,13.24.3,27.36-10.78,35.51-2.25,1.65-4.88,1.88-6.87.74-2.21-1.26-3.34-3.4-3.37-6.31-.12-10.01-.56-42.39,16.48-36.06,2.59.96,4.5,2.26,4.54,6.11ZM494.52,801.56c-3.26,7.6-2.94,14.22-3.75,21.33,3.78-6.54,4.79-14.2,3.75-21.33Z"/>
    </g>
  </g>
</svg>