<?xml version="1.0" encoding="UTF-8"?>
<svg id="Layer_1" data-name="Layer 1" xmlns="http://www.w3.org/2000/svg" viewBox="0 0 1000 1000">
  <defs>
    <style>
      .cls-1 {
        fill: #fff5e1;
      }
    </style>
  </defs>
  <path class="cls-1" d="M509.48,662.13c-10.86,3.34-22.24-.02-29.8-7.81-6.92-7.13-9.34-17.31-5.28-26.88,3.27-7.73,11.39-14.04,21.07-14.89,11.07-.97,21.56,3.14,27.84,12.54,4.4,6.58,5.67,14.48,2.35,22.93-2.19,5.58-7.8,11.54-16.18,14.11ZM515.07,639.96c.59-10.42-9.04-16.15-18.06-15.1-6.11.71-10.94,4.17-11.98,9.37-1.13,5.67,1.65,11.21,6.71,14.12,4.59,2.63,9.2,4.03,14.26,2,3.6-1.44,8.73-4.25,9.07-10.39Z"/>
  <path class="cls-1" d="M669.33,661.21c10.03,22.71,5.63,59.4-6.01,82.63-8.11,16.18-18.98,36.18-36.59,43.88-37.51,16.41-101.54,20.16-142.85,17.95-29.95-1.6-59.23-5.69-87.84-15.11-2.58-1.93-8.29-4.66-10.83-7.18-24.43-24.27-38.61-57.78-41.56-91.87-1.99-23.02,8.82-25.03,2.52-44.12-2.71-8.21-2.49-14.58-1.17-22.68,1.75-10.8,2.46-22.38,10.15-31.07,5.99-6.77,14.45-13.88,14.69-23.89.24-10.24,1.45-19.26,8.91-27.13-12.96-24.69-12.6-53.26,1.65-76.25,2.64-4.25,7.23-6.6,10.38-10.62.52-13.84,9.17-23.63,23.62-27.23-5.46-7.66-10.18-13.33-14.13-20.33-14.35-25.43,6.49-43.75,6.66-47.03.1-2.01-1.11-3.52-2.41-5.57-18.52-29.29-34.98-59.53-55.14-87.63-3.68-5.13-3.06-8.46-2.07-13-2.51-12.17-29.01-41.25-20.57-51.46,5.01-6.06,21.17,7.77,34.65-2.26,5.07-3.77,11.63-.92,16.39-2.83,32.85-13.18,40.55,5.89,51.75,5.52l15.84-.52,18.36-5.4c13.26-3.9,32.82,12.81,48.61,8.91,21.79-5.39,26.23,5.68,38.85-.7,15.48-7.82,31.15-8.79,47.94-8.25,10.16.33,18.57,5.6,27.76,6.64,12.87,1.45,25.81-2.72,38.47,3.99,1.83.97,5.72-.43,6.41,2.07.63,2.3,1.25,5.27-.17,7.66l-22.18,37.56c5.39-.03,7.94-.29,9.97,1.95,2.27,2.52,2.5,5.8.7,9.05l-50.42,91c-2.41,4.34-1.54,6.46,1.7,9.98,6.34,6.9,10.1,17.98,7.85,27.52-2.79,11.84-9.78,21.6-16.74,31.13-2.68,3.68-2.35,5.96.1,9.55,5.28,7.74,3.63,17.14-3.95,22.47-9.47,6.66,13.37,21.95,20.66,48.61,2.48,9.09-.43,17.57-7.45,23.99l57.47,130.08ZM413.27,210.22c-8.23-5.49-17.13-6.37-25.22-2.66,6.75,7.85,17.02,7.5,25.22,2.66ZM486.29,214.54c-7.49-4.02-15.23-6.42-23.69-4.33,7.85,4.73,15.95,5.16,23.69,4.33ZM607.14,211.32c-15.59-3.49-31.87-3.08-46.4,4.17,10.9,6.98,35.1,1.08,46.4-4.17ZM544.65,222.81c-13.19-5.98-26.85-5.81-39.96-.23-19.92,8.48-37.54,4.06-56.56-4.34-7.02-3.1-13.88-2.82-20.94.27-18.88,8.28-33.96,12.37-49.92-3.93-8.82-9-11.4,4.79-35.41,3.26l23.32,41.1c29.84,8.81,59.55,13.31,90.18,14.78l21.71,1.05c47.21,2.27,106.65-.62,153.06-11.67l27.12-45.33c-13.17-3.59-25.39-1.68-37.47,2.39-30.72,10.34-45.56,16.04-75.12,2.65ZM641.18,273.54c-32.8,7.63-61.2,11.31-91.59,13.12-19.24.39-37.8,1.69-56.89,1.02l-29.23-1.03c-31.47-1.1-61.7-5.36-93.52-13.18l39.16,64.12c4.89,8.01,9.66,15.19,13.88,23.84,52.27,13.85,118.21,10.03,171.07-.81l47.12-87.09ZM585.36,431.61c7.98-14.44,13.22-18.92,20.61-33.2,4.07-7.86,1.77-22.08-6.66-25.65-61.08,10.88-125.33,15.92-184.97-.68-17.12,19.23-.48,36.3,12.79,52.2,1.42,1.7,1.69,4.89,3.47,6.18,5.77,4.18,10.1,8.54,11.62,16.47,16.31-.24,32.01,1.41,48.19-.34l67.12-7.23c9.52-1.03,19.33-2.47,27.81-7.75ZM426.49,472.31c-7.97-5.2-11.33-13.68-7.46-21.27,2.08-4.08,6.85-4.08,11.01-5.99-4.56-6.06-11.34-5.89-17.42-3.58-4.83,1.83-9.36,6.21-9.26,12.63,7.22,1.96,12.92,8.01,11.61,15.48-.43,2.46-3.51,6.14-1.83,8.73,4.3,2.29,11.7-.73,13.35-5.99ZM430.06,459.62c42.54,6.81,81.69,4.32,124.12-1.19,6.43-.83,39.6-7.46,39.99-12.97.08-1.08-1.06-4.33-2.07-3.89-11.31,5.04-22.57,8.16-34.99,9.55l-69.7,7.77c-15.79,1.76-31.07-.16-46.74.19-3.4.07-7.51-3.65-10.61.55ZM421.86,523.01c43.79,10.93,135.39,12.89,176.79.98,3.44-.99,6.4-3.68,7.71-5.66,7.67-11.64-21.36-41.14-23.76-55.1-24.08,8.4-58.83,10.77-83.7,12.12-18.46,1-36.39.47-54.81-1.94-10.19-1.33-4.35,17.59-34.63,17.3,19.63,19.55-2.57,28.56,12.41,32.3ZM392.61,521.36c-14.5-34.41,13.74-49.66,10.41-54.42-5.54-7.92-32.84,24.55-16.1,63.89,3.8,8.94,6.57,17.84,12.59,25.88,7.33-4.33-4.12-28.77-6.9-35.35ZM403.36,515.29c4.2-2.54,3.71-7.15,2.92-10.42-.54-2.25-3.05-4.88-6.3-5.91-.2,5.72.48,11.04,3.38,16.33ZM385.76,688.07c56.4-10.82,127.72-11.73,185.4-9.53,25.33.97,66.89,4.03,91.27,14.15,1.21-7.42.57-15.05-2.71-22.45l-59.19-133.49c-21.77,4.91-42.88,6.32-64.52,7.06-13.5.46-26.36,1.11-39.84-.16-27.81-.81-58.42-2.16-86.06-11.51,2.84,8.19,4.95,15.19,3.77,23.19-1.1,7.44-7.15,10.8-12.25,15.31-4.38,3.88-6.97,9.81-13.42,12.3,2.84,14.4-2.95,25.82-16.19,33.66,7,3.68,9.31,8.24,10.41,14.64,1.25,7.31-1.29,13.52-9.29,15.33-1.7,7.8,6,17.85-4.04,21.18-3.48,1.15-7.13,1.14-10.36,2.9-3.17,8.9-3.51,17.96-1.72,26.91,9.73-5.04,18.66-7.56,28.74-9.49ZM383.73,555.17c-2.45,4.68-3.7,11.9.31,15.66,1.6,1.5,4.53-1.37,5.07-2.66,1.79-4.34-.98-7.47-5.38-13ZM359.2,614.03c7.58-10.74,20.8-12.75,17.53-27.36-6.36,7.73-18.92,17.55-17.53,27.36ZM356.94,637.51c2.08.23,14.09-.39,13.52-4.61-.15-1.06-.55-4.07-2.15-3.91-4.07.42-7.61,1.63-11.58,2.76-2.09.6-2.19,5.49.21,5.75ZM362.04,650.25c.03-1.55-1.78-1.3-2.44-1.07-1.77.6-.54,11.56,1.18,9.18,2.68-1.38,1.21-5.53,1.26-8.11ZM625.81,712.04c10.04-1.82,19.31-3.72,29.18-8.08-15.94-9.46-67.13-12.67-86.44-13.42-55.17-2.16-126.28-1.13-180.16,9.66-7.57,1.52-14.5,2.96-21.5,6.88,19.56,10.03,68.26,12.63,90.93,13.47,50.98,1.89,118.03.55,167.98-8.52ZM619.76,777.77c7.91-2.63,12.37-10.16,17.88-15.71,10.32-13.34,18.44-27.49,22.6-45.91-13.35,4.01-25.25,7.33-38.82,9.27-41.03,5.89-81.56,8.26-123.21,7.88-27.65.38-53.83-.68-81.08-3.34-18.38-1.27-35.42-4.4-54.69-9.28,6.83,23.24,19.24,43.48,36.64,58.15,65.02,20.19,157.35,20,220.67-1.06Z"/>
  <path class="cls-1" d="M583.5,598.67c8.43,16.5,2.25,52.14-17.33,50.52-18.75-1.55-21.42-37.5-10.75-52.93-5.69-1.77-16.47,8.31-19.6,1.4-5-11.06,15.4-13.29,22.71-14.18,22.1-2.7,44.81,10.02,40.16,18.77-1.31,2.46-4.69,3.19-7.52,1.76-2.88-1.45-4.6-4.15-7.68-5.34Z"/>
  <path class="cls-1" d="M457.22,603.29c4.42,14.79-1.19,46.35-19.71,44.7-18.87-1.68-21.35-37.83-10.71-52.82-6.62-1.96-17.93,8.26-21.01.21-1.18-3.09.22-6.87,3.94-8.45,19.53-8.27,41.41-3.44,58.61,8.92,2.5,1.79,3.74,4.39,2.97,6.75-1.07,3.29-4.57,4.14-7.88,3.08-1.85-.59-2.5-2.41-6.21-2.4Z"/>
</svg>