<?xml version="1.0" encoding="UTF-8"?>
<svg id="Layer_1" data-name="Layer 1" xmlns="http://www.w3.org/2000/svg" viewBox="0 0 1000 1000">
  <defs>
    <style>
      .cls-1 {
        fill: #fff5e1;
      }
    </style>
  </defs>
  <path class="cls-1" d="M729.39,708.15c-22.11,24.12-77.34,41.28-109.32,49.31-55.73,14-111.73,21.34-169.49,20.06-52.01-1.16-102.31-10.72-150.54-29.48-16.71-6.5-31.53-15.05-46.54-24.28-13.69-8.41-21.78-22.44-22.89-38.41-.92-13.25,15.26-17.26,26.77-18.49-20.68-7.94-40.63-16.48-56.9-32.14-13.24-12.74-24.28-27.96-31.21-45.19-12.67-31.5-20.36-79.59-14.57-113.38,4.77-27.83,9.64-81.35,6.53-108.56-2.38-20.78-14.78-38.49-30.67-50.97-44.92-35.26-65.88-8.79-76.41-37.87-1.83-5.05-2.95-11.1.5-16.27,2.56-3.84,8.78-7.32,14.91-6.3,17.57,2.94,34.96,5.53,51.37,12.54,21.48,9.17,38,25.48,52.29,43.48,13.14,16.55,21.38,34.67,25.38,55.35,4.23,21.86,5.53,43.04,3.36,65.39-2.41,24.73-2.61,48.55-1.85,73.32.55,18.05,3.21,34.73,8.22,51.89,3.68,12.62,9.47,22.94,18.95,32.08,10.09,9.72,21.08,18.5,34.86,22.75l16.01,4.94c-3.46-23.76,6.49-62.96,19.45-84.02-4.09-12.21-2.59-23.65-.74-36,3.6-24.09,11.91-46.28,27.85-65.36-3.06-30.61,6.96-59.34,28.82-80.68-6.77-6.27-8.73-14.35-6.65-22.65,3.51-13.99,15.85-22.89,30.03-24.75,4.24-4.86,8-10.21,13.12-13.67,16.6-11.22,34.52-18.37,53.53-24.86-1.95-12.95,2.77-24.73,13-32.71,19.25-15.02,47.46-14.39,66.19,1.23,10.56,8.81,14.35,21.4,11.85,34.37,23.87,7.11,49.71,16.78,66.6,33.67,3.92,3.92,6.18,6.81,11.6,8.33,9.94,2.8,16.86,9.67,21.14,18.82l16-12.59c22.06-17.35,52.82-27.57,81.83-22.83,28.86,4.72,65.35,36.27,82.67,59.75,11.96,16.22,21.55,33.82,29.26,52.37l6.69,16.1,15.1,37.8c10.05,25.17,23.24,48.04,41.54,67.95,13.9,15.12,24.9,4.53,37.15,18.13,4.46,4.95,4.39,12.48.55,17.88-13.64,19.2-36.45,29.16-57.26,14.68-21.05-14.65-41.24-53.11-51.4-76.77l-23.51-54.71c-9.13-21.24-19.43-41.12-31.82-60.63-8.16-12.84-17.33-24.16-28.69-33.96-32.89-28.39-80.05-10.04-103.46,20.9,6.48,21.59,6.72,43.11,3.87,65.48,26.3,26.49,30.66,48.95,30.58,86.18,6.08,4.04,11.95,8.75,15.1,15.81,11.97,26.79,12.4,56.64,4.62,84.61,8.82,10.85,14.76,21.91,15.59,35.52,9.82-.96,17.53,4.79,20.04,13.89,3.15,11.41-.85,24.05-8.99,32.94ZM515.62,276.59c10.62-9,10.28-23.03.48-32.03-14.19-13.03-37.02-13.66-52.35-1.83-5.45,4.2-8.56,10.56-8.65,16.59-.09,5.93,2.63,12.09,7.54,16.45,14.68,13.02,37.62,13.84,52.98.82ZM266.99,658.69c3.18-4.76,8.21-27.38,7.45-28.65-2.32-3.86-26.95-2.45-55.56-31.29-10.63-10.71-17.46-21.78-21.73-36.19-5.85-19.72-8.68-39.08-9.07-59.9-.5-26.93.52-52.37,2.36-79.27,1.75-25.55-.73-51.06-9.95-74.94-9.21-23.83-26.53-42.86-46.14-58.38-10.09-7.99-21.02-12.96-33.41-16.17-5.32-1.38-34.86-9.85-36.01-4.42-.25,1.19.06,3.85.44,5.08,5.32,17.16,26.63-1.05,68.4,29.41,20.32,14.82,35.94,35.81,39.32,61.42,2.94,22.27,1.57,44.16-1.07,66.37l-6.42,54.17c-3.11,26.26,1.71,51.96,7.65,77.3,4.21,17.96,11.2,33.28,22.22,47.93,19.85,26.4,40.09,35.61,71.54,47.53ZM542.64,323.06c18.07-2.39,35.01-6.11,53.17-10.76-11.82-11.3-24.79-19.04-39.26-23.84l-27.26-9.04c-32.04,36.18-69.49,8.35-76.22,6.69-24.04-5.94-51.81,9.18-66.92,26.99,37.67,15.8,118.57,14.99,156.5,9.97ZM675.77,535.54c-5.62-2.47-4.28-5.96-3.95-10.24,1.27-16.73-1.27-34.11-7.49-49.75-4.86-12.23-13.78-21.01-22.85-30.32-1.8-1.85-.3-6.48.1-9.07,2.66-17.28,1.87-34.44-1.99-51.43-1.78-7.83-6.66-14.21-3.93-18.39.76-1.16,4.21-1.83,5.55-2.54,31.3-35.25,83.7-53.67,122.64-16.64,29.01,27.59,49.15,71.17,65.09,107.89l22.47,51.76c7.24,16.68,16.39,31.71,26.97,46.34s27.66,28.44,45.45,15.36c4.59-3.37,9.38-7.6,11.67-13.11-6.47-10.51-19.67-.47-36.31-18.21-18.54-19.75-32.22-42.68-42.74-67.73l-13.78-32.82-11.04-27.92c-15.28-38.62-43.16-73.65-79.25-94.73-9.55-5.58-19.44-9.4-30.72-9.07-22.81.67-45.24,7.86-63.85,21.36-8.96,6.5-17.16,13.24-25.34,20.49-5.07,4.49-9.42,8.86-15.9,11.58-17.21,7.23-34.49,11.84-53.32,14.03-41.98,4.87-83.41,5.25-125.55,2.34-30.64-2.11-46.42-2.27-75.43-15.81-19.59,17.98-28.59,44.04-25.79,70.48.48,4.49-1.06,7.7-3.72,10.85-14.73,17.36-21.45,38.6-24.58,60.84-1.56,11.06-2.87,21,2.17,32.08-12.83,20.89-18.77,43.62-21.15,68.01-.67,6.83,0,12.23,3.56,18.48l-3.45,6.92-18.85,67.26c97.28,48.6,246.14,52.75,348.61,25.54,27.26-7.24,53.5-16.05,77.09-31.25,12.52-13.68,7.36-46.66-6.46-60.36,10.71-24.24,8.47-54.5-.78-78.42-2.36-6.1-7.35-11.24-13.17-13.8ZM623.02,333.68c-1.94-6.27-11.12-14.77-17.41-12.85-50.25,15.3-100.64,20.14-152.47,16.29-23.75-1.77-46.04-3.77-68.54-11.22-4.49-1.49-8.1-4.61-10.95-8.1-7.17.95-13.6,7.52-15.18,14.51-1.17,5.15,1.11,10.36,5.61,13.12,13.13,8.06,27.29,13.1,43.05,14.73,49.14,5.09,97.85,6.18,146.99,1.26,21.75-2.17,42.04-6.4,61.51-15.64,4.23-2.01,9.31-5.87,7.39-12.11ZM242.57,683.9c.7,12.02,6.16,22.67,16.02,28.87,14.96,9.41,29.89,17.96,46.63,24.45,53.1,20.58,108.69,29.43,165.8,28.52,49.49-.79,96.95-7.58,144.73-19.5,27.23-6.79,52.63-15.15,77.78-27.23,15.04-7.23,40.37-21.97,33.8-42.02-1.04-3.18-5.16-5.47-7.14-4.08,1.04,4.44,2.2,9.13,1.17,12.79-33.86,27.74-88.44,44.64-131.26,52.5-77.81,14.28-157.36,13.25-234.77-3.01-32.21-6.77-62.24-16.76-91.44-31.13l-5.33-9.13c.7-5.02,1.89-9.46,3.3-15.18-6.15-1.04-13.3-.49-19.29,4.16Z"/>
  <path class="cls-1" d="M512.53,674.42c-1,7.62-1.4,14.29-4.04,21.04-5.87,15.02-25.03,22.22-38.07,12.14-9.82-7.6-12.36-20.54-13.11-32.42-52.96-2.47-110.29-13-155.11-42.15-2.35-1.53-3.29-5.52-2.36-7.74,1-2.39,5.49-4.35,8.22-2.61,51.68,33.01,119.16,42.02,179.9,40.77,62.47-1.29,122.92-13.1,181.99-32.53,2.9-.95,6.68.65,7.46,2.55,1.15,2.79.17,7.37-3.29,8.53-52.1,17.58-105.38,28.51-161.6,32.41ZM481.32,675.5l-11.91.31c.11,7.8,1.78,16.06,7.34,21.97,5.09,5.4,14.38,3.22,18.8-2.36,4.51-5.69,5.83-13.01,5.07-20.22-2.6-.4-7.02.05-8.3,1.23l-.95,12.59c-.19,2.56-4.24,5.08-6.44,4.63-2.9-.6-4.4-3.71-4.23-6.79l.62-11.35Z"/>
  <path class="cls-1" d="M324.37,542.95c-3.88-1.23-5.64-4.99-4.94-8.23.49-2.26,4.46-4.4,7.51-3.44,25.03,7.86,49.28,13.69,75.56,17.38,62.22,8.74,124.7,7.73,186.49-3.41,22.62-4.08,43.24-9.86,64.84-17.12,2.87-.96,6.97.64,7.88,2.97,1.07,2.76-.52,7-3.92,8.2-81.77,28.96-180.69,33.21-265.98,19.8-23.33-3.67-44.69-8.96-67.43-16.15Z"/>
  <path class="cls-1" d="M596.76,448.16c16.57-5.51,26.16-16.83,30.64-9.75,9.32,14.72-50.76,28.03-61.04,29.81-50.69,8.75-101.87,8.92-152.63.33-22.43-3.8-47.61-10.7-65.39-24.57-2.71-2.12-2.03-7.56-.11-9.22,3.17-2.73,6.59-1.67,9.61.87,14.69,12.36,42.01,18.76,61.32,21.8,54.2,8.53,125.23,8.14,177.59-9.27Z"/>
  <path class="cls-1" d="M381.59,633.57c-24.51,4.6-18.22-50.27-5.52-53.59,8.58-2.25,15.91,2.82,18.96,10.41,4.79,11.9,7.56,39.24-13.45,43.18Z"/>
  <path class="cls-1" d="M577.85,589.64c11.84,16.29,6.48,43.44-7.99,44.85-4.12.4-9.25-2.11-11.91-5.93-12.47-17.92-4.84-43.94,7.79-44.8,4.33-.29,9.28,1.98,12.11,5.88Z"/>
  <path class="cls-1" d="M584.83,572.67c4.3,5.85,19.16,24.03,11.18,27.69-2.29,1.05-5.99.15-7.44-2.14l-12.24-19.29c-.98-1.54-.34-5.56.9-6.74,1.41-1.35,6.35-1.23,7.6.48Z"/>
  <path class="cls-1" d="M354.63,590.34c-1.86,2.76-5.54,4.03-7.84,2.47-2.3-1.56-3.56-5.51-1.89-7.91l12.57-18.04c1.21-1.73,6.37-2.04,8.06-.45,1.45,1.38,1.57,5.39.25,7.36l-11.15,16.57Z"/>
</svg>