<?xml version="1.0" encoding="UTF-8"?>
<svg id="Layer_1" data-name="Layer 1" xmlns="http://www.w3.org/2000/svg" viewBox="0 0 1000 1000">
  <defs>
    <style>
      .cls-1 {
        fill: #fff5e1;
      }
    </style>
  </defs>
  <path class="cls-1" d="M285.51,363.73c-10.74-2.72-20.16-4.94-29.99-6.59-5.75-.97-6.43-5.29-10.74-7.43l-18.01-8.95c-2.6,9.57-1.26,17.45.48,26.06l5.92,29.23,15.75,68.21c3.06,13.27,6.8,30.75,21.54,30.48l18.72-.35c4.67-.09,8.73,2.59,10.9,5.27,8.9,11.01-4.4,28.35-13.43,36.4-17.74,15.81-37.06,1.07-52.71-8.27-8.25-4.93-12.11-10.51-15.93-19.01-12.42-27.62-22.55-55.26-34.27-83.29l-28.69-68.65c-4.36-10.43-4.25-20.77.88-30.89,9.94-19.62,37.08-45.3,55.21-57.17,7.55-4.95,15.35-5.64,23.75-2.78,8.71,2.97,17.65,4.59,26.01,9.49l17.28-13.11c2.69-2.04,5.55-.19,8.42.32,15.39,2.75,30.49,5.45,46.01,7.4,12.01-3.28,22.02-11.23,34-13.85,18.41-4.01,37.3-2.6,56.42-5.53l-11.97-52.79c-.81-3.55,1.19-6.46,4.14-7.64l43.2-18.68,41.52,15.82c2.77,1.42,5.71,4.44,4.93,8.13l-11.49,54.25,91.57,10.96,69.82,43.38,23.9,17.04c12.78,9.11,50.83,29.62,32.37,49.49l-89.8,96.62-16.01,70.32-4.67,42.51,17.53,21.4c2.44,2.98,4.83,5.8,5.44,10.16l21.49,155.71c.37,2.7.75,7.78-1.03,9.71-9.73,10.51-17.67,23.16-28.09,33.06-85,47.74-200.84,59.56-288.24,10.6-3.61-2.03-7.87-4.19-9.87-7.87l-22.81-41.92c-1.58-2.9-3.53-4.25-2.92-8.44l23.74-162.58c1.32-9.06,11.39-13.73,16.3-19.58.57-4.25-5.99-55.66-6.01-55.76l-40.56-160.9ZM454.78,274.66c1.62-20.83,3.25-40.49,2.7-60.88-.06-2.29-.36-4.05.54-5.45,1.22-1.89,3.23-1.93,5.21-2.7l25.81-9.97-30.98-11.86-28.73,12.88c6.73,5.39,23.73,5.91,22.51,13.91-1.68,10.95-19.45-2.06-27-2.24l14.28,60.43c1.37,5.79,11.09,7.26,15.66,5.89ZM465.84,273.91c4.26-.6,9.35-1.93,11.45-5.08l13.78-61.76c-8.89,1.53-15.41,4.98-23.11,8.33.42,11.6-.41,22.63-.97,34.29l-1.16,24.22ZM580.8,271.98l-73.13-9.42c-6.12-.79-11.81-2.76-18.27-1.14,6.74,2.46,12.69,2.2,19.2,3.38l86.51,15.75c-4.47-2.07-8.47-7.81-14.31-8.56ZM345.05,277.4l80.89-12.26c-.04-1.23.01-1.83-.18-2.22-.15-.31-.77-.86-1.67-.79l-56.24,4.29c-7.68,3.99-16.09,5.58-22.8,10.99ZM290.14,300.55l40.08-18.87-48.48-8.13-25.68,18.88,34.08,8.12ZM238.1,471.76l-11.85-52.01c-5.27-23.13-16.4-60.36-11.8-82.01,1.62-7.62,8.88-10.37,16.26-8.44,4.5,1.18,7.69,4.85,12.53,5.32l-4.5-27.27c-2.46-14.88,4.14-16.57,11.82-24.22-5.71-3.04-11.86-3.51-17.56-5.69-6.72-2.57-12.57-1.53-18.31,2.98-15.66,12.3-30.13,25.95-42.18,42-13.25,17.64-7.95,24.93-1.07,41.76l37,90.43c7.81,19.08,14.82,37.89,25.05,55.94,2.96,5.22,31.41,25.14,41.34,18.72,7.77-5.03,14.13-12.73,16.04-21.9-6.93-1.47-12.92.03-19.18-.08-21.83-.38-29.13-16.04-33.57-35.54ZM300.88,347.62l128.9-68.39c1.51-.73,1.88-1.46,1.34-2.41-.23-.41-.8-1.25-2.12-1.04l-89.27,14.07-41.87,19.35,3.02,38.43ZM509.64,276.64c0-.33-.27-.6-.6-.6s-.6.27-.6.6.27.6.6.6.6-.27.6-.6ZM343.29,277.84c0-.42-.34-.76-.76-.76s-.76.34-.76.76.34.76.76.76.76-.34.76-.76ZM607.44,348.39l-118.35-69.74c-1.65-1.61-3.59-1.42-4.81-1.44-1.18-.02-4.54,2.52-3.75,3.76l61.36,95.99,65.55-28.58ZM607.59,294.56l-97.71-17.27,104.64,62.31,23.87-32.64c-25.39-15.29-10.11-8.74-30.81-12.39ZM401.33,380.62l42.17-95.76c-2.91-1.81-4.18.31-5.58,2.6l-122.51,65.47c29.23,12.09,56.84,20.6,85.92,27.69ZM489.75,380.48c14.34-.22,27.24.6,40.72-.66l-61.23-95.55-14.12,2.08-41.96,95.29,76.59-1.16ZM286.73,311.95c-5.95-2.7-11.5-2.35-16.98-3.89-6.6-1.87-12.85-4.86-19.87-3.69l6.93,41.57,32.86,6.76-2.94-40.75ZM664.39,341.84c-.66-6.4,1.24-9.87,4.77-14.15-7.13-5.55-13.44-10.43-20.9-14.85l-21.94,30.05c13.07.88,25.16-.44,38.07-1.05ZM703.08,355.64c-7.07-8.61-17.35-19.51-27.6-19.62-4.43,14.36,18.62,20.61,27.6,19.62ZM698.96,366.72c-13.58-2.87-23.14-6.29-31.82-13.52l-37,1.24-6.93,94.12,75.76-81.83ZM593.48,537.08l16.91-72.61,8.51-108.36-73.22,31.46-15.74,184.08c23.72-7.06,45.39-17.54,63.54-34.57ZM407.46,571.14l-8.16-180.48c-31.48-6.99-60.5-16.68-90.97-27.91l25.33,143c2.68,8.18,2.22,16.8,6.39,24.17,9.15,16.17,47.57,37.35,67.42,41.22ZM518.56,574.62l15.66-183.4-88.2.7-35.58.67,8.39,181.85c33.04,7.79,66.69,7.52,99.72.18ZM588.82,587l2.69-33.08c-68.01,51.16-187.39,50.73-251.1-6.21l3.78,34.46c5.02,8.55,11.95,15.09,20.01,20.9,13.18,8.8,27,14.83,42.66,18.87,47.09,12.15,96.49,9.26,141.65-8.83,15.33-6.14,28.67-14.45,40.31-26.11ZM582.89,634.16c7.46-10.95,15.23-19.35,25.35-26.72-3.29-4.69-6.72-8.8-10.75-13.22-14.36,14.58-30.9,24.29-49.94,31.38-42.41,15.79-88.29,18.7-132.72,9.81-28.67-5.73-60.86-19.5-78.13-43.8-3.55.26-7.95,4.34-7.87,7.82,8.9,8.44,15.28,19.46,17.92,32.34,24.31-3.44,51.24,12.24,67.87,29.26,22.61-17.18,68.97-11,93.54-1.77,5.11-2.26,8.01-6.47,12.51-9.44,18.29-12.1,39.93-16.84,62.24-15.65ZM318.69,789.55l19.31-145.59c-.7-11.98-3.89-23.21-12.74-32.5l-21.85,151.14,15.28,26.94ZM611.26,798.02l23.06-27.06-21.48-153.84c-9.19,6.53-15.45,14.1-21,23.03l19.41,157.87ZM392.83,833.76l14.55-165.33c-13.63-13.89-29.95-22.93-48.72-26.23-2.71-.48-7.08-.57-9.39,1.38l-21.6,164.35c21.17,12.15,42.16,21.17,65.17,25.82ZM522.73,833.42c28.44-6.11,53.5-15.41,78.07-27.67l-19.57-161.02c-18.47-2.86-54.63,6.79-64.87,25.4l6.38,163.29ZM511.72,835.6l-6.55-166.22c-22.28-9.2-69.59-14.79-87.07,3.54l-14.34,163.46c36.23,6.66,72.76,6.04,107.96-.78Z"/>
  <path class="cls-1" d="M714.02,318.79c-2.45,2.16-8.28,5.2-10.14,1.06-5.32-11.79-7.33-24.73-10.23-37.62-11.07-5.62-20.47-12.85-27.96-22.6-15.96-20.75-16.49-48.08-1.48-69.73,36.61-52.79,133.84-57.14,172.14-6.4,15.1,20,15.46,45.93,2.09,66.93-19.53,30.67-60.94,45.69-96.61,43.9l-27.8,24.46ZM740.59,282.24c32.59,1.39,72.19-11.59,88.97-41.02,9.14-16.03,8.28-34.63-2.49-49.62-7.68-10.69-18.1-18.24-30.6-23.33-32.17-13.08-68.96-10.45-98.95,7.1-27.51,16.1-43.37,48.51-22.1,76.67,12.31,16.3,28.37,18.54,30.02,28.94,1.38,8.67,2.95,16.95,5.64,24.82,10.23-7.27,19.53-19.52,29.51-23.57Z"/>
  <path class="cls-1" d="M573.97,486.19c-25.7.92-30.23-54.49-8.96-75.42,4.33-4.26,9.64-6.77,15.8-5.77,20.47,3.33,26,43.94,10.23,69.9-3.61,5.94-9.66,11.03-17.06,11.29ZM587.25,448.61c-13.3.25-16.72-8.84-19.35-19.94-6.01,9.64-5.77,43.17,5.09,45.03,7.5,1.29,14.38-18.45,14.27-25.1Z"/>
  <path class="cls-1" d="M590.1,390.75c-.61,8.67-17.67.54-30.31,17.14-2.19,2.87-5.72,3.04-8,.93-8.17-7.58,13.52-26.18,35.27-23.78,2.83.31,3.15,4.12,3.04,5.71Z"/>
  <path class="cls-1" d="M727.41,200.91c4.24,15.06,6.72,29.89,8.63,45.01.53,4.21-2.4,6.65-5.71,6.65-8.45,0-4.95-10.61-8.67-10.97-9.94-.95-2.94,6.22-9.26,15.81-1.69,2.57-4.77,3.32-6.81,2.49-3.21-1.31-3.54-4.16-3.51-8.44-2.86,1.86-4.27,3.39-7.26,3.03-8.83-1.06-15.98-6.79-18.14-15.6-3.79-15.41.19-43.85,13.91-44.64,3.44-.2,6.49,1.86,8.38,5.23,2.68,4.79,5.61,18.43-2.42,19.2-4.94.47-5.24-3.33-6.49-8.04-4.1,7.17-4.02,15.91-2.3,24.04,2.01,9.52,12.37,6.91,13.21,10.67l1.58,7.1c5.75-11.14,3.05-57.33,16.81-58.16,3.46-.21,6.81,2.16,8.06,6.61ZM721.23,228.79c-1.51-4.06-.38-6.81-1.94-9.37-.9,3.54.36,6.33-1.05,9.65.91,1.01,2.48,1.39,2.99-.29Z"/>
  <path class="cls-1" d="M783.7,233.68c-1.52,2.95-1.88,6.35-1.41,10.17,8.83.76,16.61-8.15,21.01.22,1.27,2.41-.17,6.12-3.21,7.64-6.59,3.31-32.83,10.74-30.69-4.52,2.01-14.34,3.22-28.43,6.9-42.14,2.19-8.14,7.41-12.1,16.01-11.13,2.83.32,6.07.16,6.82,3.61.5,2.3-.37,5.2-3.36,6.55-2.43,1.09-5,.84-7.6,1.82-1.8,5.25-2.97,10.33-3.61,16.31,4.34,2.53,15.87-2.13,17,5.23.47,3.06-1.08,5.82-4.71,6.49-4.09.76-7.72.69-13.16-.26Z"/>
  <path class="cls-1" d="M765.48,225.07c1.42,7.72-9.14,6.35-13.48,8.56-1.99,7.61,3.45,23.54-6.09,23.5-3.11-.02-5.55-2.47-5.73-6.33-.7-15.41,1.33-30.15,2.38-45.66.24-3.62-1.11-8.93,2.37-11.03,5.29-3.19,11.78-3.34,17.62-5.21,3.68-1.18,7.13.61,7.83,3.74,1.9,8.53-10.94,7.38-16.33,10.39-.73,6.02-1.21,11.57-1.15,17.69,3.41,1.01,11.37-2.23,12.58,4.35Z"/>
  <path class="cls-1" d="M802.88,185.87c-3.75,2.37-9.78,6.33-13.15,1.89-1.17-1.54-1.59-4.63.24-6.57,3.97-4.19,11.93-7.47,14.52-2.42,1.18,2.29.94,5.47-1.62,7.09Z"/>
</svg>