<?xml version="1.0" encoding="UTF-8"?>
<svg id="Layer_1" data-name="Layer 1" xmlns="http://www.w3.org/2000/svg" viewBox="0 0 1000 1000">
  <defs>
    <style>
      .cls-1 {
        fill: #b92323;
      }
    </style>
  </defs>
  <path class="cls-1" d="M626.5,577.51c-4.82,16.55-14.4,24.19-28.03,36.75-2.68,2.47-12.04,5.18-13.58.51-3.94-11.98-5.73-24.4-8.94-36.69l-12.75-48.83c-.4-1.52-.09-5.14.86-6.2,4.11-4.54,23.76-3.51,30.12-2.75,12.48,1.48,24.19,9.94,30.17,20.73,6.35,11.44,5.68,24.38,2.15,36.48ZM614.03,549.34c-6.04-14.6-22.48-19.88-37.15-16.85l3.85,15.26,13.89,51.73c15.89-11.71,26.54-32.89,19.41-50.14Z"/>
  <g>
    <path class="cls-1" d="M652.4,593.98c-11.36,23.71-29.66,42.84-54.52,53.71-1.75,16.11-8.1,29.95-19.52,41.82-19.15,19.89-64.34,22.87-91.61,24.43-28.14,1.61-55.72.34-83.41-4.26-16.08-2.67-29.28-9.58-40.05-21.4-15.57-17.09-20.57-24.8-21.12-49.14l43.21-156.12c-11.57-3.43-35.4-10.36-36.34-22.68-1.11-14.71,19.69-19.84,31.84-22.4l19.64-4.13-55.47-116.51c-2.76-5.8,1.16-13.2,6.28-16.22,30.31-17.85,135.24-16.33,172.61-14.86,22.17.87,43.36,3.57,64.89,8.16,8.33,1.77,26.55,6.87,23.4,19.58,11.02.87,21.49,4.61,30.18,12.71,16.29,15.18,19.64,40.37,10.21,60.49-4.94,10.55-11.15,19.45-19.95,26.79-16.53,13.77-34.66,23.5-55.91,29.77,11.9,5.12,36.41,10.56,36.18,25.05-.21,13-18.91,15.51-28.03,20.36,20.39-.04,39.9,5.01,52.9,20.66,13.58,16.34,18.23,37.14,17.74,58.13-.2,8.79.66,18.1-3.16,26.08ZM554.57,319.48c14.27-1.64,28.25-3.01,42.32-8.71-21.09-7.89-42.05-9.23-63.3-10.43l-22.93-1.29c-20.89-1.18-41.63-1.12-62.5,0l-23.02,1.24c-19.36,1.04-39.77,3.59-58.08,8.4-.96.25-2.54,1.83-1.98,2.06,19.46,8.3,56.17,11.06,78.02,11.63,39.97,1.03,71.86,1.65,111.48-2.91ZM547.28,451.65c-2.97-.6-5.11-4.65-4.88-6.89.18-1.79,2.44-5.05,4.29-5.58l18.02-5.09c21.62-6.11,41.42-14.59,58.62-29.44,19.01-16.41,29.93-44.19,12.5-65.77-3.41-4.22-9.37-7.83-14.27-9.57-8.46-3-16.42.14-24.45,1.76-25.68,5.17-51.01,4.51-77.06,5.33-24.26.76-47.65.84-71.71.14l-26.96-1.16c-19.26-.83-37.45-4.42-56.94-8.21l52.47,110.06c5.41,11.35-16.49,11.96-22.44,12.38-11.03.76-21.62,3.15-32.03,8.95,6.93,5.17,14.15,8.04,22.27,10.19,48.61,12.9,104.65,14.5,154.83,12.19,11.26-.52,52.32-3.9,59.88-13.18-11.22-8.93-36.46-12.92-52.15-16.12ZM634.73,598.76c5.78-8.64,8.02-16.64,7.99-27.37-.06-19-2.75-38.45-15.22-53.58-15.88-19.28-43.11-17.05-65.88-15.01-1.62.15-5.18-1.36-5.87-2.75-.69-1.39-.44-4.25-.15-6.85-53.33,4.76-103.97,2.11-157.16-7.32l-42.35,152.83c-4.57,16.48,6.73,31.12,17.07,42.16,2.66,2.85,6.01,4.45,9.44,6.37,4.28,2.4,8.52,5.77,13.44,7,15.77,3.95,31.17,5.8,47.48,6.62,31.73,1.6,83.28-.34,113.38-12.21,17.48-6.89,27.77-26.37,29.14-44.68,1.05-13.99,21.52-4.65,48.68-45.23Z"/>
    <path class="cls-1" d="M542.97,570.92c-11.98,19.91-23.36,29.63-47.82,31.16-26.12,1.63-51.66-4.31-73.09-19.29-3.66-2.56-8.3-6.77-8.3-11.08,0-5.14,6.42-8.5,10.81-8.63,9.1-.26,17.57-.44,26.6.21,28.85,2.08,56.53,2.24,85.45-.41,1.74-.16,4.93.86,5.88,1.93.95,1.07,1.32,4.72.48,6.11ZM526,574.89c-20.85.96-38.97,2.13-57.97.98l-35.59-.62c20.63,15.21,80.38,26.08,93.56-.36Z"/>
    <path class="cls-1" d="M471.44,626.21c-10.15,1.95-13.55,17.17-20.97,10.42-5.75-5.22,7.37-21.16,22.35-21.99,21.43-1.18,42.44,13.94,33.9,19.2-8.26,5.08-15.19-11.49-35.28-7.64Z"/>
    <path class="cls-1" d="M452.09,538.17c-3.94,4.76-11.53,5.3-15.36.94-5.87-6.68-4.68-17.67,2.02-23.07,5.13-4.14,13.4-3.8,16.3,2.33,2.92,6.15,1.5,14.4-2.97,19.81Z"/>
    <path class="cls-1" d="M518.73,539c-1.42,3.48-5.25,6.04-8.1,6.32-3.73.38-7.71-1.86-9.51-5.41-4.61-9.06-.6-21.2,7.33-22.7,2.25-.43,7.03,1,8.26,2.85,3.82,5.74,4.78,12.19,2.02,18.92Z"/>
  </g>
  <path class="cls-1" d="M560.68,418.26c-2.73.17-6.43-2.19-7.48-3.76-1.17-1.77-.84-6.7.42-8.81l20.64-34.54,12.8-22.09c5.7-9.84,25.47-6.41,33.16.53,11.79,10.66,5.7,35.66-8.42,47.45-14.19,11.85-31.85,20-51.12,21.22ZM612.27,361.11c-1.59-4.55-9.92-5.07-14.27-4.44l-27.33,47.3c18.67-3.78,47.87-19.75,41.6-42.85Z"/>
</svg>