<?xml version="1.0" encoding="UTF-8"?>
<svg id="Layer_1" data-name="Layer 1" xmlns="http://www.w3.org/2000/svg" viewBox="0 0 1000 1000">
  <defs>
    <style>
      .cls-1 {
        fill: #b92323;
      }
    </style>
  </defs>
  <g>
    <path class="cls-1" d="M479.4,166.96c15.78,4.48,27.18,14.73,34.87,28.48,14.29,25.56,11.88,57.14-4.95,80.95-8.41,11.29-18.66,19.17-32.21,23.66l-161.61,13.77c-42.2-10.47-59.16-59.81-40.66-96.32,6.28-12.38,15.96-21.23,28.62-26.45,2.09-.86,3.29-3.42,6.08-3.75l169.86-20.32ZM503.76,201.9c-5.82-10.92-14.02-17.92-25.01-22.58l-163.41,19.58c-2.35.28-3.74,2.42-5.79,3.15-9.86,3.51-17.71,10.05-22.81,19.42-11.97,21.99-8.41,49.31,8.79,67.41,6.4,6.73,13.79,10.54,22.9,12.45l155.2-13.66c20.11-1.77,52.56-43.75,30.14-85.76Z"/>
    <g>
      <path class="cls-1" d="M906.99,715.88l8.43,86.91c.26,2.66-1.14,4.72-2.12,5.83-1.69,1.91-4.22.05-6.72,1.02l-230.58,89.8c-17.42,6.79-34.21,11.04-51.91,15.96-38.17,10.62-71.02,7.91-109.01-1.12-3.85-.91-7.32-.21-10.95-.61-10.29-1.12-19.66-3.37-30.09-5.56l-240-50.36c-8.11-1.7-16.4-9.15-15.71-17.47l6.83-82.98c.4-4.9.74-9.14,5.31-11.79,4.81-2.81,10.08-4,16.16-4.08l171.33-28.99,4.66-192.69-277.31,30c-11.58-4.97-38.09-2.67-47.18-8.59-9.16-5.96-11.13-20.16-12.84-30.43-2.34-14.05,1.41-27.14,4.88-40.42,2.61-10,7.69-18.29,16.63-24.37l318.57,11.45c2.92-28.98-7.25-17.63-7.99-29.69l-2.33-37.83-163.25,4.94c-5.12-1.16-6.8-9.02-6.76-14.03l1.55-209.93c.16-21.05,13.08-37.94,34.8-41.96l264.56-48.99c23.69-4.39,68.23-1.98,91.61,5.75l250.64,82.91c5.19,1.72,5.49,4.72,5.74,9.5l2.44,46.44c.25,4.8-4.43,7.73-9.07,10.2l9.01,474.52c3.67-.7,5.65-.72,7.34.24,2.06,1.17,3.01,2.92,3.35,6.42ZM125.82,459.85c-4.84-.43-10.4-3.36-15.05-.86-9.62,5.18-14.91,36.22-14.43,46.05.45,9.35,2.28,18.62,7.29,26.23,8.29,2.76,16.69,2.67,25,4.15,16.53,2.94,16.78-22.48,18.65-35.5,2.33-16.28-1.98-38.33-21.46-40.07ZM151.37,459.78c6.71,13.43,9.59,24.81,7.86,37.74l-4.09,27.1c-.77,4.28-4.13,7.72-3.89,12.03l306.72-33.19c7.91-9.63,8.16-22.28,1.35-32.7l-307.96-10.98ZM653.24,803.78c-7.83,1.24-14.25,3.23-21.86,4.88-20.63,4.47-41.18,6.18-62.26,8.6-42.03,4.82-50.95-3.37-73.26-2.92-5.53.11-7.93-3.18-12.71-3.93l-234.69-36.74c-4.84-.76-7.61-1.37-11.61-5.14l-6.47,70.5c-.23,2.45.43,5.62,3.53,6.26l250.59,51.77,51.32,8.79c55.33,9.48,81.12,1.1,133.94-16.71l232.99-91.55-7.53-73.68-241.96,79.87ZM647.3,792.87l83.2-27.98-311.39-40.22-176.61,30.05c-.79,3.83,1.76,4.82,4.73,6.33l259.08,40.44c19,5.12,37.53,6.16,56.76,4.08l53.34-5.77c10.46-1.66,20.05-3.84,30.88-6.94ZM830.23,262.23c-8.84,20.99-28.14,16.42-31.72,19.02-1.22.89-2.05,14.95-12.36,19.56-7.23,3.23-14.48,2.85-20.69-1.2-12.96-8.47-21.73-21.15-25.84-36.28-8.33-30.63-10.76-77.75,18.08-101.68l-114.87-35.67c-18.71-5.81-38.69-4.47-58.04-5.14-13.28-.46-24.99,2.57-38.06,4.73l-287.56,47.4-.68,63.8-1.55,145.98,316.59-10.37c7.08-.23,12.73,1.54,19.85.84l.99-83.72,1.19-132.05c.04-4.36,3.59-6.58,6.49-6.49,3.45.11,5.35,2.56,5.94,6.34l-.89,91.42-1.32,125.35,240.88,11.4-2.37-164.12c-.08-5.22,5.63-8.45,9.37-7.34l30.16,6.02c.14-6.76-.29-12.68-1.44-19.1l-57.76-17.79c16.88,21.42,15.06,56.63,5.6,79.09ZM632.83,97.09c-5.02-1.66-7.04-3.68-11.66-4.28-33.78-4.36-52.93-4.56-87.3,1.78l-250.41,46.23c-11.08,2.04-21.09,7.76-23.71,19.64l281.49-46.64c23.73-3.93,45.86-6.55,69.89-3.73l38.26,4.48,231.09,72.95c2.03-2.36,1.32-5.24.41-8.32l-248.06-82.11ZM567.67,384.64l-140.19,4.79,2.42,36.16,136.46.5c1.53-13.98,1.71-27.27,1.31-41.45ZM717.07,391.86l-43.12-2.23c-.21,2.98-1.61,7.44.65,9.71,3.95,3.95,10.63-5.95,19.64.66,6.54-3.65,14.25-6.84,22.66-5.76,8.22,1.05,14.26,5.46,17.76,13.45,12.17,27.76-4.11,42.5-7.52,53.88-1.9,6.32,1.39,14.8-7.59,18.27l2.85,159.3c.12,6.79-3.35,10.75-8.91,13.79-13.75,7.51-38.69,5.1-39.06-9.64l-4.2-165.72c-9.54-4.33-3.35-39.11-2.6-47.94-23.67-2.21-22.81-22.19-23.49-41.12l-63.66-3.23-1.39,44.91c-.13,4.17-2.6,6.4-5.46,8.18l-3.83,37.2-13.56,8.26c-1.31,13.29,7.91,36.18-12.21,40.53-9.45,2.04-19.91,3.29-29.77,2.61l-12.1-7.1c-6.89-4.04-17.69,13.31-26.78,11.1-11.19-2.72-17.52-.73-21.11-4.52-1.86-1.96-2.32-5.25-2.56-9.14-5.35-1.01-10.26.7-16.59,1.19l-5.03,195.24,323.5,41.51-4.51-361.51-32.01-1.89ZM558.89,468.72l1.84-30.43-122.7-.47c-.44,6.59.04,13.2.27,19.44,8.14,2.84,16.85-.44,24.71,1.34,6.59,1.5,8.88,11.31,11.3,17.14,25.5,8.52,60.96,9.33,84.57-7.02ZM544.24,488.38c-23.17,7.37-45.93,5.92-68.81.81-1.51,17.47-9.28,17.35-10.93,27.4,4.52.86,8.58,1.4,13.2,1.6,24.74-21.3,34.17-5.15,39.94-3.66,7.34,1.9,15.59-.66,22.78-1.21,8.95-.68,4.89-19.1,3.82-24.95ZM655.62,388.95c.03,7.74-.36,16.08,3.24,23.86,1.98,4.28,8.71,6.26,12.74,4.53,2.18-.94,2.25-4.24,2.93-5.63-22.98-4.12-2.43-26.08-18.91-22.76ZM701.3,411c3.26,9.58,14.55,39.63,5.09,43.2-1.87.7-6.6.42-7.03-2.77-1.81-13.35-3.53-26.9-10.63-38.93-12.17,12.78-12.18,39.55-11.26,54.64,12.45,2.35,24.41,3.36,36.56,1.59,1.33-4.23-.91-9.31.93-12.83,12.34-12.15,18.38-35.87,4.89-47.95-4.66-4.18-14.67-1.1-18.54,3.06ZM708.59,548.61c-.36-23.07.09-44.24-1.58-66.57l-24.27-1.45,3.64,162.65c7.62,3.93,16.83,3.43,23.59-1.55.89-7.8-.18-15.01-.29-22.74l-1.09-70.34ZM770.22,180.84c2.75-3.8,6.14-5.66,10.84-4.27-.51-2.92-2.02-5.17-3.6-6.07-7.85-4.45-16.98,4.53-21.77,12.25-13.21,21.28-10.22,54.65-4.11,78.2,3.95,15.2,20.36,36.84,30.73,28.62,1.98-1.57,4.05-4.72,3.54-8.37-8.87,1.54-14.45-1.94-18.68-8.55-15.84-24.78-14.55-67.5,3.04-91.82ZM827.54,397.01l-66.14-2.98,4.56,359.3,75.51-24.64-13.93-331.68ZM799.18,189.9c-6.95-1.74-12.96-2.44-19.56-1.25-14.38,20.27-15.72,61.38.55,80.84,5.93.88,11.46.47,17.46-.07-12.68-21.38-10.55-58.76,1.54-79.51ZM810.77,178.42l-15.94-4.81c-3.18,5.82,11.53,5.06,15.94,4.81ZM819.27,196.68c-1.91-1.99-2.81-3.51-4.47-3.6-9.72-.53-20.24,42.75-7.48,68.37,1.05,2.11,2.99,4.14,5.05,3.79,1.27-.22,3.34-1.47,4.38-3.43,10.49-19.8,11.26-44.14,2.52-65.12ZM877.62,364.64l-1.11-60.7-1.06-65.58c-6.95.4-13.23,2.35-18.82,6.43l2.41,145.65c.08,4.85-3.12,7.56-7.48,7.66-4.09.1-7.74-.67-11.62-.03l8.63,206.49c15.3,1,19.94,4.66,33.9,6.87l-1.15-55.02-1.25-62.51-1.26-67.35-1.18-61.91ZM850.01,616.74c-1.71,2.38-.81,6.82.19,8.92,8.07.64,14.35-1.35,23.52-3.72-7.18-2.73-15.27-5.54-23.71-5.2ZM883.71,677.77l-1.27-46.52c-11.8,3.46-21.6,6.14-32.43,6.32l3.46,86.93,30.64-10.13-.4-36.59Z"/>
      <path class="cls-1" d="M595.73,619.69c3.49-.09,6.21-1.17,8.2,1.07,8.87,10.03-13.13,54.5-54,48.35-25.77-3.88-45.34-30.78-38.86-39.77,4.06-5.63,11.56-7.7,18.25-7.88l66.41-1.77ZM593.47,631.31c-23.81.12-46.57.04-70.99,3.24,6.47,14.09,21.82,24.3,36.91,23.17,16.09-1.21,29.52-11.38,34.07-26.41Z"/>
      <path class="cls-1" d="M487.28,567.94c2.81,12.14,7.59,50.14-10.12,51-15.65.75-17.55-27.82-12.18-39.6-.15-6.46,2.02-14.35,9.18-15.4,3.87-.57,9.51,1.93,13.12,4.01Z"/>
      <path class="cls-1" d="M636.43,572.2c6.62,11.94,13.71,51.33-4.48,53.38-14.74,1.66-13.68-22.41-14.02-24.6-1.57-9.97-2.58-20,2.97-28.95,1.83-2.96,4.64-4.77,7.77-4.83,3.13-.06,6.02,1.87,7.76,5Z"/>
      <path class="cls-1" d="M617.37,540.38c1.88-2.46,2.82-4.78,4.48-5.15,2.72-.61,5.28.02,6.2,1.46,1.52,2.38,1.76,5.84.11,8.35-5.89,8.98-13.11,16.79-19.84,25.1-1.68,2.08-6.67.5-7.65-1.08-1.17-1.9-1.44-4.88.37-7.26l16.32-21.41Z"/>
      <path class="cls-1" d="M498.98,547.17c9.66,11.95,21.3,17.97,16.89,24.19-1.25,1.77-5.22,2.81-7.36,1.13-6.67-5.25-12.82-11.25-18-17.93-2.34-3.02-1.86-6.29.47-8.36,2.31-2.05,5.65-1.93,8,.97Z"/>
    </g>
  </g>
  <path class="cls-1" d="M345.57,238.44c7.64-2.46,17.19-1.12,19.63,7.02,1.76,5.87-2.15,11.29-5.94,14.08-5.09,3.75-11.32,4.76-16.94,2.01-5.09-2.49-7.08-7.03-6.84-12.23.24-5.35,3.78-8.85,10.09-10.89Z"/>
  <path class="cls-1" d="M389.38,232.05c8.44,0,14.59,6.29,14.26,13.43-.34,7.31-6.97,12.89-14.57,12.35-7.26-.52-12.91-5.52-13.29-12.28-.4-7.06,5.18-13.49,13.6-13.5Z"/>
  <path class="cls-1" d="M475.58,228.57c6.83,5.75,4.11,14.62-1.69,20.48-5.22,5.27-16.44,3.15-19.39-4.32-2.28-5.77.5-11.67,4.84-15.09,3.98-3.14,11.08-5.43,16.25-1.08Z"/>
  <path class="cls-1" d="M439.58,238.46c.82,6.71-4.57,11.18-9.15,12.83-5.17,1.86-11.56.74-14.83-4.32-4.26-6.6-.75-15.64,5.67-18.15,7.37-2.88,17.16.23,18.31,9.64Z"/>
  <path class="cls-1" d="M327.21,252.95c.35,6.13-3.62,10.12-7.34,11.75-5.41,2.38-9.7.52-14.01-2.86-4.74-3.72-6.34-9.58-2.48-14.71,3.21-4.27,8.24-6.78,13.71-5.48,4.48,1.07,9.75,4.94,10.12,11.29Z"/>
</svg>