<?xml version="1.0" encoding="UTF-8"?>
<svg id="Layer_1" data-name="Layer 1" xmlns="http://www.w3.org/2000/svg" viewBox="0 0 1000 1000">
  <defs>
    <style>
      .cls-1 {
        fill: #b92323;
      }
    </style>
  </defs>
  <path class="cls-1" d="M567.43,468.15c-52.12,30.3-120.47,34.3-177.85,20.13-18.97-4.68-36.14-11.72-52.07-22.41-24.87-16.69-40.2-45.28-21.6-72.55,16.85-24.69,50.62-38.16,79.27-44.31,52.95-11.37,119.63-7.2,167.12,20.82,12.2,7.2,21.31,16.55,29.76,27.94,14.5,19.56.78,55.61-24.62,70.38ZM574.03,445.75c6.29-6.99,12.2-15.72,10.98-25.69-.8-6.61-3.26-14.65-6.99-20.19-15.23-22.65-51.94-35.17-77.91-40.16-46.74-9-105.22-5.71-147.67,17.33-10.41,5.65-19.46,12.82-26.17,22.24-8.82,12.4-8.86,27.9.79,39.99,11.09-23.27,39.75-33.52,63.74-39.18,41.17-8.24,83.25-6.61,123.52,5.42,22.2,6.63,48.02,19.43,59.7,40.25ZM564.16,455.07c-4.39-17.26-30.8-30.57-46.01-35.71-42.31-14.31-88.15-16.54-131.52-5.86-16.81,4.14-48.11,16.44-49.82,36.88,53.37,43.86,171.46,44.47,227.35,4.69Z"/>
  <path class="cls-1" d="M591.17,545.6c-3.55.85-9.66-1.23-9.6-3.75,2.34-7.53,4.9-14.73,6.14-22.08,2.6-15.41,7.83-29.86,15.49-43.36,11.21-19.74,39.35-42.68,63.88-34.42,14.59,4.91,19.04,23.3,12.28,36.19-9.12,17.4-21.26,31.55-36.58,44.13-14.59,11.99-32.66,18.78-51.62,23.29ZM661.9,484.67c8.93-12.23,8.68-29.23-1.07-30.44-12.09-1.5-22.4,3.08-31.28,10.07-11.62,9.15-17.87,20.99-22.4,34.71l-9.91,30.03c29.31-3.96,47.71-21.17,64.66-44.37Z"/>
  <g>
    <path class="cls-1" d="M569.2,608.07c-1.61,4.03-5.6,7.34-7.6,10.62-12.1,19.9-26.21,37.46-45.92,50.65-39.54,10.38-80.96,11.29-120.54.96-10.72-2.8-21.53-6.57-29.22-14.12-29.09-28.57-48.65-79.01-59.84-117.89-11.24-39.08-16.56-78.19-19.96-118.72-2.49-29.7,20.07-54.68,44.25-69.07,58.17-34.62,143.7-35,206.49-13.35,35.45,12.51,77.69,37.4,87.73,76.88,18.32-5.34,34.65-2.48,51.17,4.64,20.56,8.86,35.25,25.86,37.49,48.68,3.07,19.51-2.81,37.32-14.8,53.01-29.96,39.22-73.08,53.94-119.65,63.66l-9.61,24.06ZM575.5,572.12c45.25-8.25,88.4-24.02,115.46-61.88,7.63-10.67,11.5-21.75,11.04-34.94-.5-14.49-5.57-28.95-17.39-37.94-9.41-7.16-20.78-12.08-32.49-14.31-21.72-4.13-35.92,9.77-38.34-2.53-6.94-35.34-44.85-59.01-76.66-70.44-50.13-18.02-104.96-20.94-156.55-7.48-22.28,5.81-42.5,14.59-59.59,29.67-10.36,9.14-22.3,22.41-22.24,37.3.32,71.04,25.17,186.35,76.65,239.76,35.12,20.44,100.59,19.47,137.44,8.23,18.68-15.39,32.63-32.02,43.34-52.76,4.12-7.98,8.92-15.75,11.41-24.2,1.4-4.77,2.07-7.42,7.92-8.48Z"/>
    <path class="cls-1" d="M522.43,561.59c4.83,14.46-.46,35.91-14.72,35.28-16.26-.72-16.96-26.51-11.12-39.77l-8.92,2.57c-1.63.47-5.33-1.29-6.15-2.7-4.99-8.53,20.96-18.35,41.19-8.14l12.31,6.21c1.69.85,3.21,4.29,2.68,6.02-.62,2.02-4.5,4.22-6.21,3.64l-9.06-3.11Z"/>
    <path class="cls-1" d="M381.29,545.29c1.28,8.99,3.85,28.66-8.23,33.9-3.45,1.49-9.07.3-12.1-2.24-7.66-6.43-8.67-16.08-7.96-25.58l-6.68-.62c-2.61-3.21-2.15-8.54,1.03-11.63,11.9-11.58,31.41-11.87,43.64-.93,1.01,1.19-.21,5.99-1.67,6.48-1.74.58-4.44.7-8.03.62Z"/>
    <path class="cls-1" d="M432.41,598.83c22.82,2.34,21.03-12.3,29.11-8.51,1.89.89,3.33,5.54,2.12,7.35-5.84,8.65-15.22,11.89-25.02,12.58-20.47,1.44-33.8-16.04-33.54-22.29.07-1.61,2.59-3.98,4.17-4.27,8.29-1.52,9.59,13.75,23.16,15.14Z"/>
    <path class="cls-1" d="M479.7,606.38c-.99,2.22-4.7,3.45-6.33,2.9-2.43-.83-3.84-3.74-3.3-6.45,2.1-10.54-5.68-11.68-2.37-18.61.78-1.63,5.84-2.28,7.13-.94,5.99,6.22,8.67,14.58,4.87,23.11Z"/>
  </g>
</svg>