<?xml version="1.0" encoding="UTF-8"?>
<svg id="Layer_1" data-name="Layer 1" xmlns="http://www.w3.org/2000/svg" viewBox="0 0 1000 1000">
  <defs>
    <style>
      .cls-1 {
        fill: #b92323;
      }
    </style>
  </defs>
  <path class="cls-1" d="M577.04,651.18c-30.86,20-82.07,19.32-115.74,10.12-8.24-2.25-16.25-6.04-21.9-12.47l-42.21-220.05c-10.01,1.17-14.69-4.29-17.32-12.79-4.7-15.18-7.03-30.67.13-45.63l14.84-3.43c-4.53-5.84-4.19-23.35,5.29-23.9l180.89-10.49c8.97-.52,14.83,7.88,14.16,14.78-1.25,13.03,17.11-4.57,24.43,15.5,5.05,13.84,5.62,28.31,4.41,43.63-4.43,3.43-9.09,6.01-15.57,8.54l-26.52,223.99c-.56,4.72-.11,9.11-4.89,12.21ZM581.74,353.95c-.38-4.31-.96-6.54-2.69-6.44l-172.21,9.54c.26,3.38.99,6.34,2.41,9.92l172.48-13.02ZM610.02,399.14c.77-12.94.49-22.51-4.19-31.77l-215.63,16.2c-2.28,10.31.09,20.45,4.53,29.63l215.29-14.06ZM566.65,640.02l26.47-224.64-180.85,11.77,41.18,214.8c28.74,14.57,85.88,14.08,113.21-1.94Z"/>
  <path class="cls-1" d="M471.3,543.56c-2.67,4.28-8.52,7.54-12.09,7.8-4.09.3-10.37-2.23-13.16-5.89-14.76-19.44-5.18-45.36,6.56-47.89,3.5-.75,9.87.85,12.46,3.4,11.27,11.14,15.02,28.47,6.23,42.57Z"/>
  <path class="cls-1" d="M559.9,544.6c-4.8,6.87-13.21,9.21-19.56,2.81-10.55-10.62-11.75-29.17-2.28-41.31,2.3-2.95,7.29-5.51,10.16-5.79,3.64-.35,9.47,2.31,11.73,5.43,8.6,11.93,8.45,26.7-.05,38.85Z"/>
  <path class="cls-1" d="M496.89,566.03c-7.73-.48-13.21-4.63-14.18-12.03-.33-2.47,1.6-6.28,4.22-7.65,6.34-3.3,6.82,7.33,16.5,5.89,2.35-.35,5.1-2.82,7.79-5.73,1.63-1.76,7.44-1.4,9.37.71,1.81,1.99,2.16,7.7.16,10.15-5.83,7.13-14.21,9.26-23.85,8.66Z"/>
  <path class="cls-1" d="M468.99,482.74c-1.64,9.38-11.53-.33-20.59,10.28-1.68,1.97-6.66,2.55-9.04,1.18-2.04-1.17-3.08-6.54-1.71-9.07,5.45-10,17.23-13.76,27.85-9.73,1.93.73,3.84,5.32,3.49,7.33Z"/>
  <path class="cls-1" d="M558.74,494.04c-13.86-6.76-21.07.17-24.25-6.25-1.01-2.04.09-8.17,2.42-9.06,8.77-3.33,20.5-2.52,28.49,3.89,1.67,1.34,2.51,6.51,1.91,8.54-.82,2.76-5.62,4.31-8.56,2.87Z"/>
</svg>