<?xml version="1.0" encoding="UTF-8"?>
<svg id="Layer_1" data-name="Layer 1" xmlns="http://www.w3.org/2000/svg" viewBox="0 0 1000 1000">
  <defs>
    <style>
      .cls-1 {
        fill: #fff5e1;
      }
    </style>
  </defs>
  <path class="cls-1" d="M283.36,641.5l13.07-53.55c11.09-34.33,24.76-70.39,48.75-98.05,0-19,6.92-27.58,26.33-30.85,20.59-3.46,41.79-3.14,62.46-4.93,1.21-1.56-1.05-4.24-3.27-4.35-21.94-1.08-43.33-2.65-64.62-8.57-4.44-1.23-10.11-2.61-13.65-5.31-14.08-10.75-22.51-25.99-29.82-41.75-3.08-6.65-6.28-12.95-6.38-20.64l-54.11-5.19c-4.23-.41-11.5-6.45-11.81-11.45l-13.21-216.14c-.25-4.11-1.13-7.01,2.73-9.52,9.53-6.19,18.06-13.77,28.14-19.54,3.17-1.81,7.04-4.87,10-7.16l195.05-2.86,236.18-8.64c12.6,5.01,22.52,12.62,33.2,20.76,4.81,2.55,9.59,6.83,9.36,13.81l-11.12,343.34,46.17,315.98c-2.59,11.65-7.51,21.61-16.36,28.65-6.19,7.18-13.8,10.28-22.44,13.54l-103.83,39.22-97.35,32.65c-41.71,6.71-83.14,8.04-124.94,2.9l-52.78-6.49c-41.49-5.1-81.27-16.83-118.85-34.69-11.52-5.48-22-10.58-31.17-19.29-2.22-2.11-6.3-5.85-5.9-9.44l9.74-86.23c2.4-18.35,45.05-31.48,61.13-35.23-5.74-23.49-6.54-47.11-.72-70.98ZM477.24,139.91l251.91-21.05c-6.62-6.98-13.83-9.7-21.4-13.84l-231.24,9.7c-1.19,4.47.33,7.74.69,11.47.42,4.43-2.09,8.52.04,13.72ZM464.9,140.4c.38-10.32.35-18.17-.25-26.64l-180.85,2.96c-9.58,3.3-18.67,10.11-26.35,16.89l207.45,6.8ZM600.22,775.86l-40.74,12.81c-53.69,16.89-110.41,16.35-167.19,10.76-.22,14.85-1.07,29.01-5.22,42.76-3.11,10.28-10.28,16.35-21.41,17.55-32.71,1.18-78.61-8.19-110.27-17.98-9.18-2.84-14.93-9.68-14.71-19.83.36-16.63,3.47-32.56,6.59-49.41l-14.65-7.76-7.1,67.4c6.64,7.5,15.11,12.01,24.32,16.58,42.34,21,87.74,32.87,134.84,38.3l50.66,5.84c34.12,3.93,67.49,2.75,101.57-1.77,38.61-11.41,75.39-24.1,113.16-38.03l94.9-34.99c6.21-2.29,11.9-3.97,15.85-9.66,7.81-5.17,13.08-12.84,13.35-22.78l-45.87-313.41,11.11-341.7-261.49,21.56c-.24,7-.56,12.72.33,18.91l184.28-16.11c4.17-.36,7.04,3.24,7.58,7.2,6.61,48.58,12.96,145.45-14.18,188.34l18.31-1.57c3.64-.31,7.37,1.34,10.97,2.2,9.32,2.22,16.6,9.44,18.25,18.87.64,3.65-1.3,6.45-4.42,7.03-1.85.35-5.12-1-5.87-3.83-4.47-16.92-24.42-11.75-37.2-9.44,25.84,27.24,28.43,85.21,26.23,119.95,15.37-.11,37.07,12.92,38.95,28.59l25.52,184.69c3.58,25.94-26.25,60.06-62.42,62.03-9.13.5-17.48-3.42-26.41-4.06-18.59,8.48-37.51,14.64-57.62,20.96ZM465.14,171.87c.51-7.91.38-13.06-.03-19.32l-215.07-6.91c.17,6.11.11,10.7.95,16.06l214.15,10.17ZM464.1,374.08c6.01.53,10.61,1.58,15.87.87l132.04-17.8c20.72-2.79,31.2-3.88,40.11-26.51,7.18-19.89,9.26-40.23,10.81-61.74,1.66-34.14-.04-67.61-4.43-101.27l-180.67,15.79,1.78,180.44c.04,4.27-1.54,7.48-5.38,8.03-2.88.41-5.96-1.9-6.71-5.42l-.71-60.24-1.11-122.12-214.18-10.15,10.86,182.43,201.74,17.69ZM550.23,465.38l58.31-6.08c3.9-.41,9-2.8,11.93.87,3.47,4.35,2.24,10.66,3.02,16.61l46.5,5.34c2.33-31.06-.95-78.33-17.88-103.8-4.98-7.49-12.12-10.25-20.87-9.28-6.99.77-14.07-.44-20.91,1.89l-12.85,33.93c-3.02,7.97-6.36,16.13-12.61,22.33-5.94,5.88-14.18,12.2-22.62,14.24-18.9,4.59-37.84,4.48-57.13,6.62-1.81,2-2.36,4.8-3.41,7.27l43.35,7.01c1.46.24,2.49,3.34,5.18,3.06ZM556.6,430.98c6.89-1.19,14.15-7.45,19.18-11.73,8.21-6.98,17.63-36.62,22.05-47.69l-118.22,15.75c-10.97,1.46-21.56-1.59-32.54-2.52l-119.18-10.19c3.52,13.28,17.82,42.61,28.33,49.16,33.39,20.82,159.81,14.25,200.39,7.22ZM479.53,459.88c3.89-3.32,7.35-6.78,9.81-11.11l-42.29,1.19c5.99,10.88,21.39,19.4,32.49,9.92ZM525.76,481.06c-1.77-3.6-2.58-6.21-2.79-9.97l-32.95-4.74c-12.52,12.94-29.51,11.23-43.17,1.16-5.1-3.65-14.79-1.77-20.89-1.33l-32.79,2.34c-8.56.61-16.7.8-25.57,4.33,48.67,15.12,108.08,14.95,158.16,8.2ZM707.76,663.31c1.45,14.44,1.48,28.57-.27,42.24-2.33,18.29-15.96,29.94-34.21,29.31-12.06-.42-23.69-.81-35.65-3.12l-40.66-7.86c-.77,2.54-1.48,4.87-.36,7.48l87.57,15.64c15.42-2.07,29.4-8.51,39.13-20.63,6.68-8.32,12.76-19.29,11.16-30.76l-26.17-186.74c-6.63-7.78-14.47-12.06-24.13-13.08l-63.52-6.68c-9.66-1.02-7.58-13.43-9.41-18.53l-19.09,4.77c-2.14,3.95.16,20.57-8.21,19.38-8.79-1.26-2.72-14.68-3.67-20.91l-35.9,4.28c5.58,8.24,6.64,17.13,4.35,26.38,14.25,21.59,25.71,43.75,33.39,68.57,15.55,50.24,17.38,85.42,15.63,138.24,18.21,4.25,35.76,8.06,53.99,10.94,12.65,2,24.89,1.67,36.46-3.39,12.17-9.28,8.75-39.37,8.85-54.32.02-3.52,1.44-5.85,4.64-6.13,1.96-.17,5.7,1.11,6.09,4.93ZM558.1,544.61c-5.4-12.41-11.39-22.43-18.09-32.8-6.24-9.66.65-13.61-2.48-19.85-54.47,7.6-106.56,8.45-160.3-3.3-6.82-1.49-13.46-1.19-20.53-5.51.14,6.12-.19,9.81-3.41,13.98-16.6,21.28-26.55,41.49-35.86,67.91,13.06-6.92,25.48-10.74,39.62-13.65,40.09-8.25,80.35-11.02,121.51-10.82,27.05-.58,52.42,1.17,79.54,4.05ZM573.12,586.25c-2.69-10.81-5.38-19.28-9.15-28.12-54.92-8.13-126.78-7.15-180.97,1.12-11.14,1.7-56.64,9.22-61.47,19.99,8.5,6.42,18.13,9.01,28.31,11.08,62.27,12.68,160.53,10.27,223.29-4.08ZM583.72,729.6c3.91-47.87,4.05-86.66-7.52-131.36-62.6,14.07-147.01,16.05-209.36,7.53-15.2-2.08-48.11-7.44-56.55-20.93-6.31,22.62-11.97,43.66-16.08,66.14-3.99,21.77-4.55,55.99,11.48,73.39,15.34,16.66,56.64,22.89,78.82,24.99,61.64,5.85,139.29-.61,199.22-19.77ZM608.68,761.14c9.6-3.15,18.72-5.51,27.85-9.83l-50.04-9.32c-70.88,21.01-159.75,28.26-233.19,15.37-22.82-4.94-51.02-11.24-63.36-33.29-10.75.98-52.02,15.42-53.55,24.16-2.34,13.38,65.62,25.47,77.05,27.55,66.07,12.01,132.43,19.66,199.18,9.3,15.53-2.41,30.3-4.25,45.33-8.75l50.74-15.19ZM275.92,788.67c1.39-2.6,2.08-5.89.96-7.68l-18.57-4.85c-1.22,3.61-1.52,6.2-1.97,10.55l19.57,1.98ZM331.77,821.28l4.43-28.85-46.49-8.43c-1.97,13.14-4.49,24.87-4.36,37.99l37.04,5.91c4.52.72,8.65-1.7,9.37-6.61ZM320.44,839.26c-13.15-1.63-25.27-3.12-37.39-5.35-6.79-1.25-10.99-5.97-10.35-13.26-6.3-.69-12.54-2.04-19.3-1.83-1.83.91-.66,5.38.11,7.74,1.63,4.98,42.38,12.77,50.62,14.64,17.31,3.93,33.87,5.56,51.72,6.49,4.82.25,13.89.95,16.74-4.13,7.63-13.6,7-29.89,7.1-45.35l-32.01-4.08c-1.26,2.82-1.2,5.46-.94,8.35,5.52.89,27.04-1.07,23.32,8.74-1.05,2.76-3.73,3.98-6.86,3.72l-18.25-1.47c-.85,2.49-1.54,5.37-.81,8.45,5.22,2.5,21-.59,18.84,8.86-1.85,8.12-17.35,1.85-23.51,2.13-4.56,5.18-11.3,7.31-19.03,6.35ZM273.4,809.09c.98-3.31.84-5.67,1.06-8.96-6.63-1.16-13.04-2.32-19.83-1.51-.72,2.93-1.28,5.51-.77,8.53l19.54,1.94Z"/>
  <path class="cls-1" d="M411.45,294.89c-5.31,4.22-11.32,5.56-17.51,3.22-4.33-1.64-8.95-5.97-11-11.8-5.9-16.8-4.49-34.76,1.01-51.54,1.91-5.82,4.82-10.75,10.8-11.79,22.89-3.99,39.4,53.87,16.69,71.91Z"/>
  <path class="cls-1" d="M320,277.01c-3.92,5.97-11.68,9.31-17.97,6.3-20.46-9.8-19.9-47.07-7.86-66.43,3.28-5.27,8.75-7.55,14.4-7.71,5.07-.14,11.45,2.47,13.49,8.46,5.14,15.11,8.02,44-2.07,59.38Z"/>
  <path class="cls-1" d="M380.3,304.62c3.67,10.74,9.44,27.26-2.51,35.35-5.27,3.56-11.5,3.62-17.31,1.21-9.61-3.98-15.48-13.27-18.53-23.19-6.16-1.4-29.93-6.48-23.26-15.96,6.86-9.74,20.69,15.92,52.12-1.26,3.77-2.06,8.19.02,9.5,3.84ZM371.77,329.92c3.46-2.89,1.45-13.05-.82-16.44-6.84.75,4.16,8.27-2.37,13.32-2.08,1.6-5.26,1.05-7.91-1.34-2.44-2.2-.87-6.6-5.48-8.08-.81,4.87,10.2,17.89,16.59,12.54Z"/>
  <path class="cls-1" d="M439.15,230.73c2.13,2.61,1.15,6.55-.73,8.06-2.3,1.85-5.62,1.54-7.85-1.1l-24.77-29.23c-2.44-2.88-5.96-6.48-2.54-10.08,3.24-3.42,8.67-1.08,11.48,2.37l24.41,29.97Z"/>
  <path class="cls-1" d="M284.55,216.24c-2.26,2.7-3.68,4.94-6.89,3.98-2.51-.75-4.19-3.16-4.07-6.31.17-4.45,3.12-7.37,6.42-10.05,5.11-4.13,28.18-24.01,33.15-15.21,5.49,9.72-12.32,8.14-28.61,27.58Z"/>
  <path class="cls-1" d="M670.67,712.98c-13.68,2.13-25.37-1.86-37.96-1.64-2.28.04-4.07-1.99-5.2-3.03-1.25-1.16-.62-3.86-.49-6.11,3.13-56.19-4.36-126.06-31.61-176.33-1.05-1.94-.41-5.03.62-6.6.95-1.45,3.59-3.02,6.48-2.74l53.11,5.13c8.84.85,11.55,13.48,12.44,20.92l17.81,148.73c.97,8.09-7.07,20.4-15.19,21.66ZM673.72,691.33l-18.24-149.23c1.21-4.67-.74-8.81-5.44-9.17l-38.43-3c23.45,51.98,30.03,113.12,28.08,169.37,10.07.85,19.06,2.29,28.8,1.96,3.19-.11,5.74-5.71,5.22-9.94Z"/>
  <path class="cls-1" d="M698.48,546.17c.44,4.03-2.39,7.04-5.49,7.38-12.37,1.34-4.53-38-26.23-41.34-21.28-3.28-42.51-4.95-64.05-6.61-3.28-.25-5.01-3.23-5.08-5.18-.12-3.3,2.18-5.85,5.98-5.66,22.16,1.06,43.65,2.63,65.51,5.87,17.63,2.61,23.98,18.47,26.92,34.37.68,3.67,1.97,6.92,2.43,11.19Z"/>
</svg>