<?xml version="1.0" encoding="UTF-8"?>
<svg id="Layer_1" data-name="Layer 1" xmlns="http://www.w3.org/2000/svg" viewBox="0 0 1000 1000">
  <defs>
    <style>
      .cls-1 {
        fill: #fff5e1;
      }
    </style>
  </defs>
  <path class="cls-1" d="M497.37,974.44c-15.01-1.28-28.68-5.86-43.32-9.69-10.89,6.07-22.81,3.37-32.94-2.87-15.49-9.54,1.39-20.36-14.8-49.82-14.38-26.16-31.45-49.45-50.89-72.07-19.31-22.46-40.47-48.57-51.59-75.77-5.99-14.65-6.18-30.16.61-44.46,12.34-25.97,28.67-45.04,61.73-34.87-3.8-18.06-5.3-34.47-4.56-52.08l-31.58-.03c-3.5-.06-6.24-2.17-6.17-5.73l.39-19.25c.08-4.2,2.66-7.6,7.13-7.69l33.93-.62c1.79-8.16-2.84-16.51,6.83-16.6l32.15-.31-4.29-368.2c-.06-5.15,5.86-7.67,8.94-10.89l.34-77.53c-7.68,1.91-33.63-9.23-38.97-12.82-4.58-3.08-11.66-7.73-12.8-13.69-2.36-12.4-1.03-25.24-1.5-37.89-.15-4,2.13-5.96,5.27-7.39,67.58-30.92,161.38-34.47,233.91-23.1,18.78,2.94,35.41,7.26,53.56,13.94.24,15.23,3.78,29.81,2.67,44.97-1.18,16.27-35.36,27.45-48.67,31.44l.66,31.85.48,46.05,9.59,6.65c5.03,3.49,3.98,6.45,4,11.65l.69,171.31.99,190.6c11.17,2.64,34.75-6.3,33.65,8.99-.25,3.45-.68,6.96.47,10.37l40.86.08c4.44,0,6.88,3.84,6.47,7.87l-2.09,20.25c-.29,2.77-2.35,4.87-5.3,4.87h-35.17c-2.17,28.83-8.47,71.17-16.68,98.4l-17.96,59.55c-5.99,19.88-9.6,39.63-10,60.45l-.79,40.98c-.2,10.38.57,20.31.2,30.69l-.48,13.65c-.11,3.04,1.85,9.22-.97,11.56-26.46,19.81-82.15,29.94-114.02,27.23ZM604.78,56.51c12.42,2.92,23.84,6.36,34.79,12.82.18-5.96.02-10.92-1.16-16.81-76.73-25.15-198.37-22.68-271.78,11,.02,5.13-.36,8.82.77,13.59,13.85-9.22,28.21-13.8,43.8-17.63,55.07-13.54,138.52-15.88,193.58-2.96ZM593.22,194.33l-.55-58.85-1.08-71.08c-56.58-9.25-114.7-7.71-171.82,3.66l-.3,128.62c48.45-20.76,125.26-19.68,173.75-2.35ZM640.58,86.31c-1.64-9.44-28.5-17.79-38.3-19.44l.53,43.07c10.17-2.31,39.64-12.84,37.77-23.63ZM409.35,113.81l-.16-42.76c-9.86,2.15-40.7,12.32-41.47,23.04-.79,10.99,33.28,21.57,41.63,19.72ZM608.67,580.1l-.84-108.96-1.54-257.4c-27.17-19.36-79.12-23.09-111.05-21.66-23.19,1.04-68.5,6.27-84.88,24.38l4.6,366.12,193.71-2.47ZM377.35,599.91l202.79-.48,61.27-.41c.71-3.57.82-6.02.38-8.93l-33.52.34-72.16.95-89.89,1.18-69.46.9c-.71,2.16-1.75,4.75.58,6.45ZM568.61,621.7l119.67-.3c1.09-4.28,1.49-8.01,1.18-11.98l-150.63.35-203.51.75c-.8,4.11-.87,7.66-.48,12.07l125.88-.35,107.9-.55ZM567.81,649.58l53.69.27c.48-6.3.68-11.7.02-17.74l-185.41.33-41.25.27c.21,5.7.81,10.29,2.13,15.78l117.49.53,53.34.57ZM402.4,735.91c-4.47,4.84-10.96,5.01-17.64,3.94l6.43,20.75c11.36-5.04,22.97-7.68,35.91-8.99,50.05-5.04,128.69-5.36,177.16,6.72,5.5,1.37,10.19,3.52,15.24,7.07,12.59-36.88,21.62-73.89,26.65-112.35.96-7.31,1.53-13.78,1.36-20.87-5.33.06-10.03-.4-15.14.23l-.1,19.76c-.02,4.05-2.87,8.06-7.45,8.03l-75.19-.43-153.2-1.07c-14.26-.1-9.29-13.68-12.69-25.78-4.36-.36-8.2-.21-12.01.02-1.75,16.55.93,46.15,9.57,60.33,10.74,8.78,34.9,27.67,21.08,42.63ZM437.54,918.53c-7.48-16.33-17.6-28.89-28.98-41.98-13.89-15.98-25.06-33.2-37.19-50.59-12.8-18.36-24.92-35.98-35.38-55.71-6.86-12.94-10.8-27.71-7.14-41.63,2.54-9.64,9.64-16.79,17.09-19.3,10.11-3.4,18.43-.41,26.32,5.37,6.76,4.96,13.96,9.56,19.04,16.03,1.75.09,4.26-1.17,4.46-2.33.2-1.16,1.68-4.02.49-5.67-8.67-12.13-20.25-22.67-34.19-27.9-13.45-5.04-27.1-1.5-35.79,9.44-11.96,15.05-20.73,32.99-13.89,52.28,9.8,27.66,33.39,55.9,52.65,78.39,20.07,23.43,37.47,47.72,52.16,74.94,6.78,12.56,7.55,26.72,8.03,40.69,3.16,5.26,14.75,9.29,19.98,6.06,9.18-5.66-4.8-31.83-7.66-38.08ZM408.51,859.41l-11.76-48.32-24.72-79.07c.46-4.6-2.85-6.51-5.97-8.75-4.97-3.58-10.05-5.96-16.07-4.09-14.83,4.6-13.58,26.24-7.78,39.26,4.52,10.16,9.74,19.28,15.88,28.69,16.1,24.68,32.19,48.69,50.42,72.28ZM556.85,780.18c17.72-1.23,34.84-2.71,52.34-8.53-10.65-4.7-21.38-6.52-33.02-7.95-46.01-5.67-91.9-6.65-138.06-2.43-13.25,1.21-25.27,2.87-37.99,6.86,10.45,8.09,57.3,11.39,70.86,12.11,32.56,1.72,53.15,2.22,85.85-.06ZM601.97,938.05l.57-74.08c.22-28.35,3.48-55.28,12.6-83.27-10.42,3.84-19.31,6.23-29.94,7.42-47.45,5.3-94.64,5.08-142.22.4-15.6-1.53-29.49-4.12-45.19-8.29l9.68,30.18,17.3,67.85c1.08,4.22,5.57,7.11,7.86,10.61,8.48,12.98,15.74,26.3,21.73,40.63,3.49,8.34,4.44,16.35,4,25.73,54.23,11.42,95.89,13.21,143.61-17.19Z"/>
  <path class="cls-1" d="M538.35,480.11c4.01,15.78-1.05,47.63-15.79,60.34-6.99,6.03-16.28,6.53-23.47.95-15.3-11.89-20.5-39.35-18.7-57.57.25-2.58,2.73-6.4,4.3-7.98,5.9-5.93,21.16,11.94,38.14,2.59,3.73-2.05,13.92-4.6,15.51,1.68ZM527.91,488.39c-11.97,5.49-23.85,3.85-36.39-.79-.08,13.7,2.3,25.93,8.19,37.22,2.6,3.76,5.38,8.65,10.51,8.76,12.46.27,19.35-34.35,17.68-45.19Z"/>
  <path class="cls-1" d="M436.18,456.04c.46-3.26,3.84-3.28,5.94-3.19,6.27.28,2.67,8.43,10.59,12.92,3.66,2.07,7.44,2.41,10.92.16,6.28-4.06,2.96-15.31,10.48-14.81,2.46.16,4.54,2.71,4.58,5.5.11,8.51-4.34,15.98-10.51,19.26-8.15,4.34-16.31,3.07-23.36-2.15-5.4-4-9.73-9.99-8.63-17.69Z"/>
  <path class="cls-1" d="M538.63,458.31c.46-3.26,3.84-3.28,5.94-3.19,6.27.28,2.67,8.43,10.59,12.92,3.66,2.07,7.44,2.41,10.92.16,6.28-4.06,2.97-15.31,10.48-14.81,2.46.16,4.54,2.71,4.58,5.5.11,8.51-4.34,15.98-10.51,19.26-8.16,4.34-16.3,3.06-23.37-2.15-5.4-3.99-9.73-9.99-8.63-17.69Z"/>
  <path class="cls-1" d="M471.56,436.94c-4.04,7.22-19.59-9.9-36.22.48-2.36,1.47-4.61,2.75-7.56,1.6-1.92-.75-4.12-3.99-2.33-6.99,9.18-15.37,53.24-7.83,46.11,4.92Z"/>
  <path class="cls-1" d="M593.67,439.37c-4.24,8.22-16.52-9.86-38.53-.73-3.02,1.25-6.67-1.05-7.24-3.36-4-16.32,53.44-10.75,45.77,4.1Z"/>
</svg>