<?xml version="1.0" encoding="UTF-8"?>
<svg id="Layer_1" data-name="Layer 1" xmlns="http://www.w3.org/2000/svg" viewBox="0 0 1000 1000">
  <defs>
    <style>
      .cls-1 {
        fill: #fff5e1;
      }
    </style>
  </defs>
  <path class="cls-1" d="M563.48,818.71c3.02-1.9,6.59-.47,7.87,1.83,5.78,10.34-32.4,25.89-57.53,4.66-2.43-2.05-2.06-5.95-1.03-8.07,1.08-2.23,5.31-3.54,7.85-1.44,12.27,10.16,28.79,11.84,42.84,3.02Z"/>
  <path class="cls-1" d="M387.62,733.61c-30.03,3.67-65.54,4.14-90.97-11.59-10.2-6.31-19.4-15.2-22.83-26.73-15.53-52.23-15.94-151.84-1.56-203.73,4.55-16.41,15.64-29.81,31.83-35.97,30.79-11.7,51.68-11.02,85.45-10.05l1.75-43.15c.25-6.21-.84-11-3.47-16.28-3.43-6.88-1.14-14.97-.72-22.3.42-7.32,3.97-12.32,10.83-15.5,10.69-4.81,22.14-7.15,34.17-9.01,31.35-4.86,62.32-6.09,95.14-6.03l1.32-141.26c-6.39-4.35-14.99-2.45-15.75-10.13l-7.04-71.58c-.27-2.74,1.96-4.83,3.86-5.77,19.44-9.6,50.91-7.29,71.41-1.71,3.98,1.08,7.14,4.13,6.38,8.75l-12.46,75.89c-4.98,3.55-10.06,4.25-16.76,5.64l-1.24,140.61c46.45,2.98,95.88,5.02,139.89,20.66,5.6,9.17,5.91,19.26,5.54,30.18l31.62,21.78c2.12,1.46,4.15,3.31,4.19,5.22.05,2.21-.2,5.52-2.04,7.33l-38.08,37.57-8.07,395.08c-.1,5.09-.87,7.38-4.8,10-61.63,41.04-146.12,49.6-216.81,31.35-27.16-7.01-51.8-18.6-73.18-35.87-5.29-4.28-6.81-7.99-6.85-14.89l-.74-108.54ZM564.87,179.92l10.91-66.71c-15.12-4.51-45.92-6.15-58.58.57l6.43,64.2c13.26,5.34,27.66,6.38,41.24,1.94ZM545.73,354.7l.83-160.64c-2.69-.56-4.83-.87-6.67.17l-1.15,108.26-.68,53.79c1.27,1.73,7.66,2.19,7.68-1.58ZM557.21,345.08l-.75,15.41c-6.64,8.08-20.79,10.01-28.19,1.81-2.55-5.05-.25-11.79-1.16-17.68-29.14-.08-58.14.72-87.25,4.8-11.06,1.55-21.21,2.83-32,7.45,59.4,19.98,146.77,22.29,207.68,17.2,22.33-1.87,43.31-5.6,63.97-13.32-40.31-10.99-82.06-13.68-122.31-15.67ZM686.25,387.36c9.15-3.93,6.47-12.02,4.1-19.92-28.65,17.19-92.58,19.69-125.48,19.91-49.79.34-120.48-4.08-166.8-22.26-2.62,6.22-2.53,12.15-.32,18.39,10.08,3.9,20.21,6.68,31.21,8.22,24.88,3.47,48.85,5.73,74.02,7.69,34.58,2.68,68.58,1.38,103.16,1.5,28.92-3.12,52.13-1.5,80.12-13.53ZM704.92,399.62c-2.44-2.94-4.64-3.82-6.85-5.43-1.64-1.19-4.9.54-4.04,1.49,3.2,2.69,7.41,3.91,10.9,3.94ZM677.19,401.65c-20.13,6.27-39.01,7.2-58.9,8.83-23.18,1.89-45.61,2.04-68.96,1.49-15.9-.38-31.01-.16-46.73-1.49-29.69-2.5-58.54-4.91-87.73-9.81-.81,5.4-.53,9.44.78,14.02,14.62,4.19,28.62,7.02,44.1,8.78,59.09,6.71,118.26,7.33,177.41.95,14.19-1.53,26.89-3.94,40.31-8.46.56-4.8.67-8.69-.28-14.31ZM294.99,507c1.42-8.61,4.12-18.7,10.99-24.63,14.12-12.19,47.21-9.86,65.38-7.93,8.79.93,17.82.39,25.77,4.63,2.79,1.49,3.29,6.52,3.3,9.85l.33,120.86,16.69-12.62c16.73-7.86,34.27-12.92,52.79-16.62,18.69-3.55,36.83-5.14,56.99-5.91l.79-135.18c-36.6-1.61-74.48-2.85-108.81-12.71-4.42-1.39-10.78-3.18-12.78-7.72-1.92-4.37,1.18-14.7-2.06-16.22-1.26-.59-2.31.24-2.36,1.79l-1.52,41.01c-.29,7.88-6.87,12.56-14.67,12.14-9.35-.49-18.26.65-27.59,1.01-16.8.66-32.98,2.59-48.85,7.71-10.33,3.33-18.93,9.78-23.26,20.19-17.71,42.55-17.55,171.65,1.09,211.59,4.86,10.41,18.42,16.57,28.65,20.33,22.49,8.26,48.5,6.46,71.98,5.76l.48-19.9c-30.89.16-93.45,10.93-95.63-34.1l-1.28-26.39c-2.33-48.11-4.4-88.28,3.59-136.93ZM683.49,615.39c1.99-4.83.46-8.78.56-13.68l3.03-149.98,35.48-34.72c-11.35-3.15-22.1-5.99-33.93-10.62,2.07,10.66-1.71,19.34-11.47,21.67-37.69,10.27-81.18,10.8-119.76,12.05l-1.16,134.51c35.35,1.28,106.78,9.12,127.25,40.77ZM545.26,602.44l1.33-161.53c-1.93-1.86-4.26-1.17-7.57-.94l-.49,162.42c2.58.47,4.44.76,6.72.05ZM317.01,689.64c20.29,8.01,49.91,4.93,72.48,4.49l-.48-208.19-36.89-2.07c-12.1-.68-23.67.85-35,4.66-5.93,3.79-9.07,9.62-10.43,16.53-7.71,39.31-7.12,98.16-4.82,138.84.93,16.49-2.61,38.05,15.13,45.74ZM518.44,598.68c2.47-3.02,2.32-9.34-1.04-11.53-2.76-1.8-6.51-.44-9.43-.07,2.45,4.89,3.48,8.31,3.57,13.24,1.86-.4,5.27.36,6.91-1.64ZM575.27,599.16c-.53-5.23.28-7.76,1.72-12.21-4.18.57-9.89-2.23-13.75.42-3.06,2.1-.82,9.74,2.09,11.42,3.22,1.87,6.88.76,9.94.37ZM500.5,599.71c1.55-6.67-5.4-12.26-11.44-10.41,2.29,4.09,2.96,8.26,3.23,12.83,2.68.11,7.52.53,8.2-2.42ZM598.45,601.54c.11-4.62.79-7.19,1.92-11.03-3.77-3.4-15.98.24-14.96,5.84.39,2.17,1.95,4.08,4.76,4.36l8.28.83ZM480.29,603.76c1.99-1.49,1.53-5.16.5-7.39-2.14-4.59-9.14-4.09-13.94-3.13,2.1,3.61,4.07,7.14,4.9,12.15,2.81.41,6.06.23,8.54-1.63ZM619.65,605c1.79-4.02,3.12-6.4,5-9.57-4.07-1.69-11.38-4.65-14.34-.51-1.28,1.79-2.62,5.09-.09,7.21,2.52,2.11,6.19,2.91,9.42,2.86ZM449.94,609.93c3.72,1.32,9.27-.81,10.98-2.56,1.36-2.89-1.89-8.45-4.89-9.31-4.53-1.3-8.67-.86-13.41,1.57,4.04,2.11,3.93,9.09,7.33,10.3ZM637.59,609.8c3.2-3.41,5.21-5.09,8.23-7.82-3.49-1.62-7.23-4.14-10.71-2.11-2.14,1.25-4.95,5.1-4.56,7.48.34,2.07,5.55,4.03,7.03,2.45ZM433.1,616.01c2.76-.78,4.95-1.38,5.26-2.95s-.33-3.34-1.64-4.5c-3.87-3.42-9.45-3.9-14.07-.67,4.26,2.38,7.59,4.27,10.45,8.11ZM560,609.13c1.22,5.16,1.43,28.62-1.09,31.07-6.22,6.03-16.25,5.82-24.23,4.13-5.57-.78-8.43-4.52-8.62-9.95l-.86-25.26c-22.39.62-67.29,4.94-85.35,16.81-9.51,6.25,15.66,13.66,19.39,14.45,41.46,8.75,80.08,13.2,122.44,5.92,9.88,1.17,18.87-1.52,28.11-4.13,6.02-1.7,32.43-7.85,31.78-14.46-1.18-12.02-69.1-19.37-81.55-18.59ZM652.55,620.74c6.33-3.74,11.38-3.68,17.6-3.67-3.23-4.1-7.3-7.6-11.13-7.63-4.96-.03-10.79,2.02-12.31,6.9-.58,1.85,4.12,5.41,5.84,4.4ZM550.26,633.48c-.87-6.22,2.24-12.32.07-17.66-1.47-3.61-12.35-4.54-14.14-1.15-2.39,5.79,1.1,12.99.32,19.21,4.85,1.32,8.7,1.41,13.75-.41ZM425.66,631.71c1.33-7.66-1.19-11.59-6.15-13.68-4.44-1.88-10.96.59-12.03,5.05,4.37,5.5,12.21,8.02,18.18,8.64ZM645.98,642.45c9.8-3.82,17.51-8.21,26.09-13.1-6.9-4.18-13.96-1.18-18.49,4.74-2.37,3.09-6.94,4.07-7.6,8.36ZM682.6,637.85c-5.53,2.16-8.44,4.44-12.23,7.14-62.72,26.91-149.52,28.14-215.2,13.97-19.74-4.26-37.59-10.76-54.1-20.58-1.37,3.15.06,5.09,2.72,6.73,79.09,48.65,198.92,46,278.77-.16.85-2.5,1.44-5.11.04-7.1ZM427.28,670.28l-26.33-13.72c-.54,9.16-.74,17.24.13,26.58,8.92-6.08,16.67-9.23,26.2-12.86ZM682.09,684.11c.37-9.48.84-17.31.11-26.06l-28.26,13.35c10.32,3.26,18.98,6.33,28.15,12.71ZM675.5,694.07c-4.77-7.82-37.05-16.07-48.07-14.31-31.67,9.34-63.26,12.1-96.15,11.69-27.96-.35-53.72-5.9-80.76-12.13-16.36-3.77-54.79,13.92-39.38,21.22,35.77,16.95,86.46,22.48,126.14,22.78,33.67.25,66.17-2.34,98.62-10.65,5.67-1.45,43.06-12.95,39.6-18.61ZM399.48,845.67c16.05,14.47,33.75,23.23,53.41,30.88,69.86,24.64,162.94,18.24,225.76-24.24l3.05-146.15c-16.94,10.21-34.12,15.43-53.07,19.91-58.7,11.59-118.87,11.37-177.53-.65-18.18-4.12-34.46-8.99-51.59-18.24l-.04,138.49Z"/>
  <path class="cls-1" d="M621.39,777.44c8.28,16.34,2.58,51.94-17.38,50.5-18.51-1.33-21.47-37.43-10.71-52.91-5.74-1.72-16.48,8.3-19.59,1.39-5.09-11.32,16.97-13.81,24.81-14.42,18.56-1.46,42.57,8.86,38.04,19.22-2.92,6.68-12.13-2.1-15.17-3.78Z"/>
  <path class="cls-1" d="M495.11,781.98c4.44,14.95-1.26,46.51-19.72,44.78-18.92-1.77-21.3-37.92-10.69-52.8-6.26-1.98-17.92,8.27-21.01.2-1.18-3.08.21-6.87,3.94-8.45,19.5-8.25,41.43-3.46,58.59,8.91,2.49,1.79,3.73,4.33,2.99,6.74-.87,2.83-3.72,3.94-6.84,3.42-2.44-.41-3.12-2.53-7.27-2.8Z"/>
</svg>